<?xml version="1.0" standalone="no"?>
<!DOCTYPE svg PUBLIC "-//W3C//DTD SVG 1.1//EN" "http://www.w3.org/Graphics/SVG/1.1/DTD/svg11.dtd" >
<svg>
<metadata>
Created by FontForge 20090914 at Mon Dec 10 12:37:40 2018
 By www-data
Font data copyright Google 2013
</metadata>
<defs>
<font id="RobotoSlab-Light" horiz-adv-x="1130" >
  <font-face 
    font-family="Roboto Slab"
    font-weight="300"
    font-stretch="normal"
    units-per-em="2048"
    panose-1="0 0 0 0 0 0 0 0 0 0"
    ascent="1638"
    descent="-410"
    x-height="1082"
    cap-height="1456"
    bbox="-825 -557.998 2603 2146"
    underline-thickness="100"
    underline-position="-100"
    unicode-range="U+0002-U+FFFD"
  />
<missing-glyph horiz-adv-x="498" 
 />
    <glyph glyph-name="fi" unicode="fi" horiz-adv-x="1209" 
d="M75 88l163 12.999v883h-179v98h179v138c0 115.333 31.833 204.333 95.5 267s151.834 94 264.501 94c44 0 89 -5 135 -15s92.667 -24.667 140 -44l-19 -103c-40 16.667 -79.333 29.667 -118 39s-82.334 14 -131.001 14c-81.333 0 -142.833 -21.667 -184.5 -65
s-62.5 -105.666 -62.5 -186.999v-138h621v-981l163 -13v-88h-445v88l163 13v883h-502v-883l163 -13v-88h-446v88z" />
    <glyph glyph-name="uniFB02" unicode="fl" horiz-adv-x="1324" 
d="M932 1429c-42 13.333 -85.332 23.834 -129.999 31.501s-93.334 11.5 -146.001 11.5c-103.333 0 -178.833 -23.667 -226.5 -71s-71.5 -117.333 -71.5 -210v-109h279v-98h-279v-883l163 -13v-88h-446v88l163 13v883h-158v98h158v109c0 124 36.333 220 109 288
s173.334 102 302.001 102c57.333 0 116.166 -5.83301 176.499 -17.5s120.833 -28.834 181.5 -51.501h44v-1411l163 -13v-88h-445v88l163 13v1328v0z" />
    <glyph glyph-name=".notdef" horiz-adv-x="498" 
 />
    <glyph glyph-name="uni0009" horiz-adv-x="0" 
 />
    <glyph glyph-name="uni0009" horiz-adv-x="0" 
 />
    <glyph glyph-name="uni0002" horiz-adv-x="0" 
 />
    <glyph glyph-name="nonmarkingreturn" unicode="&#xd;" horiz-adv-x="498" 
 />
    <glyph glyph-name="space" unicode=" " horiz-adv-x="498" 
 />
    <glyph glyph-name="exclam" unicode="!" horiz-adv-x="458" 
d="M273 478h-119v978h119v-978zM285 0h-142v167h142v-167z" />
    <glyph glyph-name="quotedbl" unicode="&#x22;" horiz-adv-x="711" 
d="M270 1344l-33 -261h-71l2 255v222h102v-216zM510 1344l-33 -261h-72l3 258v219h102v-216z" />
    <glyph glyph-name="numbersign" unicode="#" horiz-adv-x="1246" 
d="M731 410h-314l-77 -410h-99l77 410h-255v93h272l83 441h-279v96h297l79 416h99l-79 -416h315l79 416h99l-79 -416h230v-96h-248l-83 -441h256v-93h-274l-77 -410h-99zM434 503h315l83 441h-315z" />
    <glyph glyph-name="dollar" unicode="$" horiz-adv-x="1097" 
d="M862 359c0 74 -24 134.335 -72 181.002s-132.667 91.334 -254 134.001c-138.667 44 -241.334 97 -308.001 159s-100 149.333 -100 262c0 108 33.333 196 100 264s157.334 106.667 272.001 116v202h102v-202c116.667 -10.667 207.167 -54.334 271.5 -131.001
s95.833 -180.334 94.5 -311.001l-3 -5h-112c0 101.333 -26.833 183.666 -80.5 246.999s-128.167 95 -223.5 95c-98.667 0 -173.5 -25.833 -224.5 -77.5s-76.5 -116.834 -76.5 -195.501c0 -76 22.667 -137.167 68 -183.5s132.333 -90.833 261 -133.5
c137.333 -46 239.166 -99.5 305.499 -160.5s99.5 -147.167 99.5 -258.5c0 -110.667 -34.5 -199.167 -103.5 -265.5s-162.167 -104.166 -279.5 -113.499v-190h-102v189c-120.667 8 -220.667 46.667 -300 116s-117.666 174.333 -114.999 315l3 6h111
c0 -118 33.833 -203 101.5 -255s149.167 -78 244.5 -78c98 0 175.833 25.833 233.5 77.5s86.5 117.167 86.5 196.5z" />
    <glyph glyph-name="percent" unicode="%" horiz-adv-x="1458" 
d="M77 1176c0 84.667 26.1689 156 78.502 214s121.166 87 206.499 87s154.166 -29 206.499 -87s78.5 -129.333 78.5 -214v-77c0 -84 -26.167 -154.833 -78.5 -212.5s-120.5 -86.5 -204.5 -86.5c-86 0 -155.333 28.833 -208 86.5s-79 128.5 -79 212.5v77zM174.002 1099
c0 -58.667 16.334 -108.667 49.001 -150s79.667 -62 141 -62c59.333 0 105.166 20.667 137.499 62s48.5 91.333 48.5 150v77c0 58.667 -16.333 109 -49 151s-79 63 -139 63s-106.333 -21 -139 -63s-49 -92.333 -49 -151v-77zM810.003 357c0 84 26.167 155 78.5 213
s120.833 87 205.5 87c85.333 0 154.333 -29 207 -87s79 -129 79 -213v-78c0 -84.667 -26.333 -155.834 -79 -213.501s-121 -86.5 -205 -86.5c-86 0 -155.167 28.833 -207.5 86.5s-78.5 128.834 -78.5 213.501v78zM906.003 279c0 -58.667 16.334 -108.833 49.001 -150.5
s79.667 -62.5 141 -62.5c59.333 0 105.333 20.667 138 62s49 91.666 49 150.999v78c0 60.667 -16.333 111.334 -49 152.001s-79.334 61 -140.001 61c-60 0 -106.333 -20.5 -139 -61.5s-49 -91.5 -49 -151.5v-78zM440.004 121.001l-74 48l711 1138l74 -48z" />
    <glyph glyph-name="ampersand" unicode="&#x26;" horiz-adv-x="1269" 
d="M370 794c-54 67.333 -93.832 128.5 -119.499 183.5s-38.5 111.5 -38.5 169.5c0 105.333 29.5 186.666 88.5 243.999s140.167 86 243.5 86c96 0 172.167 -27 228.5 -81s84.5 -122 84.5 -204c0 -60.667 -15 -112.5 -45 -155.5s-73.333 -86.167 -130 -129.5l-158 -122
l411 -480c32.667 47.333 58 100.333 76 159s27 121 27 187h111c0 -85.333 -12.333 -163.666 -37 -234.999s-59.667 -136 -105 -194l185 -217l-2 -5h-138l-122 141c-56.667 -52 -118.667 -92 -186 -120s-140 -42 -218 -42c-139.333 0 -249.5 35.667 -330.5 107
s-121.5 166.333 -121.5 285c0 80 24.167 152.167 72.5 216.5s118.166 129.833 209.499 196.5zM526.001 80c61.333 0 121.167 12.0029 179.5 36.0029s110.833 58.333 157.5 103l-414 482l-8.5 8.5c-2.33301 2.33301 -4.16602 4.83301 -5.49902 7.5l-47 -36
c-76.667 -62.667 -128.334 -119.334 -155.001 -170.001s-40 -97.334 -40 -140.001c0 -82.667 28.5 -151.834 85.5 -207.501s139.5 -83.5 247.5 -83.5zM332.002 1149c0 -44 10.501 -90.001 31.501 -138.001s52.833 -98 95.5 -150l177 132c39.333 30 67.166 61.333 83.499 94
s24.5 67.667 24.5 105c0 52.667 -17.667 96.334 -53 131.001s-84.333 52 -147 52c-68 0 -120.333 -21.667 -157 -65s-55 -97 -55 -161z" />
    <glyph glyph-name="quotesingle" unicode="'" horiz-adv-x="438" 
d="M276 1365l-39 -275h-71l8 266v204h102v-195z" />
    <glyph glyph-name="parenleft" unicode="(" horiz-adv-x="636" 
d="M114 588c0 242 46.167 458.999 138.5 650.999s195.5 320.333 309.5 385h6l26 -73c-96.667 -68.667 -181 -190.667 -253 -366s-108 -373.333 -108 -594v-20c0 -220.667 36 -418.667 108 -594s156.333 -298.666 253 -369.999l-26 -70h-6
c-115.333 66.667 -218.833 194 -310.5 382s-137.5 406 -137.5 654v15z" />
    <glyph glyph-name="parenright" unicode=")" horiz-adv-x="629" 
d="M491 573c0 -248 -46.167 -466 -138.5 -654s-195.833 -315.333 -310.5 -382l-6 1l-25 69c96 68 180.167 190.333 252.5 367s108.5 375.667 108.5 597v20c0 219.333 -36.833 417.833 -110.5 595.5s-157.167 300.5 -250.5 368.5l25 69l6 1
c113.333 -65.333 216.5 -194 309.5 -386s139.5 -409 139.5 -651v-15z" />
    <glyph glyph-name="asterisk" unicode="*" horiz-adv-x="952" 
d="M398 1000l-332 108l32 101l332 -123l-4 370h104l-8 -373l324 127l33 -101l-333 -115l223 -294l-86 -63l-213 305l-204 -303l-85 61z" />
    <glyph glyph-name="plus" unicode="+" horiz-adv-x="1145" 
d="M627 740h444v-112h-444v-482h-120v482h-434v112h434v466h120v-466z" />
    <glyph glyph-name="comma" unicode="," horiz-adv-x="392" 
d="M271 48c0 -61.333 -12.5 -121.332 -37.5 -179.999s-59.167 -108.334 -102.5 -149.001l-71 52c31.333 44 54.5 87.667 69.5 131s22.5 91.333 22.5 144v142h119v-140z" />
    <glyph glyph-name="hyphen" unicode="-" horiz-adv-x="793" 
d="M632 570h-478v101h478v-101z" />
    <glyph glyph-name="period" unicode="." horiz-adv-x="466" 
d="M282 0h-137v164h137v-164z" />
    <glyph glyph-name="slash" unicode="/" horiz-adv-x="798" 
d="M108 -125h-108l608 1581h108z" />
    <glyph glyph-name="zero" unicode="0" horiz-adv-x="1158" 
d="M1026 565c0 -188 -39.834 -332.667 -119.501 -434s-190.5 -152 -332.5 -152c-141.333 0 -252.166 50.833 -332.499 152.5s-120.5 246.167 -120.5 433.5v325c0 187.333 39.833 332 119.5 434s190.167 153 331.5 153c142 0 253.167 -51 333.5 -153
s120.5 -246.667 120.5 -434v-325zM905.999 910c0 149.333 -28.5 264.168 -85.5 344.501s-139.833 120.5 -248.5 120.5c-108 0 -190.333 -40.333 -247 -121s-85 -195.334 -85 -344.001v-363c0 -148 28.833 -262.833 86.5 -344.5s140.167 -122.5 247.5 -122.5
c108 0 190.333 40.667 247 122s85 196.333 85 345v363z" />
    <glyph glyph-name="one" unicode="1" horiz-adv-x="831" 
d="M114 88l261 13v1228l-287 -41v84l407 88v-1359l261 -13v-88h-642v88z" />
    <glyph glyph-name="two" unicode="2" horiz-adv-x="1116" 
d="M101 0l-0.00292969 91.999l477 541c88.667 100 151.167 183.333 187.5 250s54.5 130.667 54.5 192c0 90 -25.667 162.5 -77 217.5s-123.333 82.5 -216 82.5c-110.667 0 -194.667 -30.667 -252 -92s-86 -143.333 -86 -246h-111l-2 6
c-3.33301 121.333 35.834 224 117.501 308s192.834 126 333.501 126c125.333 0 225.5 -36 300.5 -108s112.5 -168.667 112.5 -290c0 -80 -25.167 -161.167 -75.5 -243.5s-120.166 -174.166 -209.499 -275.499l-402 -454l2 -5h635l10 205h106v-306h-905z" />
    <glyph glyph-name="three" unicode="3" horiz-adv-x="1102" 
d="M374 793l138.001 0.000976562c106 0 186.333 26.5 241 79.5s82 121.167 82 204.5c0 90.667 -25.667 163 -77 217s-127.333 81 -228 81c-94 0 -170.833 -27.5 -230.5 -82.5s-89.5 -127.5 -89.5 -217.5h-112l-2 6c-3.33301 113.333 36.5 207.666 119.5 282.999
s187.833 113 314.5 113c129.333 0 232.5 -35.667 309.5 -107s115.5 -170.333 115.5 -297c0 -68.667 -21.333 -133.167 -64 -193.5s-102.667 -105.166 -180 -134.499c90.667 -26 158.5 -69.833 203.5 -131.5s67.5 -134.5 67.5 -218.5c0 -129.333 -41.833 -231 -125.5 -305
s-191.167 -111 -322.5 -111c-127.333 0 -236.5 36.167 -327.5 108.5s-134.833 172.833 -131.5 301.5l2 6h111c0 -92.667 32.167 -168.334 96.5 -227.001s147.5 -88 249.5 -88c103.333 0 184 26.833 242 80.5s87 130.5 87 230.5c0 102 -30.333 177.5 -91 226.5
s-147.334 73.5 -260.001 73.5h-138v102z" />
    <glyph glyph-name="four" unicode="4" horiz-adv-x="1178" 
d="M864 469h228v-101h-228v-267l163 -13v-88h-445v88l163 13v267h-682v68l670 1020h131v-987zM205 469h540v830l-6 2l-51 -109z" />
    <glyph glyph-name="five" unicode="5" horiz-adv-x="1070" 
d="M827 1219l-11.999 125.999h-520l-54 -519c36.667 33.333 77 59 121 77s103.667 28 179 30c124 2 224 -39.667 300 -125s114 -200 114 -344c0 -147.333 -37 -265 -111 -353s-185 -132 -333 -132c-120 0 -219.833 33.5 -299.5 100.5s-117.834 166.167 -114.501 297.5l2 6
h107c0 -98 27.667 -173 83 -225s129.333 -78 222 -78c108.667 0 189.834 32.667 243.501 98s80.5 160 80.5 284c0 108.667 -26.833 195.834 -80.5 261.501s-128.834 98.5 -225.501 98.5c-93.333 0 -164.5 -14.833 -213.5 -44.5s-84.5 -74.5 -106.5 -134.5l-97 16l80 797h732
v-237h-97z" />
    <glyph glyph-name="six" unicode="6" horiz-adv-x="1124" 
d="M615 1477c50 0 99.335 -5.66895 148.002 -17.002s92 -27.666 130 -48.999l-29 -96c-38 20.667 -76 35.834 -114 45.501s-83 14.5 -135 14.5c-112.667 0 -203.334 -44.333 -272.001 -133s-103 -223.334 -103 -404.001v-49c40 52 91 93.667 153 125s130.667 47 206 47
c130.667 0 234 -45 310 -135s114 -207.333 114 -352c0 -143.333 -40.833 -261.666 -122.5 -354.999s-187.834 -140 -318.501 -140c-135.333 0 -246 50.833 -332 152.5s-129 245.167 -129 430.5v265c0 212 46.167 373.333 138.5 484s210.833 166 355.5 166zM575.002 862.998
c-80.667 0 -151.165 -21 -211.498 -63s-101.5 -96 -123.5 -162v-85c0 -151.333 31.667 -268 95 -350s145.666 -123 246.999 -123c97.333 0 175.166 38.167 233.499 114.5s87.5 169.5 87.5 279.5c0 116.667 -28.333 210.667 -85 282s-137.667 107 -243 107z" />
    <glyph glyph-name="seven" unicode="7" horiz-adv-x="1115" 
d="M1031 1354c-157.333 -186 -277.834 -375.334 -361.501 -568.001s-139.5 -414 -167.5 -664l-10 -122h-120l10 122c28.667 247.333 86.834 470.833 174.501 670.5s204.5 386.834 350.5 561.501h-717l-8 -205h-106v307h955v-102z" />
    <glyph glyph-name="eight" unicode="8" horiz-adv-x="1127" 
d="M987 1081c0 -78.667 -22.833 -147.5 -68.5 -206.5s-106.834 -101.833 -183.501 -128.5c88 -27.333 158.833 -73 212.5 -137s80.5 -138.333 80.5 -223c0 -130.667 -43.667 -231.167 -131 -301.5s-199.333 -105.5 -336 -105.5c-140 0 -253.167 35 -339.5 105
s-129.5 170.667 -129.5 302c0 86 26.333 160.833 79 224.5s123.334 109.167 212.001 136.5c-76.667 26.667 -137.5 69.334 -182.5 128.001s-67.5 127.334 -67.5 206.001c0 125.333 39.5 222.666 118.5 291.999s181.5 104 307.5 104c124.667 0 227.167 -34.833 307.5 -104.5
s120.5 -166.834 120.5 -291.501zM909 385c0 92 -33.502 166.833 -100.502 224.5s-150.167 86.5 -249.5 86.5c-101.333 0 -184.666 -28.833 -249.999 -86.5s-98 -132.5 -98 -224.5c0 -95.333 32.333 -170 97 -224s149 -81 253 -81c100.667 0 183.834 27.167 249.501 81.5
s98.5 128.833 98.5 223.5zM867.998 1082c0 84 -29.667 153.833 -89 209.5s-132.666 83.5 -219.999 83.5c-90 0 -163.667 -26.667 -221 -80s-86 -124.333 -86 -213c0 -86 28.667 -154.833 86 -206.5s131.666 -77.5 222.999 -77.5c88.667 0 162 25.833 220 77.5
s87 120.5 87 206.5z" />
    <glyph glyph-name="nine" unicode="9" horiz-adv-x="1138" 
d="M505 80c113.333 0 202.003 43.3311 266.003 129.998s96 220.334 96 401.001v42c-36 -60.667 -83.667 -107.5 -143 -140.5s-125.333 -49.5 -198 -49.5c-132.667 0 -239.5 45.833 -320.5 137.5s-121.5 210.834 -121.5 357.501c0 147.333 42.333 270.666 127 369.999
s190 149 316 149c142 0 254.833 -46.333 338.5 -139s125.5 -232.667 125.5 -420v-305c0 -212.667 -43.833 -371.5 -131.5 -476.5s-205.834 -157.5 -354.501 -157.5c-51.333 0 -103.333 5 -156 15s-102.667 25.333 -150 46l22 100
c45.333 -21.333 90.166 -36.666 134.499 -45.999s94.166 -14 149.499 -14zM526.003 563.998c86.667 0 159 22.167 217 66.5s99.333 99.166 124 164.499v132c0 150.667 -29.833 263 -89.5 337s-141.5 111 -245.5 111c-94 0 -171.5 -40.667 -232.5 -122
s-91.5 -179.666 -91.5 -294.999c0 -112.667 28.5 -206.5 85.5 -281.5s134.5 -112.5 232.5 -112.5z" />
    <glyph glyph-name="colon" unicode=":" horiz-adv-x="389" 
d="M268 0h-137v164h137v-164zM268 916h-137v164h137v-164z" />
    <glyph glyph-name="semicolon" unicode=";" horiz-adv-x="391" 
d="M272 918h-137v164h137v-164zM276 48c0 -61.333 -12.5 -121.332 -37.5 -179.999s-59.167 -108.334 -102.5 -149.001l-71 52c31.333 44 54.5 87.667 69.5 131s22.5 91.333 22.5 144v142h119v-140z" />
    <glyph glyph-name="less" unicode="&#x3c;" horiz-adv-x="1022" 
d="M289 578l-108 -28v-6l108 -28l614 -268v-126l-827 379v97l827 378v-126z" />
    <glyph glyph-name="equal" unicode="=" horiz-adv-x="1127" 
d="M981 833h-834v106h834v-106zM981 422h-834v106h834v-106z" />
    <glyph glyph-name="greater" unicode="&#x3e;" horiz-adv-x="1056" 
d="M125 844v123l844 -378v-97l-844 -379v124l631 274l108 27v6l-108 29z" />
    <glyph glyph-name="question" unicode="?" horiz-adv-x="925" 
d="M361 404c0.666992 87.333 8 148.167 22 182.5s52 79.833 114 136.5c71.333 73.333 123.666 135.5 156.999 186.5s50 115.167 50 192.5c0 85.333 -22.667 151.333 -68 198s-110 70 -194 70c-78.667 0 -142 -22.833 -190 -68.5s-72.333 -107.5 -73 -185.5h-111l-2 6
c-2 110 32.5 196.667 103.5 260s161.833 95 272.5 95c119.333 0 212.833 -33.667 280.5 -101s101.5 -158.333 101.5 -273c0 -90 -22.167 -169.833 -66.5 -239.5s-107.166 -142.5 -188.499 -218.5c-41.333 -35.333 -66.5 -68.333 -75.5 -99s-13.5 -78 -13.5 -142h-119z
M496 0.000976562h-138v154h138v-154z" />
    <glyph glyph-name="at" unicode="@" horiz-adv-x="1809" 
d="M1715 513c-6.66699 -144 -45.6699 -268.999 -117.003 -374.999s-175.666 -159 -312.999 -159c-52 0 -95.667 17 -131 51s-58.333 81 -69 141c-35.333 -64 -78.833 -112 -130.5 -144s-111.834 -48 -180.501 -48c-87.333 0 -153.666 39.833 -198.999 119.5
s-61.666 185.5 -48.999 317.5c15.333 169.333 62.333 305.166 141 407.499s174 153.5 286 153.5c62 0 112.167 -9 150.5 -27s80.5 -45 126.5 -81l-2 -2h3l-50 -574c-6.66699 -88 3.33301 -148 30 -180s58.334 -48 95.001 -48c94.667 0 169.5 41.5 224.5 124.5
s85.833 190.833 92.5 323.5c12.667 259.333 -37 460.833 -149 604.5s-288.667 215.5 -530 215.5c-216 0 -393.833 -78.5 -533.5 -235.5s-215.167 -363.5 -226.5 -619.5c-12.667 -252.667 41.833 -456.834 163.5 -612.501s294.834 -233.5 519.501 -233.5
c58.667 0 118 7.33301 178 22s110.667 33.667 152 57l31 -75c-42.667 -27.333 -98.334 -49 -167.001 -65s-134.667 -24 -198 -24c-253.333 0 -449.333 83.167 -588 249.5s-201.667 393.5 -189 681.5c12 282.667 96.167 510.334 252.5 683.001s359.5 259 609.5 259
c260.667 0 456.5 -80.5 587.5 -241.5s190.833 -382.833 179.5 -665.5zM635.997 416.001c-10.667 -103.333 -2.00195 -185.667 25.998 -247s74 -92 138 -92c57.333 0 109.333 14.333 156 43s87.667 81 123 157v8.5c0 2.33301 0.333008 4.83301 1 7.5l47 543
c-21.333 15.333 -45.166 27.5 -71.499 36.5s-55.166 13.5 -86.499 13.5c-89.333 0 -163.333 -39.667 -222 -119s-95.667 -196.333 -111 -351z" />
    <glyph glyph-name="A" unicode="A" horiz-adv-x="1485" 
d="M55 88l107 8l517 1360h113l512 -1360l109 -8v-88h-359v88l127 10l-120 326h-654l-121 -326l127 -10v-88h-358v88zM447 531h575l-283 770h-6z" />
    <glyph glyph-name="B" unicode="B" horiz-adv-x="1322" 
d="M659 1456c151.333 0 269.166 -31.834 353.499 -95.501s126.5 -159.5 126.5 -287.5c0 -74.667 -21.167 -139.667 -63.5 -195s-99.833 -93.666 -172.5 -114.999c88.667 -16 160.667 -57.667 216 -125s83 -145 83 -233c0 -130 -42.167 -230 -126.5 -300
s-197.166 -105 -338.499 -105h-666v88l163 13v1253l-163 13v89h163h425zM353 701.999l0.000976562 -601h384c107.333 0 191.666 26.5 252.999 79.5s92 127.167 92 222.5c0 87.333 -27.833 159 -83.5 215s-136.5 84 -242.5 84h-403zM353.001 802.999h334.999
c105.333 0 186.833 23.167 244.5 69.5s86.5 114.5 86.5 204.5c0 92 -30.667 161.167 -92 207.5s-150.666 69.5 -267.999 69.5h-306v-551z" />
    <glyph glyph-name="C" unicode="C" horiz-adv-x="1349" 
d="M1230 1000l-92.998 -0.000976562l-17 221c-38.667 46 -89 83.167 -151 111.5s-133.667 42.5 -215 42.5c-162.667 0 -292 -59.167 -388 -177.5s-144 -271.166 -144 -458.499v-21c0 -187.333 47.5 -340.5 142.5 -459.5s219.833 -178.5 374.5 -178.5
c82 0 156.5 14.333 223.5 43s119.5 65.667 157.5 111l17 221h93v-256c-45.333 -62.667 -111.5 -115 -198.5 -157s-184.5 -63 -292.5 -63c-186.667 0 -339.334 69.167 -458.001 207.5s-178 315.5 -178 531.5v19c0 216.667 59.167 394.167 177.5 532.5
s273.166 207.5 464.499 207.5c108 0 204.5 -21.167 289.5 -63.5s150.167 -94.833 195.5 -157.5v-256z" />
    <glyph glyph-name="D" unicode="D" horiz-adv-x="1401" 
d="M657 1456c178 0 325 -59.333 441 -178s174 -271 174 -457v-187c0 -186.667 -58 -339 -174 -457s-263 -177 -441 -177h-586v88l163 13v1253l-163 13v89h163h423zM353 1354l-0.000976562 -1253h304c144 0 262.5 50.333 355.5 151s139.5 228 139.5 382v190
c0 152 -46.667 278.333 -140 379s-211.666 151 -354.999 151h-304z" />
    <glyph glyph-name="E" unicode="E" horiz-adv-x="1286" 
d="M950 705h-597v-604h688l9 218h106v-319h-1085v88l163 13v1253l-163 13v89h163h917v-320h-106l-9 218h-683v-547h597v-102z" />
    <glyph glyph-name="F" unicode="F" horiz-adv-x="1258" 
d="M71 88l163 13v1253l-163 13v89h1092v-320h-106l-9 218h-695v-569h608v-103h-608v-581l163 -13v-88h-445v88z" />
    <glyph glyph-name="G" unicode="G" horiz-adv-x="1420" 
d="M1239 160c-34.667 -42.667 -95.001 -83.501 -181.001 -122.501s-193.667 -58.5 -323 -58.5c-189.333 0 -343.333 68.333 -462 205s-178 314.667 -178 534v31c0 216 59.333 391.333 178 526s274.334 202 467.001 202c109.333 0 206 -18.167 290 -54.5
s152.333 -86.166 205 -149.499v-253h-93l-21 213c-39.333 43.333 -90.333 77.833 -153 103.5s-135.667 38.5 -219 38.5c-165.333 0 -295.666 -58 -390.999 -174s-143 -266 -143 -450v-33c0 -189.333 46.833 -343 140.5 -461s220.167 -177 379.5 -177
c94.667 0 175.667 12.333 243 37s114.666 51 141.999 79v353l-280 5v97h399v-491z" />
    <glyph glyph-name="H" unicode="H" horiz-adv-x="1537" 
d="M71 1367v89h445v-89l-163 -13v-582h828v582l-163 13v89h163h119h163v-89l-163 -13v-1253l163 -13v-88h-445v88l163 13v569h-828v-569l163 -13v-88h-445v88l163 13v1253z" />
    <glyph glyph-name="I" unicode="I" horiz-adv-x="627" 
d="M91 1367v89h446v-89l-163 -13v-1253l163 -13v-88h-446v88l163 13v1253z" />
    <glyph glyph-name="J" unicode="J" horiz-adv-x="1158" 
d="M1080 1456v-89l-163 -13v-941c0 -132.667 -39.5 -238.167 -118.5 -316.5s-181.167 -117.5 -306.5 -117.5c-136.667 0 -244.667 35.333 -324 106s-117.333 174 -114 310l2 6h112c0 -105.333 28 -185.166 84 -239.499s136 -81.5 240 -81.5
c88.667 0 161.667 30.167 219 90.5s86 141.166 86 242.499v941l-163 13v89h283h163z" />
    <glyph glyph-name="K" unicode="K" horiz-adv-x="1417" 
d="M71 88l163 13v1253l-163 13v89h445v-89l-163 -13v-568h199l490 573l-140 8v89h407v-89l-128 -12l-521 -615l562 -640l131 -12v-88h-415v88l138 8l-523 589h-200v-584l163 -13v-88h-445v88z" />
    <glyph glyph-name="L" unicode="L" horiz-adv-x="1178" 
d="M71 0v88l163 13v1253l-163 13v89h163h120h163v-89l-163 -13v-1253h605l9 205h106v-306h-1003z" />
    <glyph glyph-name="M" unicode="M" horiz-adv-x="1861" 
d="M1518 1280l-6 2l-541 -1282h-83l-540 1276l-6 -1l11 -632v-542l163 -13v-88h-445v88l163 13v1253l-163 13v89h163h157l535 -1282h6l537 1282h321v-89l-163 -13v-1253l163 -13v-88h-445v88l163 13v542z" />
    <glyph glyph-name="N" unicode="N" horiz-adv-x="1536" 
d="M1469 1456v-89l-163 -13v-1354h-119l-827 1252l-6 -1v-1150l163 -13v-88h-446v88l163 13v1253l-163 13v89h163h120l827 -1250l6 1v1147l-163 13v89h282h163z" />
    <glyph glyph-name="O" unicode="O" horiz-adv-x="1468" 
d="M1357 718c0 -218.667 -58.332 -396.5 -174.999 -533.5s-268.334 -205.5 -455.001 -205.5c-184 0 -333.5 68.667 -448.5 206s-172.5 315 -172.5 533v19c0 218 57.333 395.833 172 533.5s264 206.5 448 206.5c186.667 0 338.5 -68.833 455.5 -206.5
s175.5 -315.5 175.5 -533.5v-19zM1237 739c0 188.667 -46 341.334 -138 458.001s-216.333 175 -373 175c-154 0 -275.833 -58.333 -365.5 -175s-134.5 -269.334 -134.5 -458.001v-21c0 -190 45 -343.333 135 -460s212 -175 366 -175c158 0 282.5 58.167 373.5 174.5
s136.5 269.833 136.5 460.5v21z" />
    <glyph glyph-name="P" unicode="P" horiz-adv-x="1276" 
d="M685 1456c152.667 0 270.834 -38.834 354.501 -116.501s125.5 -180.5 125.5 -308.5c0 -129.333 -41.833 -232.666 -125.5 -309.999s-201.834 -116 -354.501 -116h-332v-504l163 -13v-88h-445v88l163 13v1253l-163 13v89h163h451zM353 706.999h332
c120 0 210.167 30.5 270.5 91.5s90.5 137.833 90.5 230.5c0 93.333 -30 170.833 -90 232.5s-150.333 92.5 -271 92.5h-332v-647z" />
    <glyph glyph-name="Q" unicode="Q" horiz-adv-x="1463" 
d="M1357 718c0 -142 -25.833 -268.5 -77.5 -379.5s-123.5 -197.5 -215.5 -259.5l301 -215l-83 -76l-328 233c-35.333 -14 -72 -24.5 -110 -31.5s-77 -10.5 -117 -10.5c-184 0 -333.5 68.667 -448.5 206s-172.5 315 -172.5 533v19c0 218 57.333 395.833 172 533.5
s264 206.5 448 206.5c186.667 0 338.5 -68.833 455.5 -206.5s175.5 -315.5 175.5 -533.5v-19zM1237 739c0 188.667 -46 341.334 -138 458.001s-216.333 175 -373 175c-154 0 -275.833 -58.333 -365.5 -175s-134.5 -269.334 -134.5 -458.001v-21c0 -190 45 -343.333 135 -460
s212 -175 366 -175c158 0 282.5 58.167 373.5 174.5s136.5 269.833 136.5 460.5v21z" />
    <glyph glyph-name="R" unicode="R" horiz-adv-x="1374" 
d="M676 1455c156 0 275.833 -34 359.5 -102s125.5 -166.333 125.5 -295c0 -76 -22.333 -144.333 -67 -205s-107.667 -104.667 -189 -132c90 -22.667 154.833 -63.167 194.5 -121.5s59.5 -131.833 59.5 -220.5v-133c0 -51.333 8 -89.333 24 -114s40.333 -38 73 -40l49 -3v-89
h-76c-70.667 0 -120 24 -148 72s-42 106.667 -42 176v129c0 88 -28.167 157.833 -84.5 209.5s-134.833 78.5 -235.5 80.5h-366v-566l163 -14v-87h-445v87l163 14v1252l-163 14v88h605zM353 769l309 0.000976562c131.333 0 227.333 26.333 288 79s91 123 91 211
c0 93.333 -30.333 165.666 -91 216.999s-152 77 -274 77h-323v-584z" />
    <glyph glyph-name="S" unicode="S" horiz-adv-x="1220" 
d="M1099 1024l-98.002 0.00195312l-17 206c-36 45.333 -85 80.833 -147 106.5s-134.667 38.5 -218 38.5c-120 0 -213.5 -26 -280.5 -78s-100.5 -116.667 -100.5 -194c0 -73.333 30.167 -134.5 90.5 -183.5s164.833 -92.167 313.5 -129.5
c156.667 -40 275.834 -94 357.501 -162s122.5 -157.667 122.5 -269c0 -116 -47.333 -208.333 -142 -277s-215.667 -103 -363 -103c-104 0 -200.5 18.333 -289.5 55s-161.833 89 -218.5 157v255h98l17 -213c44 -50 100.333 -88 169 -114s143.334 -39 224.001 -39
c114.667 0 207.5 25.333 278.5 76s106.5 117.667 106.5 201c0 79.333 -29.667 144.166 -89 194.499s-162.666 94.833 -309.999 133.5c-159.333 40 -280 92 -362 156s-123 150.333 -123 259c0 111.333 46.667 202 140 272s213.666 105 360.999 105
c106 0 200.5 -18.333 283.5 -55s148.5 -86.334 196.5 -149.001v-249z" />
    <glyph glyph-name="T" unicode="T" horiz-adv-x="1280" 
d="M1218 1456v-307h-106l-9 205h-404v-1253l163 -13v-88h-446v88l163 13v1253h-404l-8 -205h-107v307h1158z" />
    <glyph glyph-name="U" unicode="U" horiz-adv-x="1487" 
d="M505 1456l-0.000976562 -89l-163 -13v-885c0 -124 36.667 -219.833 110 -287.5s169 -101.5 287 -101.5c120 0 217.667 33.667 293 101s113 163.333 113 288v885l-163 13v89h445v-89l-163 -13v-885c0 -158.667 -48.5 -280 -145.5 -364s-223.5 -126 -379.5 -126
c-153.333 0 -277.666 42.167 -372.999 126.5s-143 205.5 -143 363.5v885l-163 13v89h163h119h163z" />
    <glyph glyph-name="V" unicode="V" horiz-adv-x="1455" 
d="M430 1367l-136 -11l402 -1110l29 -97h6l29 97l401 1110l-136 11v89h378v-89l-113 -9l-506 -1358h-113l-507 1358l-112 9v89h378v-89z" />
    <glyph glyph-name="W" unicode="W" horiz-adv-x="1937" 
d="M423 1367l-148 -11l230 -944l44 -222h6l54 222l320 1044h113l319 -1044l53 -225l6 1l47 224l227 944l-148 11v89h380v-89l-109 -8l-339 -1359h-113l-339 1117l-38 153h-6l-36 -153l-342 -1117h-113l-339 1359l-109 8v89h380v-89z" />
    <glyph glyph-name="X" unicode="X" horiz-adv-x="1397" 
d="M54 88l122 10l453 640l-438 619l-122 10v89h400v-89l-139 -6l368 -532l369 532l-137 6v89h399v-89l-122 -10l-437 -619l453 -640l123 -10v-88h-399v88l137 6l-384 553l-385 -553l138 -6v-88h-399v88z" />
    <glyph glyph-name="Y" unicode="Y" horiz-adv-x="1423" 
d="M455 1367l-140 -10l394 -710l396 710l-140 10v89h401v-89l-124 -10l-474 -825v-431l163 -13v-88h-446v88l163 13v438l-470 818l-123 10v89h400v-89z" />
    <glyph glyph-name="Z" unicode="Z" horiz-adv-x="1220" 
d="M92 0v92l857 1262h-716l-8 -205h-107v307h977v-87l-861 -1268h778l9 205h107v-306h-1036z" />
    <glyph glyph-name="bracketleft" unicode="[" horiz-adv-x="548" 
d="M486 1562h-210v-1772h210v-102h-329v1976h329v-102z" />
    <glyph glyph-name="backslash" unicode="\" horiz-adv-x="810" 
d="M36 1456h116l608 -1581h-116z" />
    <glyph glyph-name="bracketright" unicode="]" horiz-adv-x="526" 
d="M23 1664h330v-1976h-330v102h210v1772h-210v102z" />
    <glyph glyph-name="asciicircum" unicode="^" horiz-adv-x="844" 
d="M186 729h-115l299 727h89l299 -727h-116l-197 484l-29 105h-6l-30 -105z" />
    <glyph glyph-name="underscore" unicode="_" horiz-adv-x="1149" 
d="M1000 -101h-881v101h881v-101z" />
    <glyph glyph-name="grave" unicode="`" horiz-adv-x="562" 
d="M442 1210h-117l-241 261l2 5h154z" />
    <glyph glyph-name="a" unicode="a" 
d="M844 0c-8 36.667 -13.668 68.332 -17.001 94.999s-5 53.667 -5 81c-40 -56.667 -93.333 -103.667 -160 -141s-141.667 -56 -225 -56c-106 0 -188 27.333 -246 82s-87 128.667 -87 222c0 100 43 179.333 129 238s202.667 88 350 88h239v143
c0 77.333 -24.833 138 -74.5 182s-119.167 66 -208.5 66c-60 0 -114.833 -8.16699 -164.5 -24.5s-91.167 -38.5 -124.5 -66.5l-10 -145h-99l1 208c50 38.667 109.833 70 179.5 94s143.834 36 222.501 36c119.333 0 215.333 -30.333 288 -91s109 -147.667 109 -261v-532
c0 -22 0.5 -43.167 1.5 -63.5s3.16699 -40.166 6.5 -59.499l108 -7v-88h-213zM449.999 84.998c86.667 0 163 20 229 60s113.667 91.667 143 155v217h-241c-108.667 0 -195.5 -22.5 -260.5 -67.5s-97.5 -101.833 -97.5 -170.5c0 -58 20.167 -104.833 60.5 -140.5
s95.833 -53.5 166.5 -53.5z" />
    <glyph glyph-name="b" unicode="b" horiz-adv-x="1133" 
d="M1027 511c0 -162 -36.6689 -291.166 -110.002 -387.499s-174.333 -144.5 -303 -144.5c-79.333 0 -147.666 15.833 -204.999 47.5s-103.666 77.167 -138.999 136.5l-13 -163h-102v1458l-163 13v89h282v-648c36 60.667 82 107.5 138 140.5s122.667 49.5 200 49.5
c130 0 231.667 -51.833 305 -155.5s110 -241.834 110 -414.501v-21zM905.998 532.001c0 138 -26.667 250.167 -80 336.5s-132 129.5 -236 129.5c-84 0 -151.5 -20.667 -202.5 -62s-88.833 -94.333 -113.5 -159v-489c26.667 -62.667 66.5 -112.5 119.5 -149.5
s119.167 -55.5 198.5 -55.5c104 0 182.333 38.667 235 116s79 181.333 79 312v21z" />
    <glyph glyph-name="c" unicode="c" horiz-adv-x="1094" 
d="M559 80c79.333 0 149.338 22.668 210.005 68.001s91 108.333 91 189h106l2 -6c3.33301 -100 -36.5 -183.667 -119.5 -251s-179.5 -101 -289.5 -101c-146.667 0 -260.334 50.5 -341.001 151.5s-121 230.833 -121 389.5v42c0 157.333 40.333 286.666 121 387.999
s194 152 340 152c83.333 0 159.666 -15.667 228.999 -47s125.666 -74 168.999 -128l5 -236h-102l-19 192c-32 36 -71.833 64.5 -119.5 85.5s-101.834 31.5 -162.501 31.5c-116 0 -201.833 -41.5 -257.5 -124.5s-83.5 -187.5 -83.5 -313.5v-42
c0 -128 27.667 -233.333 83 -316s141.666 -124 258.999 -124z" />
    <glyph glyph-name="d" unicode="d" horiz-adv-x="1216" 
d="M849 156c-36 -56.667 -82.3311 -100.333 -138.998 -131s-123.334 -46 -200.001 -46c-129.333 0 -230.5 48.333 -303.5 145s-109.5 225.667 -109.5 387v21c0 172.667 36.5 310.834 109.5 414.501s174.833 155.5 305.5 155.5c75.333 0 140.666 -15.833 195.999 -47.5
s101.333 -76.834 138 -135.501v539l-163 13v89h163h120v-1459l163 -13v-88h-270zM218.002 511.001c0 -130.667 26.166 -234.668 78.499 -312.001s131.166 -116 236.499 -116c76.667 0 140.834 17.333 192.501 52s91.834 82.334 120.501 143.001v512
c-26.667 61.333 -65.167 111.333 -115.5 150s-115.5 58 -195.5 58c-105.333 0 -184.5 -43.167 -237.5 -129.5s-79.5 -198.5 -79.5 -336.5v-21z" />
    <glyph glyph-name="e" unicode="e" horiz-adv-x="1102" 
d="M574 -21c-136 0 -248.667 49.8311 -338 149.498s-134 226.5 -134 380.5v55c0 154.667 44.5 283 133.5 385s196.5 153 322.5 153c132.667 0 237 -42 313 -126s114 -196 114 -336v-102h-764v-29c0 -121.333 32.5 -223.166 97.5 -305.499s150.167 -123.5 255.5 -123.5
c74 0 137.333 10.333 190 31s97.667 50.334 135 89.001l51 -82c-40.667 -42.667 -92 -76.5 -154 -101.5s-136 -37.5 -222 -37.5zM558 999.998c-88 0 -162.167 -33.833 -222.5 -101.5s-95.5 -152.5 -105.5 -254.5l2 -5h634v30c0 94 -27.667 172.667 -83 236
s-130.333 95 -225 95z" />
    <glyph glyph-name="f" unicode="f" horiz-adv-x="725" 
d="M80 984l0.000976562 98h179v158c0 108.667 27.333 192.667 82 252s131 89 229 89c21.333 0 43.333 -1.66699 66 -5s45.667 -8 69 -14l-15 -99c-16 4 -32.333 7.16699 -49 9.5s-36.334 3.5 -59.001 3.5c-65.333 0 -115.5 -20.667 -150.5 -62s-52.5 -99.333 -52.5 -174
v-158h258v-98h-258v-883l163 -13v-88h-446v88l163 13v883h-179z" />
    <glyph glyph-name="g" unicode="g" horiz-adv-x="1148" 
d="M102 532c0 172.667 36.8311 310.833 110.498 414.5s175.834 155.5 306.501 155.5c76.667 0 143.167 -16.833 199.5 -50.5s102.833 -81.167 139.5 -142.5l14 173h101v-1068c0 -139.333 -37.667 -249.333 -113 -330s-180.333 -121 -315 -121
c-52 0 -107.5 6.33301 -166.5 19s-110.5 30 -154.5 52l32 101c43.333 -20.667 88.833 -36.667 136.5 -48s97.834 -17 150.501 -17c102.667 0 180 30.333 232 91s78 145 78 253v137c-36.667 -55.333 -83 -97.833 -139 -127.5s-121.667 -44.5 -197 -44.5
c-130 0 -231.667 48.333 -305 145s-110 225.667 -110 387v21zM221.998 510.999c0 -130 26.5 -233.833 79.5 -311.5s132.167 -116.5 237.5 -116.5c78 0 142.833 17.667 194.5 53s91.5 84 119.5 146v502c-26.667 63.333 -65 114.833 -115 154.5s-115.667 59.5 -197 59.5
c-105.333 0 -184.833 -43.333 -238.5 -130s-80.5 -198.667 -80.5 -336v-21z" />
    <glyph glyph-name="h" unicode="h" horiz-adv-x="1298" 
d="M62 1471l-0.000976562 89.001h282v-663c36 64.667 84 115 144 151s130 54 210 54c114 0 201.5 -35.333 262.5 -106s91.5 -180.334 91.5 -329.001v-566l163 -13v-88h-446v88l163 13v568c0 117.333 -23.167 201.5 -69.5 252.5s-110.166 76.5 -191.499 76.5
c-82 0 -150.5 -21.5 -205.5 -64.5s-95.5 -100.167 -121.5 -171.5v-661l163 -13v-88h-445v88l163 13v1357z" />
    <glyph glyph-name="i" unicode="i" horiz-adv-x="638" 
d="M89 88l163 13v879l-163 13v89h282v-981l163 -13v-88h-445v88zM371 1392h-119v168h119v-168z" />
    <glyph glyph-name="j" unicode="j" horiz-adv-x="562" 
d="M402 -89c0 -111.333 -26.666 -197.168 -79.999 -257.501s-127.666 -90.5 -222.999 -90.5c-20.667 0 -39.834 1.66699 -57.501 5s-35.834 8 -54.501 14l13 101c10 -3.33301 24.167 -6.66602 42.5 -9.99902s34.833 -5 49.5 -5c60 0 106.667 20.5 140 61.5
s50 101.5 50 181.5v1069l-163 13v89h283v-1171zM396.001 1396h-120v164h120v-164z" />
    <glyph glyph-name="k" unicode="k" horiz-adv-x="1194" 
d="M62 1471v89h282v-930h127l329 351l-2 5l-99 7v89h381v-89l-126 -12l-370 -393l421 -489l120 -11v-88h-380v88l114 7l-376 432h-139v-426l163 -13v-88h-445v88l163 13v1357z" />
    <glyph glyph-name="l" unicode="l" horiz-adv-x="610" 
d="M73 1471v89h282v-1459l163 -13v-88h-445v88l163 13v1357z" />
    <glyph glyph-name="m" unicode="m" horiz-adv-x="1959" 
d="M71 993l-0.000976562 89.001h269l11 -179c34.667 63.333 81 112.333 139 147s127 52 207 52c82.667 0 151.667 -20.167 207 -60.5s95 -101.833 119 -184.5c32.667 76 79.167 135.833 139.5 179.5s133.833 65.5 220.5 65.5c115.333 0 204.5 -38.333 267.5 -115
s94.5 -195.334 94.5 -356.001v-529l163 -14v-88h-447v88l163 14v531c0 133.333 -23.5 227.5 -70.5 282.5s-112.5 82.5 -196.5 82.5c-93.333 0 -165.166 -29.667 -215.499 -89s-81.5 -135 -93.5 -227c0 -5.33301 0.166992 -10.333 0.5 -15s0.5 -10.667 0.5 -18v-548l163 -13
v-88h-446v88l163 13v532c0 130.667 -23.833 224.167 -71.5 280.5s-113.167 84.5 -196.5 84.5c-85.333 0 -152.833 -21.5 -202.5 -64.5s-84.5 -100.833 -104.5 -173.5v-659l163 -13v-88h-446v88l163 13v879z" />
    <glyph glyph-name="n" unicode="n" horiz-adv-x="1319" 
d="M75 88l163 12.999v879l-163 13v89h269l11 -189c34.667 66.667 81.5 118.167 140.5 154.5s128.833 54.5 209.5 54.5c117.333 0 206.666 -35.833 267.999 -107.5s92 -183.5 92 -335.5v-558l163 -13v-88h-446v88l163 13v557c0 124 -23.167 211.667 -69.5 263
s-112.166 77 -197.499 77c-84 0 -152.5 -22.167 -205.5 -66.5s-91.167 -103.166 -114.5 -176.499v-654l163 -13v-88h-446v88z" />
    <glyph glyph-name="o" unicode="o" horiz-adv-x="1152" 
d="M97 557c0 159.333 43.666 290 130.999 392s203 153 347 153c144.667 0 260.667 -51 348 -153s131 -232.667 131 -392v-33c0 -160 -43.5 -290.833 -130.5 -392.5s-202.5 -152.5 -346.5 -152.5c-145.333 0 -261.666 50.833 -348.999 152.5s-131 232.5 -131 392.5v33z
M216.999 524c0 -125.333 31.6689 -230.666 95.002 -315.999s151.666 -128 264.999 -128c111.333 0 198.666 42.667 261.999 128s95 190.666 95 315.999v33c0 123.333 -31.833 228 -95.5 314s-151.5 129 -263.5 129s-199.667 -43 -263 -129s-95 -190.667 -95 -314v-33z" />
    <glyph glyph-name="p" unicode="p" horiz-adv-x="1197" 
d="M65 993v89.001h263l15 -168c36.667 60 83.5 106.333 140.5 139s123.833 49 200.5 49c130 0 231.667 -51.833 305 -155.5s110 -241.834 110 -414.501v-21c0 -162 -36.667 -291.167 -110 -387.5s-174.333 -144.5 -303 -144.5c-76 0 -142.5 14.5 -199.5 43.5
s-103.5 70.167 -139.5 123.5v-460l163 -13v-89h-445v89l163 13v1294zM979 532.001c0 137.333 -27.334 249.332 -82.001 335.999s-134.667 130 -240 130c-80.667 0 -146.167 -19.167 -196.5 -57.5s-88.166 -88.166 -113.499 -149.499v-520
c27.333 -59.333 66.833 -106 118.5 -140s116.167 -51 193.5 -51c104.667 0 184.167 39.333 238.5 118s81.5 183 81.5 313v21z" />
    <glyph glyph-name="q" unicode="q" horiz-adv-x="1144" 
d="M97 532c0 172.667 36.499 310.833 109.499 414.5s174.833 155.5 305.5 155.5c74.667 0 139.5 -15.5 194.5 -46.5s100.833 -75.5 137.5 -133.5l12 160h105v-1396l163 -13v-89h-446v89l163 13v456c-36.667 -52.667 -82.667 -93 -138 -121s-119.666 -42 -192.999 -42
c-129.333 0 -230.5 48.333 -303.5 145s-109.5 225.667 -109.5 387v21zM217.999 510.999c0 -130.667 26.1689 -235.168 78.502 -313.501s131.166 -117.5 236.499 -117.5c74.667 0 137.5 16.833 188.5 50.5s90.833 79.834 119.5 138.501v528
c-28 59.333 -66.833 108 -116.5 146s-112.834 57 -189.501 57c-105.333 0 -184.5 -43.5 -237.5 -130.5s-79.5 -199.5 -79.5 -337.5v-21z" />
    <glyph glyph-name="r" unicode="r" horiz-adv-x="823" 
d="M356 1082l15.001 -180.001v-13c30.667 66.667 72.5 118.834 125.5 156.501s115.833 56.5 188.5 56.5c15.333 0 30.166 -1.16699 44.499 -3.5s26.166 -4.83301 35.499 -7.5l-16 -112l-89 6c-75.333 0 -137.166 -21.167 -185.499 -63.5s-82.833 -100.5 -103.5 -174.5v-646
l163 -13v-88h-445v88l163 13v879l-163 13v89h163h104z" />
    <glyph glyph-name="s" unicode="s" horiz-adv-x="1025" 
d="M882 748l-98 0.00390625l-14 153c-30 31.333 -67.833 55.666 -113.5 72.999s-98.167 26 -157.5 26c-87.333 0 -152.833 -18.833 -196.5 -56.5s-65.5 -81.834 -65.5 -132.501c0 -50 18.833 -91.333 56.5 -124s112.834 -61.334 225.501 -86.001
c128.667 -28.667 225 -67.834 289 -117.501s96 -117.167 96 -202.5c0 -90 -36.5 -162.833 -109.5 -218.5s-169.5 -83.5 -289.5 -83.5c-80 0 -152.833 11.167 -218.5 33.5s-122.5 53.833 -170.5 94.5v218h97l17 -154c32 -32 72.5 -55.167 121.5 -69.5
s100.167 -21.5 153.5 -21.5c86.667 0 155 19 205 57s75 84 75 138c0 50.667 -20.833 95 -62.5 133s-116.834 69 -225.501 93c-128.667 28 -224.167 65.167 -286.5 111.5s-93.5 111.166 -93.5 194.499c0 82.667 35 152.5 105 209.5s162.333 85.5 277 85.5
c79.333 0 151.833 -12.167 217.5 -36.5s119.167 -57.166 160.5 -98.499z" />
    <glyph glyph-name="t" unicode="t" horiz-adv-x="733" 
d="M372 1359l0.000976562 -276.998h238v-98h-238v-705c0 -70.667 12.833 -120.834 38.5 -150.501s59.834 -44.5 102.501 -44.5c19.333 0 38.166 0.833008 56.499 2.5s39.5 4.5 63.5 8.5l18 -89c-20 -8.66699 -44.333 -15.334 -73 -20.001s-57.334 -7 -86.001 -7
c-76 0 -135.167 24 -177.5 72s-63.5 124 -63.5 228v705h-186v98h186v277h121z" />
    <glyph glyph-name="u" unicode="u" horiz-adv-x="1232" 
d="M892 178c-34 -63.333 -80.501 -112.333 -139.501 -147s-128.5 -52 -208.5 -52c-114 0 -203.167 38.667 -267.5 116s-96.5 197.333 -96.5 360v525l-134 13v89h134h119v-629c0 -132 22.5 -226.667 67.5 -284s108.833 -86 191.5 -86c90.667 0 162.834 20 216.501 60
s91.5 95.333 113.5 166v671l-154 13v89h154h120v-981l145 -13v-88h-250z" />
    <glyph glyph-name="v" unicode="v" horiz-adv-x="1155" 
d="M411 993l-135 -10l270 -712l35 -127h6l38 127l266 712l-135 10v89h364v-89l-106 -9l-382 -984h-96l-383 984l-106 9v89h364v-89z" />
    <glyph glyph-name="w" unicode="w" horiz-adv-x="1690" 
d="M419 993l-136 -11l175 -631l41 -193h6l51 193l231 731h102l231 -731l52 -198h6l45 198l170 631l-136 11v89h364v-89l-105 -8l-287 -985h-102l-241 740l-47 187h-6l-47 -187l-237 -740h-102l-286 985l-105 8v89h363v-89z" />
    <glyph glyph-name="x" unicode="x" horiz-adv-x="1192" 
d="M73 88l121 11l342 452l-326 431l-122 11v89h367v-89l-112 -6l258 -347l259 348l-111 5v89h367v-89l-121 -11l-326 -431l341 -452l122 -11v-88h-366v88l111 5l-275 368l-274 -368l111 -5v-88h-366v88z" />
    <glyph glyph-name="y" unicode="y" horiz-adv-x="1174" 
d="M1135 993l-110.001 -9.00195l-437 -1157c-28 -73.333 -64.333 -135.666 -109 -186.999s-110 -77 -196 -77c-14 0 -31 1.5 -51 4.5s-34.667 6.16699 -44 9.5l14 100c8 -1.33301 20.833 -2.83301 38.5 -4.5s30.167 -2.5 37.5 -2.5c52.667 0 94.334 18.333 125.001 55
s57.667 84.334 81 143.001l56 145l-384 971l-110 9v89h372v-89l-129 -10l264 -690l38 -130h6l296 820l-132 10v89h374v-89z" />
    <glyph glyph-name="z" unicode="z" horiz-adv-x="1080" 
d="M263 101h588l9 205h107v-306h-851v88l652 891h-534l-8 -204h-107v307h800v-89z" />
    <glyph glyph-name="braceleft" unicode="{" horiz-adv-x="697" 
d="M631 -404c-122 36.667 -208.667 94.499 -260 173.499s-77 175.167 -77 288.5v226c0 81.333 -18.833 144.833 -56.5 190.5s-95.834 68.5 -174.501 68.5v104c78.667 0 136.834 22.5 174.501 67.5s56.5 108.167 56.5 189.5v228c0 114 25.667 210.833 77 290.5
s138 137.834 260 174.501l27 -79c-85.333 -27.333 -147.5 -74.5 -186.5 -141.5s-58.5 -148.5 -58.5 -244.5v-228c0 -73.333 -15.167 -137 -45.5 -191s-76.166 -93.333 -137.499 -118c61.333 -26 107.166 -66.167 137.499 -120.5s45.5 -117.833 45.5 -190.5v-226
c0 -95.333 19.833 -175.833 59.5 -241.5s102.167 -112.5 187.5 -140.5z" />
    <glyph glyph-name="bar" unicode="|" horiz-adv-x="426" 
d="M251 -270h-101v1726h101v-1726z" />
    <glyph glyph-name="braceright" unicode="}" horiz-adv-x="696" 
d="M27 -324c84.667 28 146.833 75.001 186.5 141.001s59.5 146.333 59.5 241v226c0 74.667 15.833 139 47.5 193s80.5 93 146.5 117c-66 23.333 -114.833 62 -146.5 116s-47.5 118.667 -47.5 194v228c0 96 -19.5 177.5 -58.5 244.5s-100.833 114.167 -185.5 141.5l26 79
c121.333 -36.667 208 -94.834 260 -174.501s78 -176.5 78 -290.5v-228c0 -81.333 18.667 -144.5 56 -189.5s95.666 -67.5 174.999 -67.5v-104c-79.333 0 -137.666 -22.833 -174.999 -68.5s-56 -109.167 -56 -190.5v-226c0 -113.333 -25.833 -209.5 -77.5 -288.5
s-138.5 -136.833 -260.5 -173.5z" />
    <glyph glyph-name="asciitilde" unicode="~" horiz-adv-x="1376" 
d="M1234 740c0 -86 -26.999 -160.334 -80.999 -223.001s-121 -94 -201 -94c-58.667 0 -112.167 11.833 -160.5 35.5s-101.833 61.834 -160.5 114.501c-42.667 35.333 -82.334 62 -119.001 80s-73.667 27 -111 27c-52.667 0 -96.5 -20.167 -131.5 -60.5
s-52.5 -93.833 -52.5 -160.5l-96 15c0 87.333 26.333 161.333 79 222s119.667 91 201 91c58 0 111.667 -12.5 161 -37.5s103.333 -62.5 162 -112.5c42.667 -38 81.667 -65.5 117 -82.5s72.333 -25.5 111 -25.5c50.667 0 94.167 21.5 130.5 64.5s54.5 96.833 54.5 161.5z" />
    <glyph glyph-name="nonbreakingspace" unicode="&#xa0;" horiz-adv-x="498" 
 />
    <glyph glyph-name="exclamdown" unicode="&#xa1;" horiz-adv-x="456" 
d="M272 -374h-119v978h119v-978zM284 898h-142v184h142v-184z" />
    <glyph glyph-name="cent" unicode="&#xa2;" horiz-adv-x="1088" 
d="M586 80c79.333 0 149.335 22.666 210.002 67.999s91 108.333 91 189h107l2 -6c2.66699 -90 -30.5 -167.5 -99.5 -232.5s-152.5 -103.5 -250.5 -115.5v-228h-120v228c-128.667 14 -227.834 70.333 -297.501 169s-104.5 221.334 -104.5 368.001v42
c0 146 34.833 268.167 104.5 366.5s168.834 154.833 297.501 169.5v220h120v-219c70.667 -8 135 -27 193 -57s106 -68.333 144 -115l5 -236h-102l-19 192c-32 36 -71.833 64.5 -119.5 85.5s-101.834 31.5 -162.501 31.5c-116 0 -201.833 -41.5 -257.5 -124.5
s-83.5 -187.5 -83.5 -313.5v-42c0 -128 27.667 -233.333 83 -316s141.666 -124 258.999 -124z" />
    <glyph glyph-name="sterling" unicode="&#xa3;" horiz-adv-x="1164" 
d="M132 0l-0.000976562 101h10c46.667 10 81.5 53.167 104.5 129.5s34.5 154.833 34.5 235.5l-7 176h-206v102h203l-11 296c0 136 35.333 242.833 106 320.5s165.334 116.5 284.001 116.5c124 0 217.333 -34.5 280 -103.5s93 -161.5 91 -277.5l-3 -6h-111
c0 98.667 -23 170.834 -69 216.501s-108.667 68.5 -188 68.5c-83.333 0 -149.333 -29.333 -198 -88s-73 -141 -73 -247l11 -296h451v-102h-448l7 -176c0 -71.333 -8.5 -139.333 -25.5 -204s-40.833 -118.334 -71.5 -161.001h654l10 205h106v-306h-941z" />
    <glyph glyph-name="currency" unicode="&#xa4;" horiz-adv-x="1461" 
d="M1116 133c-54 -49.333 -114.499 -87.1641 -181.499 -113.497s-137.167 -39.5 -210.5 -39.5c-74 0 -144.333 13.167 -211 39.5s-126.334 63.833 -179.001 112.5l-155 -158l-85 86l159 161c-40 54 -70.667 113.667 -92 179s-32 134.666 -32 207.999
c0 74.667 11.5 146 34.5 214s55.833 129.333 98.5 184l-168 171l85 87l166 -170c52 44.667 110.333 79.167 175 103.5s132.667 36.5 204 36.5c70.667 0 138.5 -12.333 203.5 -37s123.833 -59.334 176.5 -104.001l169 172l87 -88l-171 -175
c41.333 -54.667 73.333 -115.5 96 -182.5s34 -137.5 34 -211.5c0 -72 -10.667 -140.833 -32 -206.5s-51.333 -124.834 -90 -177.501l163 -164l-87 -87zM242.001 608.002c0 -143.333 47 -265.333 141 -366s207.667 -151 341 -151c132 0 245.167 50.333 339.5 151
s141.5 222.667 141.5 366c0 142 -47.167 263.167 -141.5 363.5s-207.5 150.5 -339.5 150.5c-133.333 0 -247 -50.167 -341 -150.5s-141 -221.5 -141 -363.5z" />
    <glyph glyph-name="yen" unicode="&#xa5;" horiz-adv-x="1383" 
d="M1327 1367l-132 -10l-395 -652h371v-87h-420v-206h420v-86h-420v-225l163 -13v-88h-446v88l163 13v225h-415v86h415v206h-415v87h369l-395 652l-131 10v89h373v-89l-106 -9l367 -626l366 626l-106 9v89h374v-89z" />
    <glyph glyph-name="brokenbar" unicode="&#xa6;" horiz-adv-x="461" 
d="M150 -270v771h119v-771h-119zM269 698h-119v758h119v-758z" />
    <glyph glyph-name="section" unicode="&#xa7;" horiz-adv-x="1213" 
d="M1100 431c0 -65.333 -20.332 -121.5 -60.999 -168.5s-97.667 -81.5 -171 -103.5c62.667 -33.333 109.667 -73.5 141 -120.5s47 -106.167 47 -177.5c0 -110.667 -42.333 -197.667 -127 -261s-198.667 -95 -342 -95c-141.333 0 -260.333 34.167 -357 102.5
s-143.334 175.833 -140.001 322.5l2 6l111 2c0 -115.333 37.667 -199.333 113 -252s165.666 -79 270.999 -79c108.667 0 194 23.5 256 70.5s93 107.5 93 181.5c0 70.667 -25.833 126 -77.5 166s-149.167 80.333 -292.5 121c-161.333 40.667 -281 90.334 -359 149.001
s-117 144 -117 256c0 65.333 19.5 121.666 58.5 168.999s93.833 82.333 164.5 105c-60 32.667 -104.667 72.5 -134 119.5s-44 105.5 -44 175.5c0 107.333 42.667 193.666 128 258.999s199.333 98 342 98c148 0 263.5 -37.167 346.5 -111.5s123.167 -178.833 120.5 -313.5
l-2 -6h-112c0 94 -31.333 172.333 -94 235s-149 94 -259 94c-115.333 0 -202.666 -23.667 -261.999 -71s-89 -107.666 -89 -180.999c0 -76 24.667 -133.667 74 -173s149 -80 299 -122c164.667 -43.333 284.667 -92.833 360 -148.5s113 -138.5 113 -248.5zM577.001 729
c-26.667 6 -51.833 12.4961 -75.5 19.4961s-45.834 14.5 -66.501 22.5c-75.333 -9.33301 -131.833 -33.666 -169.5 -72.999s-56.5 -87.666 -56.5 -144.999c0 -77.333 26.333 -135.666 79 -174.999s160.334 -81.666 323.001 -126.999l65 -19l60 -18
c76.667 8.66699 136.667 32.5 180 71.5s65 86.5 65 142.5c0 71.333 -28.5 128 -85.5 170s-163.167 85.667 -318.5 131z" />
    <glyph glyph-name="dieresis" unicode="&#xa8;" horiz-adv-x="972" 
d="M795 1299h-173v157h173v-157zM326 1299h-174v157h174v-157z" />
    <glyph glyph-name="copyright" unicode="&#xa9;" horiz-adv-x="1595" 
d="M1098 596l2.00195 -6.00098c2.66699 -100 -23.5 -176.333 -78.5 -229s-131.833 -79 -230.5 -79c-100.667 0 -181.334 35.5 -242.001 106.5s-91 164.5 -91 280.5v119c0 114.667 30.333 207.834 91 279.501s141.334 107.5 242.001 107.5c98.667 0 175.667 -26.333 231 -79
s81.666 -128.667 78.999 -228l-2 -6h-91c0 75.333 -18.5 131.333 -55.5 168s-90.833 55 -161.5 55c-73.333 0 -130.5 -27.833 -171.5 -83.5s-61.5 -126.5 -61.5 -212.5v-120c0 -88 20.5 -159.5 61.5 -214.5s98.167 -82.5 171.5 -82.5c71.333 0 125.166 18 161.499 54
s54.5 92.667 54.5 170h91zM177.002 728.999c0 -186 60.833 -343.167 182.5 -471.5s269.167 -192.5 442.5 -192.5c171.333 0 318 64.167 440 192.5s183 285.5 183 471.5c0 184.667 -60.833 340.834 -182.5 468.501s-268.5 191.5 -440.5 191.5
c-173.333 0 -320.833 -63.833 -442.5 -191.5s-182.5 -283.834 -182.5 -468.501zM92.002 728.999c0 210 69 387 207 531s305.667 216 503 216c196.667 0 364 -72 502 -216s207 -321 207 -531c0 -210.667 -69.167 -388.334 -207.5 -533.001s-305.5 -217 -501.5 -217
c-197.333 0 -365 72.333 -503 217s-207 322.334 -207 533.001z" />
    <glyph glyph-name="ordfeminine" unicode="&#xaa;" horiz-adv-x="875" 
d="M620 706c-6 16.667 -10.834 34.167 -14.501 52.5s-6.16699 36.833 -7.5 55.5c-24.667 -35.333 -57.5 -64.5 -98.5 -87.5s-89.167 -34.5 -144.5 -34.5c-79.333 0 -140.666 20.333 -183.999 61s-65 96.334 -65 167.001c0 70 26.167 124.333 78.5 163s128.5 58 228.5 58h183
v61c0 56.667 -13.833 100.5 -41.5 131.5s-67.834 46.5 -120.501 46.5c-61.333 0 -108.666 -12.5 -141.999 -37.5s-50 -61.167 -50 -108.5l-100 9l-2 6c-3.33301 65.333 22.5 119.666 77.5 162.999s127.167 65 216.5 65c82.667 0 148.5 -23.833 197.5 -71.5
s73.5 -115.834 73.5 -204.501v-314c0 -33.333 2 -64.666 6 -93.999s10.667 -58.333 20 -87h-111zM373.999 787c46.667 0 92 12.833 136 38.5s72.667 54.167 86 85.5v146h-182c-63.333 0 -112.5 -12.833 -147.5 -38.5s-52.5 -57.167 -52.5 -94.5c0 -44 13 -77.833 39 -101.5
s66.333 -35.5 121 -35.5z" />
    <glyph glyph-name="guillemotleft" unicode="&#xab;" horiz-adv-x="919" 
d="M207 520l276 -388h-105l-295 379v19l295 379h105zM516 520l276 -388h-105l-295 379v19l295 379h105z" />
    <glyph glyph-name="logicalnot" unicode="&#xac;" horiz-adv-x="1112" 
d="M932 386h-119v284h-692v106h811v-390z" />
    <glyph glyph-name="uni00AD" unicode="&#xad;" horiz-adv-x="793" 
d="M632 570h-478v101h478v-101z" />
    <glyph glyph-name="registered" unicode="&#xae;" horiz-adv-x="1595" 
d="M92 729c0 210 69 387 207 531s305.667 216 503 216c196.667 0 364 -72 502 -216s207 -321 207 -531c0 -210.667 -69.167 -388.334 -207.5 -533.001s-305.5 -217 -501.5 -217c-197.333 0 -365 72.333 -503 217s-207 322.334 -207 533.001zM177 729
c0 -186 60.833 -343.167 182.5 -471.5s269.167 -192.5 442.5 -192.5c171.333 0 318 64.167 440 192.5s183 285.5 183 471.5c0 184.667 -60.833 340.834 -182.5 468.501s-268.5 191.5 -440.5 191.5c-173.333 0 -320.833 -63.833 -442.5 -191.5
s-182.5 -283.834 -182.5 -468.501zM639 672l-0.000976562 -355.999h-98v850h258c98 0 173.333 -21 226 -63s79 -103.667 79 -185c0 -45.333 -12.167 -84.333 -36.5 -117s-59.166 -59.334 -104.499 -80.001c45.333 -16.667 78 -42.667 98 -78s30 -78 30 -128v-56
c0 -26.667 1.33301 -51 4 -73s7 -40 13 -54v-16h-102c-6 14 -9.66699 34.5 -11 61.5s-2 54.5 -2 82.5v54c0 56 -12.833 96.333 -38.5 121s-68.167 37 -127.5 37h-188zM638.999 763.001l181 -0.000976562c52.667 0 97 13.5 133 40.5s54 64.5 54 112.5
c0 56.667 -15.5 97.334 -46.5 122.001s-84.833 37 -161.5 37h-160v-312z" />
    <glyph glyph-name="macron" unicode="&#xaf;" horiz-adv-x="1005" 
d="M824 1359h-670v97h670v-97z" />
    <glyph glyph-name="macron" unicode="&#x2c9;" horiz-adv-x="1005" 
d="M824 1359h-670v97h670v-97z" />
    <glyph glyph-name="degree" unicode="&#xb0;" horiz-adv-x="747" 
d="M124 1227c0 68 24 126.667 72 176s105.667 74 173 74c65.333 0 121.833 -24.667 169.5 -74s71.5 -108 71.5 -176c0 -69.333 -23.667 -127.833 -71 -175.5s-104 -71.5 -170 -71.5c-68 0 -125.833 23.833 -173.5 71.5s-71.5 106.167 -71.5 175.5zM213 1227
c0 -44.667 15 -81.8301 45 -111.497s67 -44.5 111 -44.5c43.333 0 79.5 14.667 108.5 44s43.5 66.666 43.5 111.999s-14.5 83.166 -43.5 113.499s-65.167 45.5 -108.5 45.5c-44 0 -81 -15.333 -111 -46s-45 -68.334 -45 -113.001z" />
    <glyph glyph-name="plusminus" unicode="&#xb1;" horiz-adv-x="1082" 
d="M600 829h391v-101h-391v-439h-111v439h-414v101h414v438h111v-438zM1017 48h-835v102h835v-102z" />
    <glyph glyph-name="twosuperior" unicode="&#xb2;" horiz-adv-x="816" 
d="M683 667h-569.999v90l315 282c51.333 46.667 86 85 104 115s27 60.667 27 92c0 43.333 -12.833 77.833 -38.5 103.5s-64.834 38.5 -117.501 38.5c-58 0 -102.667 -14 -134 -42s-47 -64 -47 -108h-100l-2 6c-4 64.667 20.167 120 72.5 166s122.5 69 210.5 69
c82.667 0 147.667 -20.167 195 -60.5s71 -98.166 71 -173.499c0 -50 -15.667 -95.333 -47 -136s-81.333 -93.334 -150 -158.001l-215 -188l3 -6h423v-90z" />
    <glyph glyph-name="threesuperior" unicode="&#xb3;" horiz-adv-x="837" 
d="M398 1119c58.667 0 102.002 11.6689 130.002 35.002s42 56.333 42 99c0 39.333 -15 71.5 -45 96.5s-74.333 37.5 -133 37.5c-50 0 -91.333 -11.833 -124 -35.5s-49 -54.834 -49 -93.501h-100l-2 6c-4 62.667 21 114 75 154s120.667 60 200 60
c88.667 0 158.667 -19.5 210 -58.5s77 -94.5 77 -166.5c0 -39.333 -11.833 -74.5 -35.5 -105.5s-56.834 -54.833 -99.501 -71.5c48.667 -14.667 85.667 -38.167 111 -70.5s38 -72.166 38 -119.499c0 -72.667 -27.833 -129.334 -83.5 -170.001s-128.167 -61 -217.5 -61
c-80 0 -148.833 19.5 -206.5 58.5s-84.834 95.167 -81.501 168.5l2 6h101c0 -42 17 -76.333 51 -103s78.667 -40 134 -40c60 0 107 12.667 141 38s51 59.666 51 102.999c0 50 -15.5 86.5 -46.5 109.5s-77.5 34.5 -139.5 34.5h-123v89h123z" />
    <glyph glyph-name="acute" unicode="&#xb4;" horiz-adv-x="574" 
d="M301 1478h147l3 -6l-249 -260h-107z" />
    <glyph glyph-name="mu" unicode="&#xb5;" horiz-adv-x="1297" 
d="M347 1082v-633c0 -138 23.667 -234 71 -288s111.333 -81 192 -81c91.333 0 162 19.833 212 59.5s84.333 96.5 103 170.5v670l-163 13v89h283v-981l163 -13v-88h-266l-11 155c-32 -56.667 -74 -100.167 -126 -130.5s-114.333 -45.5 -187 -45.5c-58.667 0 -111 10 -157 30
s-84 52 -114 96v-521h-118v1396l-163 13v89h163h118z" />
    <glyph glyph-name="paragraph" unicode="&#xb6;" horiz-adv-x="1065" 
d="M513 88l163.001 13.001v419h-106c-156 0 -277 43.167 -363 129.5s-129 199.166 -129 338.499c0 138 43.167 250.5 129.5 337.5s207.166 130.5 362.499 130.5h225v-1355l163 -13v-88h-445v88zM958.001 1456v-89l-163 -13v102h163z" />
    <glyph glyph-name="periodcentered" unicode="&#xb7;" horiz-adv-x="496" 
d="M313 624h-154v180h154v-180z" />
    <glyph glyph-name="cedilla" unicode="&#xb8;" horiz-adv-x="470" 
d="M250 0l-11.001 -64c52.667 -6 95.167 -22.167 127.5 -48.5s48.5 -67.166 48.5 -122.499c0 -60.667 -26.333 -109.167 -79 -145.5s-128 -54.5 -226 -54.5l-7 78c59.333 0 109.5 10.167 150.5 30.5s61.5 50.166 61.5 89.499c0 38 -13.667 64.5 -41 79.5
s-75.666 25.167 -144.999 30.5l28 127h93z" />
    <glyph glyph-name="onesuperior" unicode="&#xb9;" horiz-adv-x="506" 
d="M348 665h-109v703l-148 -7v93l257 23v-812z" />
    <glyph glyph-name="ordmasculine" unicode="&#xba;" horiz-adv-x="921" 
d="M121 1142c0 98.667 29.167 179.167 87.5 241.5s136.5 93.5 234.5 93.5c99.333 0 178.166 -31.167 236.499 -93.5s87.5 -142.833 87.5 -241.5v-117c0 -99.333 -29.167 -179.833 -87.5 -241.5s-136.5 -92.5 -234.5 -92.5c-99.333 0 -178.166 30.833 -236.499 92.5
s-87.5 142.167 -87.5 241.5v117zM229 1025c0 -71.333 18.167 -129 54.5 -173s90.166 -66 161.499 -66c68.667 0 121.5 22.167 158.5 66.5s55.5 101.833 55.5 172.5v117c0 69.333 -18.667 126.333 -56 171s-90.666 67 -159.999 67s-122.333 -22.333 -159 -67
s-55 -101.667 -55 -171v-117z" />
    <glyph glyph-name="guillemotright" unicode="&#xbb;" horiz-adv-x="916" 
d="M210 944l295 -384v-19l-295 -379h-105l276 388l-276 394h105zM525 944l295 -384v-19l-295 -379h-105l276 388l-276 394h105z" />
    <glyph glyph-name="onequarter" unicode="&#xbc;" horiz-adv-x="1492" 
d="M422 664h-109v703l-148 -7v93l257 23v-812zM380 129l-74 48l711 1138l74 -48zM1307 260h153v-90h-153v-170h-108v170h-431l-3 67l428 564h114v-541zM893 260h306v403l-6 1l-26 -44z" />
    <glyph glyph-name="onehalf" unicode="&#xbd;" horiz-adv-x="1462" 
d="M392 129l-74 48l711 1138l74 -48zM422 664h-109v703l-148 -7v93l257 23v-812zM1477 0h-569.999v90l315 282c51.333 46.667 86 85 104 115s27 60.667 27 92c0 43.333 -12.833 77.833 -38.5 103.5s-64.834 38.5 -117.501 38.5c-58 0 -102.667 -14 -134 -42
s-47 -64 -47 -108h-100l-2 6c-4 64.667 20.167 120 72.5 166s122.5 69 210.5 69c82.667 0 147.667 -20.167 195 -60.5s71 -98.166 71 -173.499c0 -50 -15.667 -95.333 -47 -136s-81.333 -93.334 -150 -158.001l-215 -188l3 -6h423v-90z" />
    <glyph glyph-name="threequarters" unicode="&#xbe;" horiz-adv-x="1670" 
d="M587 129l-74 48l711 1138l74 -48zM1516 260h153v-90h-153v-170h-108v170h-431l-3 67l428 564h114v-541zM1102 260h306v403l-6 1l-26 -44zM423 1120c58.667 0 102.002 11.6689 130.002 35.002s42 56.333 42 99c0 39.333 -15 71.5 -45 96.5s-74.333 37.5 -133 37.5
c-50 0 -91.333 -11.833 -124 -35.5s-49 -54.834 -49 -93.501h-100l-2 6c-4 62.667 21 114 75 154s120.667 60 200 60c88.667 0 158.667 -19.5 210 -58.5s77 -94.5 77 -166.5c0 -39.333 -11.833 -74.5 -35.5 -105.5s-56.834 -54.833 -99.501 -71.5
c48.667 -14.667 85.667 -38.167 111 -70.5s38 -72.166 38 -119.499c0 -72.667 -27.833 -129.334 -83.5 -170.001s-128.167 -61 -217.5 -61c-80 0 -148.833 19.5 -206.5 58.5s-84.834 95.167 -81.501 168.5l2 6h101c0 -42 17 -76.333 51 -103s78.667 -40 134 -40
c60 0 107 12.667 141 38s51 59.666 51 102.999c0 50 -15.5 86.5 -46.5 109.5s-77.5 34.5 -139.5 34.5h-123v89h123z" />
    <glyph glyph-name="questiondown" unicode="&#xbf;" horiz-adv-x="862" 
d="M521 678c-1.33301 -87.333 -9.16699 -148.333 -23.5 -183s-52.166 -80 -113.499 -136c-72.667 -75.333 -125.334 -138.166 -158.001 -188.499s-49 -113.5 -49 -189.5c0 -85.333 22.5 -151.333 67.5 -198s109.833 -70 194.5 -70c78 0 141 22.833 189 68.5
s72.667 107.5 74 185.5h112l2 -6c1.33301 -110 -33.667 -196.667 -105 -260s-162 -95 -272 -95c-120 0 -213.5 33.667 -280.5 101s-100.5 158.333 -100.5 273c0 89.333 21.833 168.666 65.5 237.999s106.5 142.333 188.5 219c40.667 34.667 65.667 67.5 75 98.5
s14 78.5 14 142.5h120zM384.999 1083h139v-155h-139v155z" />
    <glyph glyph-name="Agrave" unicode="&#xc0;" horiz-adv-x="1485" 
d="M55 88l107 8l517 1360h113l512 -1360l109 -8v-88h-359v88l127 10l-120 326h-654l-121 -326l127 -10v-88h-358v88zM447 531h575l-283 770h-6zM802 1565h-117l-241 261l2 5h154z" />
    <glyph glyph-name="Aacute" unicode="&#xc1;" horiz-adv-x="1485" 
d="M55 88l107 8l517 1360h113l512 -1360l109 -8v-88h-359v88l127 10l-120 326h-654l-121 -326l127 -10v-88h-358v88zM447 531h575l-283 770h-6zM843 1816h147l3 -6l-249 -260h-107z" />
    <glyph glyph-name="Acircumflex" unicode="&#xc2;" horiz-adv-x="1485" 
d="M55 88l107 8l517 1360h113l512 -1360l109 -8v-88h-359v88l127 10l-120 326h-654l-121 -326l127 -10v-88h-358v88zM447 531h575l-283 770h-6zM1013 1611v-18h-112l-167 168l-166 -168h-109v21l226 221h98z" />
    <glyph glyph-name="Atilde" unicode="&#xc3;" horiz-adv-x="1485" 
d="M55 88l107 8l517 1360h113l512 -1360l109 -8v-88h-359v88l127 10l-120 326h-654l-121 -326l127 -10v-88h-358v88zM447 531h575l-283 770h-6zM1077 1820c0 -58.667 -18.334 -107.333 -55.001 -146s-82.334 -58 -137.001 -58c-49.333 0 -99.666 18.333 -150.999 55
s-95 55 -131 55c-31.333 0 -57.666 -11.667 -78.999 -35s-32 -53 -32 -89l-79 18c0 57.333 17.833 105.5 53.5 144.5s81.167 58.5 136.5 58.5c43.333 0 92.5 -18.333 147.5 -55s99.833 -55 134.5 -55c30.667 0 57 12 79 36s33 54.333 33 91z" />
    <glyph glyph-name="Adieresis" unicode="&#xc4;" horiz-adv-x="1485" 
d="M55 88l107 8l517 1360h113l512 -1360l109 -8v-88h-359v88l127 10l-120 326h-654l-121 -326l127 -10v-88h-358v88zM447 531h575l-283 770h-6zM1049 1639h-173v157h173v-157zM580 1639h-174v157h174v-157z" />
    <glyph glyph-name="Aring" unicode="&#xc5;" horiz-adv-x="1485" 
d="M55 88l107 8l517 1360h113l512 -1360l109 -8v-88h-359v88l127 10l-120 326h-654l-121 -326l127 -10v-88h-358v88zM447 531h575l-283 770h-6zM567 1740c0 46 16.5 85.167 49.5 117.5s72.833 48.5 119.5 48.5c45.333 0 84.333 -16.167 117 -48.5s49 -71.5 49 -117.5
c0 -47.333 -16.167 -86.333 -48.5 -117s-71.5 -46 -117.5 -46c-47.333 0 -87.333 15.333 -120 46s-49 69.667 -49 117zM645 1740c0 -26 8.83301 -47.667 26.5 -65s39.167 -26 64.5 -26c24.667 0 45.334 8.5 62.001 25.5s25 38.833 25 65.5s-8.33301 48.834 -25 66.501
s-37.334 26.5 -62.001 26.5c-25.333 0 -46.833 -8.83301 -64.5 -26.5s-26.5 -39.834 -26.5 -66.501z" />
    <glyph glyph-name="AE" unicode="&#xc6;" horiz-adv-x="2058" 
d="M51 88l130 10l822 1358h864v-307h-107l-9 205h-578l23 -545h589v-102h-585l26 -606h587l9 205h106v-306h-980v88l158 12l-12 289h-597l-172 -293l106 -8v-88h-380v88zM564 502h526l-35 839l-6 1l-15 -44z" />
    <glyph glyph-name="Ccedilla" unicode="&#xc7;" horiz-adv-x="1349" 
d="M1230 1000l-92.998 -0.000976562l-17 221c-38.667 46 -89 83.167 -151 111.5s-133.667 42.5 -215 42.5c-162.667 0 -292 -59.167 -388 -177.5s-144 -271.166 -144 -458.499v-21c0 -187.333 47.5 -340.5 142.5 -459.5s219.833 -178.5 374.5 -178.5
c82 0 156.5 14.333 223.5 43s119.5 65.667 157.5 111l17 221h93v-256c-45.333 -62.667 -111.5 -115 -198.5 -157s-184.5 -63 -292.5 -63c-186.667 0 -339.334 69.167 -458.001 207.5s-178 315.5 -178 531.5v19c0 216.667 59.167 394.167 177.5 532.5
s273.166 207.5 464.499 207.5c108 0 204.5 -21.167 289.5 -63.5s150.167 -94.833 195.5 -157.5v-256zM787.002 -3.00098l-11.001 -64c52.667 -6 95.167 -22.167 127.5 -48.5s48.5 -67.166 48.5 -122.499c0 -60.667 -26.333 -109.167 -79 -145.5s-128 -54.5 -226 -54.5l-7 78
c59.333 0 109.5 10.167 150.5 30.5s61.5 50.166 61.5 89.499c0 38 -13.667 64.5 -41 79.5s-75.666 25.167 -144.999 30.5l28 127h93z" />
    <glyph glyph-name="Egrave" unicode="&#xc8;" horiz-adv-x="1286" 
d="M950 705h-597v-604h688l9 218h106v-319h-1085v88l163 13v1253l-163 13v89h163h917v-320h-106l-9 218h-683v-547h597v-102zM702 1567h-117l-241 261l2 5h154z" />
    <glyph glyph-name="Eacute" unicode="&#xc9;" horiz-adv-x="1286" 
d="M950 705h-597v-604h688l9 218h106v-319h-1085v88l163 13v1253l-163 13v89h163h917v-320h-106l-9 218h-683v-547h597v-102zM743 1818h147l3 -6l-249 -260h-107z" />
    <glyph glyph-name="Ecircumflex" unicode="&#xca;" horiz-adv-x="1286" 
d="M950 705h-597v-604h688l9 218h106v-319h-1085v88l163 13v1253l-163 13v89h163h917v-320h-106l-9 218h-683v-547h597v-102zM913 1613v-18h-112l-167 168l-166 -168h-109v21l226 221h98z" />
    <glyph glyph-name="Edieresis" unicode="&#xcb;" horiz-adv-x="1286" 
d="M950 705h-597v-604h688l9 218h106v-319h-1085v88l163 13v1253l-163 13v89h163h917v-320h-106l-9 218h-683v-547h597v-102zM949 1641h-173v157h173v-157zM480 1641h-174v157h174v-157z" />
    <glyph glyph-name="Igrave" unicode="&#xcc;" horiz-adv-x="627" 
d="M91 1367v89h446v-89l-163 -13v-1253l163 -13v-88h-446v88l163 13v1253zM390 1566h-117l-241 261l2 5h154z" />
    <glyph glyph-name="Iacute" unicode="&#xcd;" horiz-adv-x="627" 
d="M91 1367v89h446v-89l-163 -13v-1253l163 -13v-88h-446v88l163 13v1253zM430 1817h147l3 -6l-249 -260h-107z" />
    <glyph glyph-name="Icircumflex" unicode="&#xce;" horiz-adv-x="627" 
d="M91 1367v89h446v-89l-163 -13v-1253l163 -13v-88h-446v88l163 13v1253zM601 1612v-18h-112l-167 168l-166 -168h-109v21l226 221h98z" />
    <glyph glyph-name="Idieresis" unicode="&#xcf;" horiz-adv-x="627" 
d="M91 1367v89h446v-89l-163 -13v-1253l163 -13v-88h-446v88l163 13v1253zM637 1640h-173v157h173v-157zM168 1640h-174v157h174v-157z" />
    <glyph glyph-name="Eth" unicode="&#xd0;" horiz-adv-x="1431" 
d="M687 1456c178 0 325 -59.333 441 -178s174 -271 174 -457v-187c0 -186.667 -58 -339 -174 -457s-263 -177 -441 -177h-586v88l163 13v588h-161v102h161v563l-163 13v89h586zM715 689h-332.001v-588h304c144 0 262.5 50.333 355.5 151s139.5 228 139.5 382v190
c0 152 -46.667 278.333 -140 379s-211.666 151 -354.999 151h-304v-563h332v-102z" />
    <glyph glyph-name="Ntilde" unicode="&#xd1;" horiz-adv-x="1536" 
d="M1469 1456v-89l-163 -13v-1354h-119l-827 1252l-6 -1v-1150l163 -13v-88h-446v88l163 13v1253l-163 13v89h163h120l827 -1250l6 1v1147l-163 13v89h282h163zM1081 1822c0 -58.667 -18.334 -107.333 -55.001 -146s-82.334 -58 -137.001 -58
c-49.333 0 -99.666 18.333 -150.999 55s-95 55 -131 55c-31.333 0 -57.666 -11.667 -78.999 -35s-32 -53 -32 -89l-79 18c0 57.333 17.833 105.5 53.5 144.5s81.167 58.5 136.5 58.5c43.333 0 92.5 -18.333 147.5 -55s99.833 -55 134.5 -55c30.667 0 57 12 79 36
s33 54.333 33 91z" />
    <glyph glyph-name="Ograve" unicode="&#xd2;" horiz-adv-x="1468" 
d="M1357 718c0 -218.667 -58.332 -396.5 -174.999 -533.5s-268.334 -205.5 -455.001 -205.5c-184 0 -333.5 68.667 -448.5 206s-172.5 315 -172.5 533v19c0 218 57.333 395.833 172 533.5s264 206.5 448 206.5c186.667 0 338.5 -68.833 455.5 -206.5
s175.5 -315.5 175.5 -533.5v-19zM1237 739c0 188.667 -46 341.334 -138 458.001s-216.333 175 -373 175c-154 0 -275.833 -58.333 -365.5 -175s-134.5 -269.334 -134.5 -458.001v-21c0 -190 45 -343.333 135 -460s212 -175 366 -175c158 0 282.5 58.167 373.5 174.5
s136.5 269.833 136.5 460.5v21zM797.001 1577h-117l-241 261l2 5h154z" />
    <glyph glyph-name="Oacute" unicode="&#xd3;" horiz-adv-x="1468" 
d="M1357 718c0 -218.667 -58.332 -396.5 -174.999 -533.5s-268.334 -205.5 -455.001 -205.5c-184 0 -333.5 68.667 -448.5 206s-172.5 315 -172.5 533v19c0 218 57.333 395.833 172 533.5s264 206.5 448 206.5c186.667 0 338.5 -68.833 455.5 -206.5
s175.5 -315.5 175.5 -533.5v-19zM1237 739c0 188.667 -46 341.334 -138 458.001s-216.333 175 -373 175c-154 0 -275.833 -58.333 -365.5 -175s-134.5 -269.334 -134.5 -458.001v-21c0 -190 45 -343.333 135 -460s212 -175 366 -175c158 0 282.5 58.167 373.5 174.5
s136.5 269.833 136.5 460.5v21zM838.001 1828h147l3 -6l-249 -260h-107z" />
    <glyph glyph-name="Ocircumflex" unicode="&#xd4;" horiz-adv-x="1468" 
d="M1357 718c0 -218.667 -58.332 -396.5 -174.999 -533.5s-268.334 -205.5 -455.001 -205.5c-184 0 -333.5 68.667 -448.5 206s-172.5 315 -172.5 533v19c0 218 57.333 395.833 172 533.5s264 206.5 448 206.5c186.667 0 338.5 -68.833 455.5 -206.5
s175.5 -315.5 175.5 -533.5v-19zM1237 739c0 188.667 -46 341.334 -138 458.001s-216.333 175 -373 175c-154 0 -275.833 -58.333 -365.5 -175s-134.5 -269.334 -134.5 -458.001v-21c0 -190 45 -343.333 135 -460s212 -175 366 -175c158 0 282.5 58.167 373.5 174.5
s136.5 269.833 136.5 460.5v21zM1008 1623v-18h-112l-167 168l-166 -168h-109v21l226 221h98z" />
    <glyph glyph-name="Otilde" unicode="&#xd5;" horiz-adv-x="1468" 
d="M1357 718c0 -218.667 -58.332 -396.5 -174.999 -533.5s-268.334 -205.5 -455.001 -205.5c-184 0 -333.5 68.667 -448.5 206s-172.5 315 -172.5 533v19c0 218 57.333 395.833 172 533.5s264 206.5 448 206.5c186.667 0 338.5 -68.833 455.5 -206.5
s175.5 -315.5 175.5 -533.5v-19zM1237 739c0 188.667 -46 341.334 -138 458.001s-216.333 175 -373 175c-154 0 -275.833 -58.333 -365.5 -175s-134.5 -269.334 -134.5 -458.001v-21c0 -190 45 -343.333 135 -460s212 -175 366 -175c158 0 282.5 58.167 373.5 174.5
s136.5 269.833 136.5 460.5v21zM1072 1832c0 -58.667 -18.334 -107.333 -55.001 -146s-82.334 -58 -137.001 -58c-49.333 0 -99.666 18.333 -150.999 55s-95 55 -131 55c-31.333 0 -57.666 -11.667 -78.999 -35s-32 -53 -32 -89l-79 18c0 57.333 17.833 105.5 53.5 144.5
s81.167 58.5 136.5 58.5c43.333 0 92.5 -18.333 147.5 -55s99.833 -55 134.5 -55c30.667 0 57 12 79 36s33 54.333 33 91z" />
    <glyph glyph-name="Odieresis" unicode="&#xd6;" horiz-adv-x="1468" 
d="M1357 718c0 -218.667 -58.332 -396.5 -174.999 -533.5s-268.334 -205.5 -455.001 -205.5c-184 0 -333.5 68.667 -448.5 206s-172.5 315 -172.5 533v19c0 218 57.333 395.833 172 533.5s264 206.5 448 206.5c186.667 0 338.5 -68.833 455.5 -206.5
s175.5 -315.5 175.5 -533.5v-19zM1237 739c0 188.667 -46 341.334 -138 458.001s-216.333 175 -373 175c-154 0 -275.833 -58.333 -365.5 -175s-134.5 -269.334 -134.5 -458.001v-21c0 -190 45 -343.333 135 -460s212 -175 366 -175c158 0 282.5 58.167 373.5 174.5
s136.5 269.833 136.5 460.5v21zM1044 1651h-173v157h173v-157zM575.001 1651h-174v157h174v-157z" />
    <glyph glyph-name="multiply" unicode="&#xd7;" horiz-adv-x="1056" 
d="M79 318l357 365l-343 350l79 80l343 -350l343 350l79 -80l-344 -350l359 -365l-79 -79l-358 364l-357 -364z" />
    <glyph glyph-name="Oslash" unicode="&#xd8;" horiz-adv-x="1408" 
d="M1351 718c0 -218.667 -58.332 -396.499 -174.999 -533.499s-268.334 -205.5 -455.001 -205.5c-65.333 0 -127 9.16699 -185 27.5s-110.667 45.166 -158 80.499l-105 -171h-104l141 229c-67.333 66 -119.166 148.167 -155.499 246.5s-54.5 207.166 -54.5 326.499v19
c0 218 57.333 395.833 172 533.5s264 206.5 448 206.5c64 0 125.167 -9 183.5 -27s112.166 -44 161.499 -78l82 133h104l-117 -191c68.667 -66.667 122 -149.667 160 -249s57 -208.666 57 -327.999v-19zM1231 739.001c0 98.667 -13.5 188.833 -40.5 270.5
s-64.833 149.167 -113.5 202.5l-6 1l-637 -1035c39.333 -31.333 83 -55 131 -71s100 -24 156 -24c158 0 282.5 58.167 373.5 174.5s136.5 269.833 136.5 460.5v21zM220.001 718c0 -98.667 12.667 -188.499 38 -269.499s61.666 -147.833 108.999 -200.5l6 -1l635 1033
c-40 29.333 -84.167 52 -132.5 68s-100.166 24 -155.499 24c-154 0 -275.833 -58.333 -365.5 -175s-134.5 -269.334 -134.5 -458.001v-21z" />
    <glyph glyph-name="Ugrave" unicode="&#xd9;" horiz-adv-x="1487" 
d="M505 1456l-0.000976562 -89l-163 -13v-885c0 -124 36.667 -219.833 110 -287.5s169 -101.5 287 -101.5c120 0 217.667 33.667 293 101s113 163.333 113 288v885l-163 13v89h445v-89l-163 -13v-885c0 -158.667 -48.5 -280 -145.5 -364s-223.5 -126 -379.5 -126
c-153.333 0 -277.666 42.167 -372.999 126.5s-143 205.5 -143 363.5v885l-163 13v89h163h119h163zM806.999 1560h-117l-241 261l2 5h154z" />
    <glyph glyph-name="Uacute" unicode="&#xda;" horiz-adv-x="1487" 
d="M505 1456l-0.000976562 -89l-163 -13v-885c0 -124 36.667 -219.833 110 -287.5s169 -101.5 287 -101.5c120 0 217.667 33.667 293 101s113 163.333 113 288v885l-163 13v89h445v-89l-163 -13v-885c0 -158.667 -48.5 -280 -145.5 -364s-223.5 -126 -379.5 -126
c-153.333 0 -277.666 42.167 -372.999 126.5s-143 205.5 -143 363.5v885l-163 13v89h163h119h163zM847.999 1811h147l3 -6l-249 -260h-107z" />
    <glyph glyph-name="Ucircumflex" unicode="&#xdb;" horiz-adv-x="1487" 
d="M505 1456l-0.000976562 -89l-163 -13v-885c0 -124 36.667 -219.833 110 -287.5s169 -101.5 287 -101.5c120 0 217.667 33.667 293 101s113 163.333 113 288v885l-163 13v89h445v-89l-163 -13v-885c0 -158.667 -48.5 -280 -145.5 -364s-223.5 -126 -379.5 -126
c-153.333 0 -277.666 42.167 -372.999 126.5s-143 205.5 -143 363.5v885l-163 13v89h163h119h163zM1018 1606v-18h-112l-167 168l-166 -168h-109v21l226 221h98z" />
    <glyph glyph-name="Udieresis" unicode="&#xdc;" horiz-adv-x="1487" 
d="M505 1456l-0.000976562 -89l-163 -13v-885c0 -124 36.667 -219.833 110 -287.5s169 -101.5 287 -101.5c120 0 217.667 33.667 293 101s113 163.333 113 288v885l-163 13v89h445v-89l-163 -13v-885c0 -158.667 -48.5 -280 -145.5 -364s-223.5 -126 -379.5 -126
c-153.333 0 -277.666 42.167 -372.999 126.5s-143 205.5 -143 363.5v885l-163 13v89h163h119h163zM1054 1634h-173v157h173v-157zM584.999 1634h-174v157h174v-157z" />
    <glyph glyph-name="Yacute" unicode="&#xdd;" horiz-adv-x="1423" 
d="M455 1367l-140 -10l394 -710l396 710l-140 10v89h401v-89l-124 -10l-474 -825v-431l163 -13v-88h-446v88l163 13v438l-470 818l-123 10v89h400v-89zM822 1811h147l3 -6l-249 -260h-107z" />
    <glyph glyph-name="Thorn" unicode="&#xde;" horiz-adv-x="1257" 
d="M70 1367v89h282h163v-89l-163 -13v-202h324c147.333 0 262.333 -38.333 345 -115s124 -176.334 124 -299.001c0 -123.333 -41.167 -223.166 -123.5 -299.499s-197.5 -114.5 -345.5 -114.5h-324v-223l163 -13v-88h-445v88l163 13v1253zM352 1051v-626.001h324
c115.333 0 202.5 30.667 261.5 92s88.5 134.333 88.5 219c0 86.667 -29.333 160.834 -88 222.501s-146 92.5 -262 92.5h-324z" />
    <glyph glyph-name="germandbls" unicode="&#xdf;" horiz-adv-x="1263" 
d="M337 0l-282 0.00195312v88l163 13v981c0 136 34 241.667 102 317s159 113 273 113c93.333 0 170.666 -26.5 231.999 -79.5s92 -127.167 92 -222.5c0 -72.667 -20.5 -144.5 -61.5 -215.5s-61.5 -132.5 -61.5 -184.5c0 -57.333 61.333 -133.333 184 -228
s184 -190.334 184 -287.001c0 -102 -36.5 -180.167 -109.5 -234.5s-161.833 -81.5 -266.5 -81.5c-57.333 0 -116.166 7.83301 -176.499 23.5s-103.5 34.5 -129.5 56.5l34 101c26.667 -20.667 64.834 -39.167 114.501 -55.5s97.5 -24.5 143.5 -24.5
c83.333 0 149.166 20 197.499 60s72.5 91.667 72.5 155c0 66 -61.333 146.167 -184 240.5s-184 186.5 -184 276.5c0 62 21 129.167 63 201.5s63 135.833 63 190.5c0 61.333 -19.833 111.166 -59.5 149.499s-85.5 57.5 -137.5 57.5c-80.667 0 -145.167 -28.5 -193.5 -85.5
s-72.5 -138.167 -72.5 -243.5v-1082z" />
    <glyph glyph-name="agrave" unicode="&#xe0;" 
d="M844 0c-8 36.667 -13.668 68.332 -17.001 94.999s-5 53.667 -5 81c-40 -56.667 -93.333 -103.667 -160 -141s-141.667 -56 -225 -56c-106 0 -188 27.333 -246 82s-87 128.667 -87 222c0 100 43 179.333 129 238s202.667 88 350 88h239v143
c0 77.333 -24.833 138 -74.5 182s-119.167 66 -208.5 66c-60 0 -114.833 -8.16699 -164.5 -24.5s-91.167 -38.5 -124.5 -66.5l-10 -145h-99l1 208c50 38.667 109.833 70 179.5 94s143.834 36 222.501 36c119.333 0 215.333 -30.333 288 -91s109 -147.667 109 -261v-532
c0 -22 0.5 -43.167 1.5 -63.5s3.16699 -40.166 6.5 -59.499l108 -7v-88h-213zM449.999 84.998c86.667 0 163 20 229 60s113.667 91.667 143 155v217h-241c-108.667 0 -195.5 -22.5 -260.5 -67.5s-97.5 -101.833 -97.5 -170.5c0 -58 20.167 -104.833 60.5 -140.5
s95.833 -53.5 166.5 -53.5zM611.999 1244h-117l-241 261l2 5h154z" />
    <glyph glyph-name="aacute" unicode="&#xe1;" 
d="M844 0c-8 36.667 -13.668 68.332 -17.001 94.999s-5 53.667 -5 81c-40 -56.667 -93.333 -103.667 -160 -141s-141.667 -56 -225 -56c-106 0 -188 27.333 -246 82s-87 128.667 -87 222c0 100 43 179.333 129 238s202.667 88 350 88h239v143
c0 77.333 -24.833 138 -74.5 182s-119.167 66 -208.5 66c-60 0 -114.833 -8.16699 -164.5 -24.5s-91.167 -38.5 -124.5 -66.5l-10 -145h-99l1 208c50 38.667 109.833 70 179.5 94s143.834 36 222.501 36c119.333 0 215.333 -30.333 288 -91s109 -147.667 109 -261v-532
c0 -22 0.5 -43.167 1.5 -63.5s3.16699 -40.166 6.5 -59.499l108 -7v-88h-213zM449.999 84.998c86.667 0 163 20 229 60s113.667 91.667 143 155v217h-241c-108.667 0 -195.5 -22.5 -260.5 -67.5s-97.5 -101.833 -97.5 -170.5c0 -58 20.167 -104.833 60.5 -140.5
s95.833 -53.5 166.5 -53.5zM652.999 1495h147l3 -6l-249 -260h-107z" />
    <glyph glyph-name="acircumflex" unicode="&#xe2;" 
d="M844 0c-8 36.667 -13.668 68.332 -17.001 94.999s-5 53.667 -5 81c-40 -56.667 -93.333 -103.667 -160 -141s-141.667 -56 -225 -56c-106 0 -188 27.333 -246 82s-87 128.667 -87 222c0 100 43 179.333 129 238s202.667 88 350 88h239v143
c0 77.333 -24.833 138 -74.5 182s-119.167 66 -208.5 66c-60 0 -114.833 -8.16699 -164.5 -24.5s-91.167 -38.5 -124.5 -66.5l-10 -145h-99l1 208c50 38.667 109.833 70 179.5 94s143.834 36 222.501 36c119.333 0 215.333 -30.333 288 -91s109 -147.667 109 -261v-532
c0 -22 0.5 -43.167 1.5 -63.5s3.16699 -40.166 6.5 -59.499l108 -7v-88h-213zM449.999 84.998c86.667 0 163 20 229 60s113.667 91.667 143 155v217h-241c-108.667 0 -195.5 -22.5 -260.5 -67.5s-97.5 -101.833 -97.5 -170.5c0 -58 20.167 -104.833 60.5 -140.5
s95.833 -53.5 166.5 -53.5zM822.999 1290v-18h-112l-167 168l-166 -168h-109v21l226 221h98z" />
    <glyph glyph-name="atilde" unicode="&#xe3;" 
d="M844 0c-8 36.667 -13.668 68.332 -17.001 94.999s-5 53.667 -5 81c-40 -56.667 -93.333 -103.667 -160 -141s-141.667 -56 -225 -56c-106 0 -188 27.333 -246 82s-87 128.667 -87 222c0 100 43 179.333 129 238s202.667 88 350 88h239v143
c0 77.333 -24.833 138 -74.5 182s-119.167 66 -208.5 66c-60 0 -114.833 -8.16699 -164.5 -24.5s-91.167 -38.5 -124.5 -66.5l-10 -145h-99l1 208c50 38.667 109.833 70 179.5 94s143.834 36 222.501 36c119.333 0 215.333 -30.333 288 -91s109 -147.667 109 -261v-532
c0 -22 0.5 -43.167 1.5 -63.5s3.16699 -40.166 6.5 -59.499l108 -7v-88h-213zM449.999 84.998c86.667 0 163 20 229 60s113.667 91.667 143 155v217h-241c-108.667 0 -195.5 -22.5 -260.5 -67.5s-97.5 -101.833 -97.5 -170.5c0 -58 20.167 -104.833 60.5 -140.5
s95.833 -53.5 166.5 -53.5zM886.999 1499c0 -58.667 -18.334 -107.333 -55.001 -146s-82.334 -58 -137.001 -58c-49.333 0 -99.666 18.333 -150.999 55s-95 55 -131 55c-31.333 0 -57.666 -11.667 -78.999 -35s-32 -53 -32 -89l-79 18c0 57.333 17.833 105.5 53.5 144.5
s81.167 58.5 136.5 58.5c43.333 0 92.5 -18.333 147.5 -55s99.833 -55 134.5 -55c30.667 0 57 12 79 36s33 54.333 33 91z" />
    <glyph glyph-name="adieresis" unicode="&#xe4;" 
d="M844 0c-8 36.667 -13.668 68.332 -17.001 94.999s-5 53.667 -5 81c-40 -56.667 -93.333 -103.667 -160 -141s-141.667 -56 -225 -56c-106 0 -188 27.333 -246 82s-87 128.667 -87 222c0 100 43 179.333 129 238s202.667 88 350 88h239v143
c0 77.333 -24.833 138 -74.5 182s-119.167 66 -208.5 66c-60 0 -114.833 -8.16699 -164.5 -24.5s-91.167 -38.5 -124.5 -66.5l-10 -145h-99l1 208c50 38.667 109.833 70 179.5 94s143.834 36 222.501 36c119.333 0 215.333 -30.333 288 -91s109 -147.667 109 -261v-532
c0 -22 0.5 -43.167 1.5 -63.5s3.16699 -40.166 6.5 -59.499l108 -7v-88h-213zM449.999 84.998c86.667 0 163 20 229 60s113.667 91.667 143 155v217h-241c-108.667 0 -195.5 -22.5 -260.5 -67.5s-97.5 -101.833 -97.5 -170.5c0 -58 20.167 -104.833 60.5 -140.5
s95.833 -53.5 166.5 -53.5zM858.999 1318h-173v157h173v-157zM389.999 1318h-174v157h174v-157z" />
    <glyph glyph-name="aring" unicode="&#xe5;" 
d="M844 0c-8 36.667 -13.668 68.332 -17.001 94.999s-5 53.667 -5 81c-40 -56.667 -93.333 -103.667 -160 -141s-141.667 -56 -225 -56c-106 0 -188 27.333 -246 82s-87 128.667 -87 222c0 100 43 179.333 129 238s202.667 88 350 88h239v143
c0 77.333 -24.833 138 -74.5 182s-119.167 66 -208.5 66c-60 0 -114.833 -8.16699 -164.5 -24.5s-91.167 -38.5 -124.5 -66.5l-10 -145h-99l1 208c50 38.667 109.833 70 179.5 94s143.834 36 222.501 36c119.333 0 215.333 -30.333 288 -91s109 -147.667 109 -261v-532
c0 -22 0.5 -43.167 1.5 -63.5s3.16699 -40.166 6.5 -59.499l108 -7v-88h-213zM449.999 84.998c86.667 0 163 20 229 60s113.667 91.667 143 155v217h-241c-108.667 0 -195.5 -22.5 -260.5 -67.5s-97.5 -101.833 -97.5 -170.5c0 -58 20.167 -104.833 60.5 -140.5
s95.833 -53.5 166.5 -53.5zM376.999 1419c0 46 16.5 85.167 49.5 117.5s72.833 48.5 119.5 48.5c45.333 0 84.333 -16.167 117 -48.5s49 -71.5 49 -117.5c0 -47.333 -16.167 -86.333 -48.5 -117s-71.5 -46 -117.5 -46c-47.333 0 -87.333 15.333 -120 46s-49 69.667 -49 117z
M454.999 1419c0 -26 8.83301 -47.667 26.5 -65s39.167 -26 64.5 -26c24.667 0 45.334 8.5 62.001 25.5s25 38.833 25 65.5s-8.33301 48.834 -25 66.501s-37.334 26.5 -62.001 26.5c-25.333 0 -46.833 -8.83301 -64.5 -26.5s-26.5 -39.834 -26.5 -66.501z" />
    <glyph glyph-name="ae" unicode="&#xe6;" horiz-adv-x="1786" 
d="M1285 -21c-92 0 -172.33 18.5 -240.997 55.5s-123 89.5 -163 157.5c-32.667 -58 -85.834 -108 -159.501 -150s-163.5 -63 -269.5 -63c-113.333 0 -200.833 28.167 -262.5 84.5s-92.5 132.833 -92.5 229.5c0 105.333 37.667 188.166 113 248.499
s183.666 90.5 324.999 90.5h263v88c0 89.333 -21.167 158.333 -63.5 207s-104.833 73 -187.5 73c-90 0 -161 -22.333 -213 -67s-78 -100.667 -78 -168l-110 12l-2 6c-3.33301 92 32 168.167 106 228.5s173 90.5 297 90.5c83.333 0 154.333 -18 213 -54
s101.667 -88.333 129 -157c40.667 66 92.667 117.667 156 155s133.333 56 210 56c133.333 0 237.166 -41.333 311.499 -124s111.5 -196 111.5 -340v-100h-755v-29c0 -127.333 30 -230.666 90 -309.999s150.667 -119 272 -119c68.667 0 129 10.833 181 32.5
s99.333 50.5 142 86.5l48 -87c-40 -36.667 -89.5 -68 -148.5 -94s-133.167 -39 -222.5 -39zM469.003 79c68 0 133.833 17.834 197.5 53.501s107.5 74.167 131.5 115.5v288h-261c-103.333 0 -182.5 -23.667 -237.5 -71s-82.5 -106 -82.5 -176
c0 -64.667 21.5 -115.834 64.5 -153.501s105.5 -56.5 187.5 -56.5zM1255 1000c-92 0 -166.833 -33.832 -224.5 -101.499s-90.834 -153.5 -99.501 -257.5l2 -5h625v31c0 97.333 -25.667 177.166 -77 239.499s-126.666 93.5 -225.999 93.5z" />
    <glyph glyph-name="ccedilla" unicode="&#xe7;" horiz-adv-x="1094" 
d="M559 80c79.333 0 149.338 22.668 210.005 68.001s91 108.333 91 189h106l2 -6c3.33301 -100 -36.5 -183.667 -119.5 -251s-179.5 -101 -289.5 -101c-146.667 0 -260.334 50.5 -341.001 151.5s-121 230.833 -121 389.5v42c0 157.333 40.333 286.666 121 387.999
s194 152 340 152c83.333 0 159.666 -15.667 228.999 -47s125.666 -74 168.999 -128l5 -236h-102l-19 192c-32 36 -71.833 64.5 -119.5 85.5s-101.834 31.5 -162.501 31.5c-116 0 -201.833 -41.5 -257.5 -124.5s-83.5 -187.5 -83.5 -313.5v-42
c0 -128 27.667 -233.333 83 -316s141.666 -124 258.999 -124zM590.005 -8.99902l-11.001 -64c52.667 -6 95.167 -22.167 127.5 -48.5s48.5 -67.166 48.5 -122.499c0 -60.667 -26.333 -109.167 -79 -145.5s-128 -54.5 -226 -54.5l-7 78c59.333 0 109.5 10.167 150.5 30.5
s61.5 50.166 61.5 89.499c0 38 -13.667 64.5 -41 79.5s-75.666 25.167 -144.999 30.5l28 127h93z" />
    <glyph glyph-name="egrave" unicode="&#xe8;" horiz-adv-x="1102" 
d="M574 -21c-136 0 -248.667 49.8311 -338 149.498s-134 226.5 -134 380.5v55c0 154.667 44.5 283 133.5 385s196.5 153 322.5 153c132.667 0 237 -42 313 -126s114 -196 114 -336v-102h-764v-29c0 -121.333 32.5 -223.166 97.5 -305.499s150.167 -123.5 255.5 -123.5
c74 0 137.333 10.333 190 31s97.667 50.334 135 89.001l51 -82c-40.667 -42.667 -92 -76.5 -154 -101.5s-136 -37.5 -222 -37.5zM558 999.998c-88 0 -162.167 -33.833 -222.5 -101.5s-95.5 -152.5 -105.5 -254.5l2 -5h634v30c0 94 -27.667 172.667 -83 236
s-130.333 95 -225 95zM630 1244h-117l-241 261l2 5h154z" />
    <glyph glyph-name="eacute" unicode="&#xe9;" horiz-adv-x="1102" 
d="M574 -21c-136 0 -248.667 49.8311 -338 149.498s-134 226.5 -134 380.5v55c0 154.667 44.5 283 133.5 385s196.5 153 322.5 153c132.667 0 237 -42 313 -126s114 -196 114 -336v-102h-764v-29c0 -121.333 32.5 -223.166 97.5 -305.499s150.167 -123.5 255.5 -123.5
c74 0 137.333 10.333 190 31s97.667 50.334 135 89.001l51 -82c-40.667 -42.667 -92 -76.5 -154 -101.5s-136 -37.5 -222 -37.5zM558 999.998c-88 0 -162.167 -33.833 -222.5 -101.5s-95.5 -152.5 -105.5 -254.5l2 -5h634v30c0 94 -27.667 172.667 -83 236
s-130.333 95 -225 95zM671 1495h147l3 -6l-249 -260h-107z" />
    <glyph glyph-name="ecircumflex" unicode="&#xea;" horiz-adv-x="1102" 
d="M574 -21c-136 0 -248.667 49.8311 -338 149.498s-134 226.5 -134 380.5v55c0 154.667 44.5 283 133.5 385s196.5 153 322.5 153c132.667 0 237 -42 313 -126s114 -196 114 -336v-102h-764v-29c0 -121.333 32.5 -223.166 97.5 -305.499s150.167 -123.5 255.5 -123.5
c74 0 137.333 10.333 190 31s97.667 50.334 135 89.001l51 -82c-40.667 -42.667 -92 -76.5 -154 -101.5s-136 -37.5 -222 -37.5zM558 999.998c-88 0 -162.167 -33.833 -222.5 -101.5s-95.5 -152.5 -105.5 -254.5l2 -5h634v30c0 94 -27.667 172.667 -83 236
s-130.333 95 -225 95zM841 1290v-18h-112l-167 168l-166 -168h-109v21l226 221h98z" />
    <glyph glyph-name="edieresis" unicode="&#xeb;" horiz-adv-x="1102" 
d="M574 -21c-136 0 -248.667 49.8311 -338 149.498s-134 226.5 -134 380.5v55c0 154.667 44.5 283 133.5 385s196.5 153 322.5 153c132.667 0 237 -42 313 -126s114 -196 114 -336v-102h-764v-29c0 -121.333 32.5 -223.166 97.5 -305.499s150.167 -123.5 255.5 -123.5
c74 0 137.333 10.333 190 31s97.667 50.334 135 89.001l51 -82c-40.667 -42.667 -92 -76.5 -154 -101.5s-136 -37.5 -222 -37.5zM558 999.998c-88 0 -162.167 -33.833 -222.5 -101.5s-95.5 -152.5 -105.5 -254.5l2 -5h634v30c0 94 -27.667 172.667 -83 236
s-130.333 95 -225 95zM877 1318h-173v157h173v-157zM408 1318h-174v157h174v-157z" />
    <glyph glyph-name="igrave" unicode="&#xec;" horiz-adv-x="637" 
d="M90 993v89h282v-981l163 -13v-88h-445v88l163 13v879zM382 1232h-117l-241 261l2 5h154z" />
    <glyph glyph-name="iacute" unicode="&#xed;" horiz-adv-x="637" 
d="M90 993v89h282v-981l163 -13v-88h-445v88l163 13v879zM422 1483h147l3 -6l-249 -260h-107z" />
    <glyph glyph-name="icircumflex" unicode="&#xee;" horiz-adv-x="637" 
d="M90 993v89h282v-981l163 -13v-88h-445v88l163 13v879zM593 1278v-18h-112l-167 168l-166 -168h-109v21l226 221h98z" />
    <glyph glyph-name="idieresis" unicode="&#xef;" horiz-adv-x="637" 
d="M90 993v89h282v-981l163 -13v-88h-445v88l163 13v879zM629 1306h-173v157h173v-157zM160 1306h-174v157h174v-157z" />
    <glyph glyph-name="eth" unicode="&#xf0;" horiz-adv-x="1179" 
d="M807 1299c74 -80.667 130.166 -177.169 168.499 -289.502s57.5 -241.166 57.5 -386.499v-88c0 -163.333 -45.667 -296.833 -137 -400.5s-206 -155.5 -344 -155.5s-251.5 45.667 -340.5 137s-133.5 204.333 -133.5 339c0 156.667 43.333 280.834 130 372.501
s202.334 137.5 347.001 137.5c69.333 0 133.833 -13.333 193.5 -40s107.5 -62.334 143.5 -107.001l4 5c-12 87.333 -34.667 165.333 -68 234s-75.333 129.334 -126 182.001l-308 -176l-51 74l288 164c-30 22 -61.5 42.333 -94.5 61s-67.5 35.667 -103.5 51l38 104
c51.333 -20 99.333 -42.833 144 -68.5s86 -54.167 124 -85.5l258 148l51 -74zM913.999 624.998c0 6 -0.166992 15 -0.5 27s-0.5 21 -0.5 27c-24.667 51.333 -67.167 94.5 -127.5 129.5s-137.166 52.5 -230.499 52.5c-114.667 0 -202.834 -38.333 -264.501 -115
s-92.5 -173.667 -92.5 -291c0 -99.333 32.333 -186.333 97 -261s151.667 -112 261 -112c106 0 192.167 42.5 258.5 127.5s99.5 193.5 99.5 325.5v90z" />
    <glyph glyph-name="ntilde" unicode="&#xf1;" horiz-adv-x="1319" 
d="M75 88l163 12.999v879l-163 13v89h269l11 -189c34.667 66.667 81.5 118.167 140.5 154.5s128.833 54.5 209.5 54.5c117.333 0 206.666 -35.833 267.999 -107.5s92 -183.5 92 -335.5v-558l163 -13v-88h-446v88l163 13v557c0 124 -23.167 211.667 -69.5 263
s-112.166 77 -197.499 77c-84 0 -152.5 -22.167 -205.5 -66.5s-91.167 -103.166 -114.5 -176.499v-654l163 -13v-88h-446v88zM995 1498c0 -58.667 -18.334 -107.333 -55.001 -146s-82.334 -58 -137.001 -58c-49.333 0 -99.666 18.333 -150.999 55s-95 55 -131 55
c-31.333 0 -57.666 -11.667 -78.999 -35s-32 -53 -32 -89l-79 18c0 57.333 17.833 105.5 53.5 144.5s81.167 58.5 136.5 58.5c43.333 0 92.5 -18.333 147.5 -55s99.833 -55 134.5 -55c30.667 0 57 12 79 36s33 54.333 33 91z" />
    <glyph glyph-name="ograve" unicode="&#xf2;" horiz-adv-x="1152" 
d="M97 557c0 159.333 43.666 290 130.999 392s203 153 347 153c144.667 0 260.667 -51 348 -153s131 -232.667 131 -392v-33c0 -160 -43.5 -290.833 -130.5 -392.5s-202.5 -152.5 -346.5 -152.5c-145.333 0 -261.666 50.833 -348.999 152.5s-131 232.5 -131 392.5v33z
M216.999 524c0 -125.333 31.6689 -230.666 95.002 -315.999s151.666 -128 264.999 -128c111.333 0 198.666 42.667 261.999 128s95 190.666 95 315.999v33c0 123.333 -31.833 228 -95.5 314s-151.5 129 -263.5 129s-199.667 -43 -263 -129s-95 -190.667 -95 -314v-33z
M646.001 1243h-117l-241 261l2 5h154z" />
    <glyph glyph-name="oacute" unicode="&#xf3;" horiz-adv-x="1152" 
d="M97 557c0 159.333 43.666 290 130.999 392s203 153 347 153c144.667 0 260.667 -51 348 -153s131 -232.667 131 -392v-33c0 -160 -43.5 -290.833 -130.5 -392.5s-202.5 -152.5 -346.5 -152.5c-145.333 0 -261.666 50.833 -348.999 152.5s-131 232.5 -131 392.5v33z
M216.999 524c0 -125.333 31.6689 -230.666 95.002 -315.999s151.666 -128 264.999 -128c111.333 0 198.666 42.667 261.999 128s95 190.666 95 315.999v33c0 123.333 -31.833 228 -95.5 314s-151.5 129 -263.5 129s-199.667 -43 -263 -129s-95 -190.667 -95 -314v-33z
M687.001 1494h147l3 -6l-249 -260h-107z" />
    <glyph glyph-name="ocircumflex" unicode="&#xf4;" horiz-adv-x="1152" 
d="M97 557c0 159.333 43.666 290 130.999 392s203 153 347 153c144.667 0 260.667 -51 348 -153s131 -232.667 131 -392v-33c0 -160 -43.5 -290.833 -130.5 -392.5s-202.5 -152.5 -346.5 -152.5c-145.333 0 -261.666 50.833 -348.999 152.5s-131 232.5 -131 392.5v33z
M216.999 524c0 -125.333 31.6689 -230.666 95.002 -315.999s151.666 -128 264.999 -128c111.333 0 198.666 42.667 261.999 128s95 190.666 95 315.999v33c0 123.333 -31.833 228 -95.5 314s-151.5 129 -263.5 129s-199.667 -43 -263 -129s-95 -190.667 -95 -314v-33z
M857.001 1289v-18h-112l-167 168l-166 -168h-109v21l226 221h98z" />
    <glyph glyph-name="otilde" unicode="&#xf5;" horiz-adv-x="1152" 
d="M97 557c0 159.333 43.666 290 130.999 392s203 153 347 153c144.667 0 260.667 -51 348 -153s131 -232.667 131 -392v-33c0 -160 -43.5 -290.833 -130.5 -392.5s-202.5 -152.5 -346.5 -152.5c-145.333 0 -261.666 50.833 -348.999 152.5s-131 232.5 -131 392.5v33z
M216.999 524c0 -125.333 31.6689 -230.666 95.002 -315.999s151.666 -128 264.999 -128c111.333 0 198.666 42.667 261.999 128s95 190.666 95 315.999v33c0 123.333 -31.833 228 -95.5 314s-151.5 129 -263.5 129s-199.667 -43 -263 -129s-95 -190.667 -95 -314v-33z
M921.001 1498c0 -58.667 -18.334 -107.333 -55.001 -146s-82.334 -58 -137.001 -58c-49.333 0 -99.666 18.333 -150.999 55s-95 55 -131 55c-31.333 0 -57.666 -11.667 -78.999 -35s-32 -53 -32 -89l-79 18c0 57.333 17.833 105.5 53.5 144.5s81.167 58.5 136.5 58.5
c43.333 0 92.5 -18.333 147.5 -55s99.833 -55 134.5 -55c30.667 0 57 12 79 36s33 54.333 33 91z" />
    <glyph glyph-name="odieresis" unicode="&#xf6;" horiz-adv-x="1152" 
d="M97 557c0 159.333 43.666 290 130.999 392s203 153 347 153c144.667 0 260.667 -51 348 -153s131 -232.667 131 -392v-33c0 -160 -43.5 -290.833 -130.5 -392.5s-202.5 -152.5 -346.5 -152.5c-145.333 0 -261.666 50.833 -348.999 152.5s-131 232.5 -131 392.5v33z
M216.999 524c0 -125.333 31.6689 -230.666 95.002 -315.999s151.666 -128 264.999 -128c111.333 0 198.666 42.667 261.999 128s95 190.666 95 315.999v33c0 123.333 -31.833 228 -95.5 314s-151.5 129 -263.5 129s-199.667 -43 -263 -129s-95 -190.667 -95 -314v-33z
M893.001 1317h-173v157h173v-157zM424.001 1317h-174v157h174v-157z" />
    <glyph glyph-name="divide" unicode="&#xf7;" horiz-adv-x="1148" 
d="M1072 644h-998v116h998v-116zM650 1010h-142v160h142v-160zM650 212h-142v160h142v-160z" />
    <glyph glyph-name="oslash" unicode="&#xf8;" horiz-adv-x="1152" 
d="M97 557c0 159.333 43.6689 290.003 131.002 392.003s203 153 347 153c41.333 0 81 -4.83301 119 -14.5s74 -23.167 108 -40.5l86 167h93l-110 -214c58 -48.667 103 -111.334 135 -188.001s48 -161.667 48 -255v-33c0 -160 -43.5 -290.833 -130.5 -392.5
s-202.5 -152.5 -346.5 -152.5c-38.667 0 -75.334 3.66699 -110.001 11s-67.334 18.666 -98.001 33.999l-84 -164h-93l106 207c-64 47.333 -113.5 110.666 -148.5 189.999s-52.5 168.333 -52.5 267v33zM217.002 524.003c0 -73.333 11.167 -140.832 33.5 -202.499
s54.5 -110.834 96.5 -147.501h6l399 776c-25.333 16 -52.833 28.333 -82.5 37s-61.167 13 -94.5 13c-112 0 -199.667 -43 -263 -129s-95 -190.667 -95 -314v-33zM934.002 557.004c0 66.667 -10.001 129.168 -30.001 187.501s-48.333 106.5 -85 144.5h-5l-397 -771
c22.667 -12.667 47.334 -22.167 74.001 -28.5s55.334 -9.5 86.001 -9.5c111.333 0 198.666 42.667 261.999 128s95 190.666 95 315.999v33z" />
    <glyph glyph-name="ugrave" unicode="&#xf9;" horiz-adv-x="1232" 
d="M892 178c-34 -63.333 -80.501 -112.333 -139.501 -147s-128.5 -52 -208.5 -52c-114 0 -203.167 38.667 -267.5 116s-96.5 197.333 -96.5 360v525l-134 13v89h134h119v-629c0 -132 22.5 -226.667 67.5 -284s108.833 -86 191.5 -86c90.667 0 162.834 20 216.501 60
s91.5 95.333 113.5 166v671l-154 13v89h154h120v-981l145 -13v-88h-250zM626.999 1232h-117l-241 261l2 5h154z" />
    <glyph glyph-name="uacute" unicode="&#xfa;" horiz-adv-x="1232" 
d="M892 178c-34 -63.333 -80.501 -112.333 -139.501 -147s-128.5 -52 -208.5 -52c-114 0 -203.167 38.667 -267.5 116s-96.5 197.333 -96.5 360v525l-134 13v89h134h119v-629c0 -132 22.5 -226.667 67.5 -284s108.833 -86 191.5 -86c90.667 0 162.834 20 216.501 60
s91.5 95.333 113.5 166v671l-154 13v89h154h120v-981l145 -13v-88h-250zM667.999 1483h147l3 -6l-249 -260h-107z" />
    <glyph glyph-name="ucircumflex" unicode="&#xfb;" horiz-adv-x="1232" 
d="M892 178c-34 -63.333 -80.501 -112.333 -139.501 -147s-128.5 -52 -208.5 -52c-114 0 -203.167 38.667 -267.5 116s-96.5 197.333 -96.5 360v525l-134 13v89h134h119v-629c0 -132 22.5 -226.667 67.5 -284s108.833 -86 191.5 -86c90.667 0 162.834 20 216.501 60
s91.5 95.333 113.5 166v671l-154 13v89h154h120v-981l145 -13v-88h-250zM837.999 1278v-18h-112l-167 168l-166 -168h-109v21l226 221h98z" />
    <glyph glyph-name="udieresis" unicode="&#xfc;" horiz-adv-x="1232" 
d="M892 178c-34 -63.333 -80.501 -112.333 -139.501 -147s-128.5 -52 -208.5 -52c-114 0 -203.167 38.667 -267.5 116s-96.5 197.333 -96.5 360v525l-134 13v89h134h119v-629c0 -132 22.5 -226.667 67.5 -284s108.833 -86 191.5 -86c90.667 0 162.834 20 216.501 60
s91.5 95.333 113.5 166v671l-154 13v89h154h120v-981l145 -13v-88h-250zM873.999 1306h-173v157h173v-157zM404.999 1306h-174v157h174v-157z" />
    <glyph glyph-name="yacute" unicode="&#xfd;" horiz-adv-x="1174" 
d="M1135 993l-110.001 -9.00195l-437 -1157c-28 -73.333 -64.333 -135.666 -109 -186.999s-110 -77 -196 -77c-14 0 -31 1.5 -51 4.5s-34.667 6.16699 -44 9.5l14 100c8 -1.33301 20.833 -2.83301 38.5 -4.5s30.167 -2.5 37.5 -2.5c52.667 0 94.334 18.333 125.001 55
s57.667 84.334 81 143.001l56 145l-384 971l-110 9v89h372v-89l-129 -10l264 -690l38 -130h6l296 820l-132 10v89h374v-89zM703.999 1483h147l3 -6l-249 -260h-107z" />
    <glyph glyph-name="thorn" unicode="&#xfe;" horiz-adv-x="1191" 
d="M47 -327l163 13.001v1772l-163 13v89h282v-640c36 58 82.167 102.833 138.5 134.5s122.5 47.5 198.5 47.5c130 0 231.667 -51.833 305 -155.5s110 -241.834 110 -414.501v-21c0 -162 -36.667 -291.167 -110 -387.5s-174.333 -144.5 -303 -144.5
c-76 0 -142.5 14.5 -199.5 43.5s-103.5 70.167 -139.5 123.5v-460l163 -13v-89h-445v89zM961 532.001c0 137.333 -27.334 249.332 -82.001 335.999s-134.667 130 -240 130c-80.667 0 -146.167 -19.167 -196.5 -57.5s-88.166 -88.166 -113.499 -149.499v-520
c27.333 -59.333 66.833 -106 118.5 -140s116.167 -51 193.5 -51c104.667 0 184.167 39.333 238.5 118s81.5 183 81.5 313v21z" />
    <glyph glyph-name="ydieresis" unicode="&#xff;" horiz-adv-x="1174" 
d="M1135 993l-110.001 -9.00195l-437 -1157c-28 -73.333 -64.333 -135.666 -109 -186.999s-110 -77 -196 -77c-14 0 -31 1.5 -51 4.5s-34.667 6.16699 -44 9.5l14 100c8 -1.33301 20.833 -2.83301 38.5 -4.5s30.167 -2.5 37.5 -2.5c52.667 0 94.334 18.333 125.001 55
s57.667 84.334 81 143.001l56 145l-384 971l-110 9v89h372v-89l-129 -10l264 -690l38 -130h6l296 820l-132 10v89h374v-89zM909.999 1306h-173v157h173v-157zM440.999 1306h-174v157h174v-157z" />
    <glyph glyph-name="Amacron" unicode="&#x100;" horiz-adv-x="1485" 
d="M55 88l107 8l517 1360h113l512 -1360l109 -8v-88h-359v88l127 10l-120 326h-654l-121 -326l127 -10v-88h-358v88zM447 531h575l-283 770h-6zM1074 1692h-670v97h670v-97z" />
    <glyph glyph-name="amacron" unicode="&#x101;" 
d="M844 0c-8 36.667 -13.668 68.332 -17.001 94.999s-5 53.667 -5 81c-40 -56.667 -93.333 -103.667 -160 -141s-141.667 -56 -225 -56c-106 0 -188 27.333 -246 82s-87 128.667 -87 222c0 100 43 179.333 129 238s202.667 88 350 88h239v143
c0 77.333 -24.833 138 -74.5 182s-119.167 66 -208.5 66c-60 0 -114.833 -8.16699 -164.5 -24.5s-91.167 -38.5 -124.5 -66.5l-10 -145h-99l1 208c50 38.667 109.833 70 179.5 94s143.834 36 222.501 36c119.333 0 215.333 -30.333 288 -91s109 -147.667 109 -261v-532
c0 -22 0.5 -43.167 1.5 -63.5s3.16699 -40.166 6.5 -59.499l108 -7v-88h-213zM449.999 84.998c86.667 0 163 20 229 60s113.667 91.667 143 155v217h-241c-108.667 0 -195.5 -22.5 -260.5 -67.5s-97.5 -101.833 -97.5 -170.5c0 -58 20.167 -104.833 60.5 -140.5
s95.833 -53.5 166.5 -53.5zM883.999 1371h-670v97h670v-97z" />
    <glyph glyph-name="Abreve" unicode="&#x102;" horiz-adv-x="1485" 
d="M55 88l107 8l517 1360h113l512 -1360l109 -8v-88h-359v88l127 10l-120 326h-654l-121 -326l127 -10v-88h-358v88zM447 531h575l-283 770h-6zM1010 1833l1.99707 -6.00195c2.66699 -74 -21.666 -134.5 -72.999 -181.5s-121 -70.5 -209 -70.5
c-89.333 0 -159.666 23.333 -210.999 70s-75.333 107.334 -72 182.001l2 6h94c0 -51.333 15 -92.666 45 -123.999s77.333 -47 142 -47c62.667 0 109.334 16 140.001 48s46 73 46 123h94z" />
    <glyph glyph-name="abreve" unicode="&#x103;" 
d="M844 0c-8 36.667 -13.668 68.332 -17.001 94.999s-5 53.667 -5 81c-40 -56.667 -93.333 -103.667 -160 -141s-141.667 -56 -225 -56c-106 0 -188 27.333 -246 82s-87 128.667 -87 222c0 100 43 179.333 129 238s202.667 88 350 88h239v143
c0 77.333 -24.833 138 -74.5 182s-119.167 66 -208.5 66c-60 0 -114.833 -8.16699 -164.5 -24.5s-91.167 -38.5 -124.5 -66.5l-10 -145h-99l1 208c50 38.667 109.833 70 179.5 94s143.834 36 222.501 36c119.333 0 215.333 -30.333 288 -91s109 -147.667 109 -261v-532
c0 -22 0.5 -43.167 1.5 -63.5s3.16699 -40.166 6.5 -59.499l108 -7v-88h-213zM449.999 84.998c86.667 0 163 20 229 60s113.667 91.667 143 155v217h-241c-108.667 0 -195.5 -22.5 -260.5 -67.5s-97.5 -101.833 -97.5 -170.5c0 -58 20.167 -104.833 60.5 -140.5
s95.833 -53.5 166.5 -53.5zM819.999 1512l1.99707 -6.00195c2.66699 -74 -21.666 -134.5 -72.999 -181.5s-121 -70.5 -209 -70.5c-89.333 0 -159.666 23.333 -210.999 70s-75.333 107.334 -72 182.001l2 6h94c0 -51.333 15 -92.666 45 -123.999s77.333 -47 142 -47
c62.667 0 109.334 16 140.001 48s46 73 46 123h94z" />
    <glyph glyph-name="Aogonek" unicode="&#x104;" horiz-adv-x="1485" 
d="M55 88l107 8l517 1360h113l512 -1360l109 -8v-88h-359v88l127 10l-120 326h-654l-121 -326l127 -10v-88h-358v88zM447 531h575l-283 770h-6zM1413 0c-48 -40 -84.668 -76.001 -110.001 -108.001s-38 -66.667 -38 -104c0 -20.667 6.33301 -40 19 -58s36 -27 70 -27
c21.333 0 40.166 3 56.499 9s32.5 13.667 48.5 23l24 -83c-19.333 -12.667 -41.166 -23.167 -65.499 -31.5s-53.166 -12.5 -86.499 -12.5c-50.667 0 -92.167 14.833 -124.5 44.5s-48.5 71.167 -48.5 124.5c0 46.667 17 92.834 51 138.501s81.667 86.167 143 121.5z" />
    <glyph glyph-name="aogonek" unicode="&#x105;" 
d="M844 0c-8 36.667 -13.668 68.332 -17.001 94.999s-5 53.667 -5 81c-40 -56.667 -93.333 -103.667 -160 -141s-141.667 -56 -225 -56c-106 0 -188 27.333 -246 82s-87 128.667 -87 222c0 100 43 179.333 129 238s202.667 88 350 88h239v143
c0 77.333 -24.833 138 -74.5 182s-119.167 66 -208.5 66c-60 0 -114.833 -8.16699 -164.5 -24.5s-91.167 -38.5 -124.5 -66.5l-10 -145h-99l1 208c50 38.667 109.833 70 179.5 94s143.834 36 222.501 36c119.333 0 215.333 -30.333 288 -91s109 -147.667 109 -261v-532
c0 -22 0.5 -43.167 1.5 -63.5s3.16699 -40.166 6.5 -59.499l108 -7v-88h-213zM449.999 84.998c86.667 0 163 20 229 60s113.667 91.667 143 155v217h-241c-108.667 0 -195.5 -22.5 -260.5 -67.5s-97.5 -101.833 -97.5 -170.5c0 -58 20.167 -104.833 60.5 -140.5
s95.833 -53.5 166.5 -53.5zM1057 -0.00195312c-48 -40 -84.668 -76.001 -110.001 -108.001s-38 -66.667 -38 -104c0 -20.667 6.33301 -40 19 -58s36 -27 70 -27c21.333 0 40.166 3 56.499 9s32.5 13.667 48.5 23l24 -83c-19.333 -12.667 -41.166 -23.167 -65.499 -31.5
s-53.166 -12.5 -86.499 -12.5c-50.667 0 -92.167 14.833 -124.5 44.5s-48.5 71.167 -48.5 124.5c0 46.667 17 92.834 51 138.501s81.667 86.167 143 121.5z" />
    <glyph glyph-name="Cacute" unicode="&#x106;" horiz-adv-x="1349" 
d="M1230 1000l-92.998 -0.000976562l-17 221c-38.667 46 -89 83.167 -151 111.5s-133.667 42.5 -215 42.5c-162.667 0 -292 -59.167 -388 -177.5s-144 -271.166 -144 -458.499v-21c0 -187.333 47.5 -340.5 142.5 -459.5s219.833 -178.5 374.5 -178.5
c82 0 156.5 14.333 223.5 43s119.5 65.667 157.5 111l17 221h93v-256c-45.333 -62.667 -111.5 -115 -198.5 -157s-184.5 -63 -292.5 -63c-186.667 0 -339.334 69.167 -458.001 207.5s-178 315.5 -178 531.5v19c0 216.667 59.167 394.167 177.5 532.5
s273.166 207.5 464.499 207.5c108 0 204.5 -21.167 289.5 -63.5s150.167 -94.833 195.5 -157.5v-256zM847.002 1839h147l3 -6l-249 -260h-107z" />
    <glyph glyph-name="cacute" unicode="&#x107;" horiz-adv-x="1094" 
d="M559 80c79.333 0 149.338 22.668 210.005 68.001s91 108.333 91 189h106l2 -6c3.33301 -100 -36.5 -183.667 -119.5 -251s-179.5 -101 -289.5 -101c-146.667 0 -260.334 50.5 -341.001 151.5s-121 230.833 -121 389.5v42c0 157.333 40.333 286.666 121 387.999
s194 152 340 152c83.333 0 159.666 -15.667 228.999 -47s125.666 -74 168.999 -128l5 -236h-102l-19 192c-32 36 -71.833 64.5 -119.5 85.5s-101.834 31.5 -162.501 31.5c-116 0 -201.833 -41.5 -257.5 -124.5s-83.5 -187.5 -83.5 -313.5v-42
c0 -128 27.667 -233.333 83 -316s141.666 -124 258.999 -124zM668.005 1494h147l3 -6l-249 -260h-107z" />
    <glyph glyph-name="Ccircumflex" unicode="&#x108;" horiz-adv-x="1349" 
d="M1230 1000l-92.998 -0.000976562l-17 221c-38.667 46 -89 83.167 -151 111.5s-133.667 42.5 -215 42.5c-162.667 0 -292 -59.167 -388 -177.5s-144 -271.166 -144 -458.499v-21c0 -187.333 47.5 -340.5 142.5 -459.5s219.833 -178.5 374.5 -178.5
c82 0 156.5 14.333 223.5 43s119.5 65.667 157.5 111l17 221h93v-256c-45.333 -62.667 -111.5 -115 -198.5 -157s-184.5 -63 -292.5 -63c-186.667 0 -339.334 69.167 -458.001 207.5s-178 315.5 -178 531.5v19c0 216.667 59.167 394.167 177.5 532.5
s273.166 207.5 464.499 207.5c108 0 204.5 -21.167 289.5 -63.5s150.167 -94.833 195.5 -157.5v-256zM1017 1634v-18h-112l-167 168l-166 -168h-109v21l226 221h98z" />
    <glyph glyph-name="ccircumflex" unicode="&#x109;" horiz-adv-x="1094" 
d="M559 80c79.333 0 149.338 22.668 210.005 68.001s91 108.333 91 189h106l2 -6c3.33301 -100 -36.5 -183.667 -119.5 -251s-179.5 -101 -289.5 -101c-146.667 0 -260.334 50.5 -341.001 151.5s-121 230.833 -121 389.5v42c0 157.333 40.333 286.666 121 387.999
s194 152 340 152c83.333 0 159.666 -15.667 228.999 -47s125.666 -74 168.999 -128l5 -236h-102l-19 192c-32 36 -71.833 64.5 -119.5 85.5s-101.834 31.5 -162.501 31.5c-116 0 -201.833 -41.5 -257.5 -124.5s-83.5 -187.5 -83.5 -313.5v-42
c0 -128 27.667 -233.333 83 -316s141.666 -124 258.999 -124zM838.005 1289v-18h-112l-167 168l-166 -168h-109v21l226 221h98z" />
    <glyph glyph-name="uni010A" unicode="&#x10a;" horiz-adv-x="1349" 
d="M1230 1000l-92.998 -0.000976562l-17 221c-38.667 46 -89 83.167 -151 111.5s-133.667 42.5 -215 42.5c-162.667 0 -292 -59.167 -388 -177.5s-144 -271.166 -144 -458.499v-21c0 -187.333 47.5 -340.5 142.5 -459.5s219.833 -178.5 374.5 -178.5
c82 0 156.5 14.333 223.5 43s119.5 65.667 157.5 111l17 221h93v-256c-45.333 -62.667 -111.5 -115 -198.5 -157s-184.5 -63 -292.5 -63c-186.667 0 -339.334 69.167 -458.001 207.5s-178 315.5 -178 531.5v19c0 216.667 59.167 394.167 177.5 532.5
s273.166 207.5 464.499 207.5c108 0 204.5 -21.167 289.5 -63.5s150.167 -94.833 195.5 -157.5v-256zM810.002 1643h-151v168h151v-168z" />
    <glyph glyph-name="uni010B" unicode="&#x10b;" horiz-adv-x="1094" 
d="M559 80c79.333 0 149.338 22.668 210.005 68.001s91 108.333 91 189h106l2 -6c3.33301 -100 -36.5 -183.667 -119.5 -251s-179.5 -101 -289.5 -101c-146.667 0 -260.334 50.5 -341.001 151.5s-121 230.833 -121 389.5v42c0 157.333 40.333 286.666 121 387.999
s194 152 340 152c83.333 0 159.666 -15.667 228.999 -47s125.666 -74 168.999 -128l5 -236h-102l-19 192c-32 36 -71.833 64.5 -119.5 85.5s-101.834 31.5 -162.501 31.5c-116 0 -201.833 -41.5 -257.5 -124.5s-83.5 -187.5 -83.5 -313.5v-42
c0 -128 27.667 -233.333 83 -316s141.666 -124 258.999 -124zM631.005 1298h-151v168h151v-168z" />
    <glyph glyph-name="Ccaron" unicode="&#x10c;" horiz-adv-x="1349" 
d="M1230 1000l-92.998 -0.000976562l-17 221c-38.667 46 -89 83.167 -151 111.5s-133.667 42.5 -215 42.5c-162.667 0 -292 -59.167 -388 -177.5s-144 -271.166 -144 -458.499v-21c0 -187.333 47.5 -340.5 142.5 -459.5s219.833 -178.5 374.5 -178.5
c82 0 156.5 14.333 223.5 43s119.5 65.667 157.5 111l17 221h93v-256c-45.333 -62.667 -111.5 -115 -198.5 -157s-184.5 -63 -292.5 -63c-186.667 0 -339.334 69.167 -458.001 207.5s-178 315.5 -178 531.5v19c0 216.667 59.167 394.167 177.5 532.5
s273.166 207.5 464.499 207.5c108 0 204.5 -21.167 289.5 -63.5s150.167 -94.833 195.5 -157.5v-256zM736.002 1673l167 169h115v-17l-233 -225h-98l-231 225v17h114z" />
    <glyph glyph-name="ccaron" unicode="&#x10d;" horiz-adv-x="1094" 
d="M559 80c79.333 0 149.338 22.668 210.005 68.001s91 108.333 91 189h106l2 -6c3.33301 -100 -36.5 -183.667 -119.5 -251s-179.5 -101 -289.5 -101c-146.667 0 -260.334 50.5 -341.001 151.5s-121 230.833 -121 389.5v42c0 157.333 40.333 286.666 121 387.999
s194 152 340 152c83.333 0 159.666 -15.667 228.999 -47s125.666 -74 168.999 -128l5 -236h-102l-19 192c-32 36 -71.833 64.5 -119.5 85.5s-101.834 31.5 -162.501 31.5c-116 0 -201.833 -41.5 -257.5 -124.5s-83.5 -187.5 -83.5 -313.5v-42
c0 -128 27.667 -233.333 83 -316s141.666 -124 258.999 -124zM557.005 1328l167 169h115v-17l-233 -225h-98l-231 225v17h114z" />
    <glyph glyph-name="Dcaron" unicode="&#x10e;" horiz-adv-x="1401" 
d="M657 1456c178 0 325 -59.333 441 -178s174 -271 174 -457v-187c0 -186.667 -58 -339 -174 -457s-263 -177 -441 -177h-586v88l163 13v1253l-163 13v89h163h423zM353 1354l-0.000976562 -1253h304c144 0 262.5 50.333 355.5 151s139.5 228 139.5 382v190
c0 152 -46.667 278.333 -140 379s-211.666 151 -354.999 151h-304zM612.999 1652l167 169h115v-17l-233 -225h-98l-231 225v17h114z" />
    <glyph glyph-name="dcaron" unicode="&#x10f;" horiz-adv-x="1366" 
d="M849 156c-36 -56.667 -82.3311 -100.333 -138.998 -131s-123.334 -46 -200.001 -46c-129.333 0 -230.5 48.333 -303.5 145s-109.5 225.667 -109.5 387v21c0 172.667 36.5 310.834 109.5 414.501s174.833 155.5 305.5 155.5c75.333 0 140.666 -15.833 195.999 -47.5
s101.333 -76.834 138 -135.501v539l-163 13v89h163h120v-1459l163 -13v-88h-270zM218.002 511.001c0 -130.667 26.166 -234.668 78.499 -312.001s131.166 -116 236.499 -116c76.667 0 140.834 17.333 192.501 52s91.834 82.334 120.501 143.001v512
c-26.667 61.333 -65.167 111.333 -115.5 150s-115.5 58 -195.5 58c-105.333 0 -184.5 -43.167 -237.5 -129.5s-79.5 -198.5 -79.5 -336.5v-21zM1260 1453c0 -58 -11 -114.333 -33 -169s-52.667 -100.667 -92 -138l-71 51c27.333 40.667 47.5 81 60.5 121s19.5 84 19.5 132
v109h116v-106z" />
    <glyph glyph-name="Dcroat" unicode="&#x110;" horiz-adv-x="1431" 
d="M687 1456c178 0 325 -59.333 441 -178s174 -271 174 -457v-187c0 -186.667 -58 -339 -174 -457s-263 -177 -441 -177h-586v88l163 13v588h-161v102h161v563l-163 13v89h586zM715 689h-332.001v-588h304c144 0 262.5 50.333 355.5 151s139.5 228 139.5 382v190
c0 152 -46.667 278.333 -140 379s-211.666 151 -354.999 151h-304v-563h332v-102z" />
    <glyph glyph-name="dcroat" unicode="&#x111;" horiz-adv-x="1246" 
d="M849 156c-36 -56.667 -82.3311 -100.333 -138.998 -131s-123.334 -46 -200.001 -46c-129.333 0 -230.5 48.333 -303.5 145s-109.5 225.667 -109.5 387v21c0 172.667 36.5 310.834 109.5 414.501s174.833 155.5 305.5 155.5c75.333 0 140.666 -15.833 195.999 -47.5
s101.333 -76.834 138 -135.501v290h-283v102h283v147l-163 13v89h283v-249h209v-102h-209v-1108l163 -13v-88h-270zM218.002 511.001c0 -130.667 26.166 -234.668 78.499 -312.001s131.166 -116 236.499 -116c76.667 0 140.834 17.333 192.501 52
s91.834 82.334 120.501 143.001v512c-26.667 61.333 -65.167 111.333 -115.5 150s-115.5 58 -195.5 58c-105.333 0 -184.5 -43.167 -237.5 -129.5s-79.5 -198.5 -79.5 -336.5v-21z" />
    <glyph glyph-name="Emacron" unicode="&#x112;" horiz-adv-x="1286" 
d="M950 705h-597v-604h688l9 218h106v-319h-1085v88l163 13v1253l-163 13v89h163h917v-320h-106l-9 218h-683v-547h597v-102zM974 1694h-670v97h670v-97z" />
    <glyph glyph-name="emacron" unicode="&#x113;" horiz-adv-x="1102" 
d="M574 -21c-136 0 -248.667 49.8311 -338 149.498s-134 226.5 -134 380.5v55c0 154.667 44.5 283 133.5 385s196.5 153 322.5 153c132.667 0 237 -42 313 -126s114 -196 114 -336v-102h-764v-29c0 -121.333 32.5 -223.166 97.5 -305.499s150.167 -123.5 255.5 -123.5
c74 0 137.333 10.333 190 31s97.667 50.334 135 89.001l51 -82c-40.667 -42.667 -92 -76.5 -154 -101.5s-136 -37.5 -222 -37.5zM558 999.998c-88 0 -162.167 -33.833 -222.5 -101.5s-95.5 -152.5 -105.5 -254.5l2 -5h634v30c0 94 -27.667 172.667 -83 236
s-130.333 95 -225 95zM902 1371h-670v97h670v-97z" />
    <glyph glyph-name="Ebreve" unicode="&#x114;" horiz-adv-x="1286" 
d="M950 705h-597v-604h688l9 218h106v-319h-1085v88l163 13v1253l-163 13v89h163h917v-320h-106l-9 218h-683v-547h597v-102zM910 1835l1.99707 -6.00195c2.66699 -74 -21.666 -134.5 -72.999 -181.5s-121 -70.5 -209 -70.5c-89.333 0 -159.666 23.333 -210.999 70
s-75.333 107.334 -72 182.001l2 6h94c0 -51.333 15 -92.666 45 -123.999s77.333 -47 142 -47c62.667 0 109.334 16 140.001 48s46 73 46 123h94z" />
    <glyph glyph-name="ebreve" unicode="&#x115;" horiz-adv-x="1102" 
d="M574 -21c-136 0 -248.667 49.8311 -338 149.498s-134 226.5 -134 380.5v55c0 154.667 44.5 283 133.5 385s196.5 153 322.5 153c132.667 0 237 -42 313 -126s114 -196 114 -336v-102h-764v-29c0 -121.333 32.5 -223.166 97.5 -305.499s150.167 -123.5 255.5 -123.5
c74 0 137.333 10.333 190 31s97.667 50.334 135 89.001l51 -82c-40.667 -42.667 -92 -76.5 -154 -101.5s-136 -37.5 -222 -37.5zM558 999.998c-88 0 -162.167 -33.833 -222.5 -101.5s-95.5 -152.5 -105.5 -254.5l2 -5h634v30c0 94 -27.667 172.667 -83 236
s-130.333 95 -225 95zM838 1512l1.99707 -6.00195c2.66699 -74 -21.666 -134.5 -72.999 -181.5s-121 -70.5 -209 -70.5c-89.333 0 -159.666 23.333 -210.999 70s-75.333 107.334 -72 182.001l2 6h94c0 -51.333 15 -92.666 45 -123.999s77.333 -47 142 -47
c62.667 0 109.334 16 140.001 48s46 73 46 123h94z" />
    <glyph glyph-name="Edotaccent" unicode="&#x116;" horiz-adv-x="1286" 
d="M950 705h-597v-604h688l9 218h106v-319h-1085v88l163 13v1253l-163 13v89h163h917v-320h-106l-9 218h-683v-547h597v-102zM706 1622h-151v168h151v-168z" />
    <glyph glyph-name="edotaccent" unicode="&#x117;" horiz-adv-x="1102" 
d="M574 -21c-136 0 -248.667 49.8311 -338 149.498s-134 226.5 -134 380.5v55c0 154.667 44.5 283 133.5 385s196.5 153 322.5 153c132.667 0 237 -42 313 -126s114 -196 114 -336v-102h-764v-29c0 -121.333 32.5 -223.166 97.5 -305.499s150.167 -123.5 255.5 -123.5
c74 0 137.333 10.333 190 31s97.667 50.334 135 89.001l51 -82c-40.667 -42.667 -92 -76.5 -154 -101.5s-136 -37.5 -222 -37.5zM558 999.998c-88 0 -162.167 -33.833 -222.5 -101.5s-95.5 -152.5 -105.5 -254.5l2 -5h634v30c0 94 -27.667 172.667 -83 236
s-130.333 95 -225 95zM634 1299h-151v168h151v-168z" />
    <glyph glyph-name="Eogonek" unicode="&#x118;" horiz-adv-x="1286" 
d="M950 705h-597v-604h688l9 218h106v-319h-1085v88l163 13v1253l-163 13v89h163h917v-320h-106l-9 218h-683v-547h597v-102zM689 4c-48 -40 -84.668 -76.001 -110.001 -108.001s-38 -66.667 -38 -104c0 -20.667 6.33301 -40 19 -58s36 -27 70 -27
c21.333 0 40.166 3 56.499 9s32.5 13.667 48.5 23l24 -83c-19.333 -12.667 -41.166 -23.167 -65.499 -31.5s-53.166 -12.5 -86.499 -12.5c-50.667 0 -92.167 14.833 -124.5 44.5s-48.5 71.167 -48.5 124.5c0 46.667 17 92.834 51 138.501s81.667 86.167 143 121.5z" />
    <glyph glyph-name="eogonek" unicode="&#x119;" horiz-adv-x="1102" 
d="M574 -21c-136 0 -248.667 49.8311 -338 149.498s-134 226.5 -134 380.5v55c0 154.667 44.5 283 133.5 385s196.5 153 322.5 153c132.667 0 237 -42 313 -126s114 -196 114 -336v-102h-764v-29c0 -121.333 32.5 -223.166 97.5 -305.499s150.167 -123.5 255.5 -123.5
c74 0 137.333 10.333 190 31s97.667 50.334 135 89.001l51 -82c-40.667 -42.667 -92 -76.5 -154 -101.5s-136 -37.5 -222 -37.5zM558 999.998c-88 0 -162.167 -33.833 -222.5 -101.5s-95.5 -152.5 -105.5 -254.5l2 -5h634v30c0 94 -27.667 172.667 -83 236
s-130.333 95 -225 95zM841 57.998c-48 -40 -84.668 -76.001 -110.001 -108.001s-38 -66.667 -38 -104c0 -20.667 6.33301 -40 19 -58s36 -27 70 -27c21.333 0 40.166 3 56.499 9s32.5 13.667 48.5 23l24 -83c-19.333 -12.667 -41.166 -23.167 -65.499 -31.5
s-53.166 -12.5 -86.499 -12.5c-50.667 0 -92.167 14.833 -124.5 44.5s-48.5 71.167 -48.5 124.5c0 46.667 17 92.834 51 138.501s81.667 86.167 143 121.5z" />
    <glyph glyph-name="Ecaron" unicode="&#x11a;" horiz-adv-x="1286" 
d="M950 705h-597v-604h688l9 218h106v-319h-1085v88l163 13v1253l-163 13v89h163h917v-320h-106l-9 218h-683v-547h597v-102zM632 1652l167 169h115v-17l-233 -225h-98l-231 225v17h114z" />
    <glyph glyph-name="ecaron" unicode="&#x11b;" horiz-adv-x="1102" 
d="M574 -21c-136 0 -248.667 49.8311 -338 149.498s-134 226.5 -134 380.5v55c0 154.667 44.5 283 133.5 385s196.5 153 322.5 153c132.667 0 237 -42 313 -126s114 -196 114 -336v-102h-764v-29c0 -121.333 32.5 -223.166 97.5 -305.499s150.167 -123.5 255.5 -123.5
c74 0 137.333 10.333 190 31s97.667 50.334 135 89.001l51 -82c-40.667 -42.667 -92 -76.5 -154 -101.5s-136 -37.5 -222 -37.5zM558 999.998c-88 0 -162.167 -33.833 -222.5 -101.5s-95.5 -152.5 -105.5 -254.5l2 -5h634v30c0 94 -27.667 172.667 -83 236
s-130.333 95 -225 95zM560 1329l167 169h115v-17l-233 -225h-98l-231 225v17h114z" />
    <glyph glyph-name="Gcircumflex" unicode="&#x11c;" horiz-adv-x="1420" 
d="M1239 160c-34.667 -42.667 -95.001 -83.501 -181.001 -122.501s-193.667 -58.5 -323 -58.5c-189.333 0 -343.333 68.333 -462 205s-178 314.667 -178 534v31c0 216 59.333 391.333 178 526s274.334 202 467.001 202c109.333 0 206 -18.167 290 -54.5
s152.333 -86.166 205 -149.499v-253h-93l-21 213c-39.333 43.333 -90.333 77.833 -153 103.5s-135.667 38.5 -219 38.5c-165.333 0 -295.666 -58 -390.999 -174s-143 -266 -143 -450v-33c0 -189.333 46.833 -343 140.5 -461s220.167 -177 379.5 -177
c94.667 0 175.667 12.333 243 37s114.666 51 141.999 79v353l-280 5v97h399v-491zM976.999 1623v-18h-112l-167 168l-166 -168h-109v21l226 221h98z" />
    <glyph glyph-name="gcircumflex" unicode="&#x11d;" horiz-adv-x="1148" 
d="M102 532c0 172.667 36.8311 310.833 110.498 414.5s175.834 155.5 306.501 155.5c76.667 0 143.167 -16.833 199.5 -50.5s102.833 -81.167 139.5 -142.5l14 173h101v-1068c0 -139.333 -37.667 -249.333 -113 -330s-180.333 -121 -315 -121
c-52 0 -107.5 6.33301 -166.5 19s-110.5 30 -154.5 52l32 101c43.333 -20.667 88.833 -36.667 136.5 -48s97.834 -17 150.501 -17c102.667 0 180 30.333 232 91s78 145 78 253v137c-36.667 -55.333 -83 -97.833 -139 -127.5s-121.667 -44.5 -197 -44.5
c-130 0 -231.667 48.333 -305 145s-110 225.667 -110 387v21zM221.998 510.999c0 -130 26.5 -233.833 79.5 -311.5s132.167 -116.5 237.5 -116.5c78 0 142.833 17.667 194.5 53s91.5 84 119.5 146v502c-26.667 63.333 -65 114.833 -115 154.5s-115.667 59.5 -197 59.5
c-105.333 0 -184.833 -43.333 -238.5 -130s-80.5 -198.667 -80.5 -336v-21zM856.998 1289v-18h-112l-167 168l-166 -168h-109v21l226 221h98z" />
    <glyph glyph-name="Gbreve" unicode="&#x11e;" horiz-adv-x="1420" 
d="M1239 160c-34.667 -42.667 -95.001 -83.501 -181.001 -122.501s-193.667 -58.5 -323 -58.5c-189.333 0 -343.333 68.333 -462 205s-178 314.667 -178 534v31c0 216 59.333 391.333 178 526s274.334 202 467.001 202c109.333 0 206 -18.167 290 -54.5
s152.333 -86.166 205 -149.499v-253h-93l-21 213c-39.333 43.333 -90.333 77.833 -153 103.5s-135.667 38.5 -219 38.5c-165.333 0 -295.666 -58 -390.999 -174s-143 -266 -143 -450v-33c0 -189.333 46.833 -343 140.5 -461s220.167 -177 379.5 -177
c94.667 0 175.667 12.333 243 37s114.666 51 141.999 79v353l-280 5v97h399v-491zM973.999 1845l1.99707 -6.00195c2.66699 -74 -21.666 -134.5 -72.999 -181.5s-121 -70.5 -209 -70.5c-89.333 0 -159.666 23.333 -210.999 70s-75.333 107.334 -72 182.001l2 6h94
c0 -51.333 15 -92.666 45 -123.999s77.333 -47 142 -47c62.667 0 109.334 16 140.001 48s46 73 46 123h94z" />
    <glyph glyph-name="gbreve" unicode="&#x11f;" horiz-adv-x="1148" 
d="M102 532c0 172.667 36.8311 310.833 110.498 414.5s175.834 155.5 306.501 155.5c76.667 0 143.167 -16.833 199.5 -50.5s102.833 -81.167 139.5 -142.5l14 173h101v-1068c0 -139.333 -37.667 -249.333 -113 -330s-180.333 -121 -315 -121
c-52 0 -107.5 6.33301 -166.5 19s-110.5 30 -154.5 52l32 101c43.333 -20.667 88.833 -36.667 136.5 -48s97.834 -17 150.501 -17c102.667 0 180 30.333 232 91s78 145 78 253v137c-36.667 -55.333 -83 -97.833 -139 -127.5s-121.667 -44.5 -197 -44.5
c-130 0 -231.667 48.333 -305 145s-110 225.667 -110 387v21zM221.998 510.999c0 -130 26.5 -233.833 79.5 -311.5s132.167 -116.5 237.5 -116.5c78 0 142.833 17.667 194.5 53s91.5 84 119.5 146v502c-26.667 63.333 -65 114.833 -115 154.5s-115.667 59.5 -197 59.5
c-105.333 0 -184.833 -43.333 -238.5 -130s-80.5 -198.667 -80.5 -336v-21zM853.998 1511l1.99707 -6.00195c2.66699 -74 -21.666 -134.5 -72.999 -181.5s-121 -70.5 -209 -70.5c-89.333 0 -159.666 23.333 -210.999 70s-75.333 107.334 -72 182.001l2 6h94
c0 -51.333 15 -92.666 45 -123.999s77.333 -47 142 -47c62.667 0 109.334 16 140.001 48s46 73 46 123h94z" />
    <glyph glyph-name="uni0120" unicode="&#x120;" horiz-adv-x="1420" 
d="M1239 160c-34.667 -42.667 -95.001 -83.501 -181.001 -122.501s-193.667 -58.5 -323 -58.5c-189.333 0 -343.333 68.333 -462 205s-178 314.667 -178 534v31c0 216 59.333 391.333 178 526s274.334 202 467.001 202c109.333 0 206 -18.167 290 -54.5
s152.333 -86.166 205 -149.499v-253h-93l-21 213c-39.333 43.333 -90.333 77.833 -153 103.5s-135.667 38.5 -219 38.5c-165.333 0 -295.666 -58 -390.999 -174s-143 -266 -143 -450v-33c0 -189.333 46.833 -343 140.5 -461s220.167 -177 379.5 -177
c94.667 0 175.667 12.333 243 37s114.666 51 141.999 79v353l-280 5v97h399v-491zM769.999 1632h-151v168h151v-168z" />
    <glyph glyph-name="uni0121" unicode="&#x121;" horiz-adv-x="1148" 
d="M102 532c0 172.667 36.8311 310.833 110.498 414.5s175.834 155.5 306.501 155.5c76.667 0 143.167 -16.833 199.5 -50.5s102.833 -81.167 139.5 -142.5l14 173h101v-1068c0 -139.333 -37.667 -249.333 -113 -330s-180.333 -121 -315 -121
c-52 0 -107.5 6.33301 -166.5 19s-110.5 30 -154.5 52l32 101c43.333 -20.667 88.833 -36.667 136.5 -48s97.834 -17 150.501 -17c102.667 0 180 30.333 232 91s78 145 78 253v137c-36.667 -55.333 -83 -97.833 -139 -127.5s-121.667 -44.5 -197 -44.5
c-130 0 -231.667 48.333 -305 145s-110 225.667 -110 387v21zM221.998 510.999c0 -130 26.5 -233.833 79.5 -311.5s132.167 -116.5 237.5 -116.5c78 0 142.833 17.667 194.5 53s91.5 84 119.5 146v502c-26.667 63.333 -65 114.833 -115 154.5s-115.667 59.5 -197 59.5
c-105.333 0 -184.833 -43.333 -238.5 -130s-80.5 -198.667 -80.5 -336v-21zM649.998 1298h-151v168h151v-168z" />
    <glyph glyph-name="Gcommaaccent" unicode="&#x122;" horiz-adv-x="1420" 
d="M1239 160c-34.667 -42.667 -95.001 -83.501 -181.001 -122.501s-193.667 -58.5 -323 -58.5c-189.333 0 -343.333 68.333 -462 205s-178 314.667 -178 534v31c0 216 59.333 391.333 178 526s274.334 202 467.001 202c109.333 0 206 -18.167 290 -54.5
s152.333 -86.166 205 -149.499v-253h-93l-21 213c-39.333 43.333 -90.333 77.833 -153 103.5s-135.667 38.5 -219 38.5c-165.333 0 -295.666 -58 -390.999 -174s-143 -266 -143 -450v-33c0 -189.333 46.833 -343 140.5 -461s220.167 -177 379.5 -177
c94.667 0 175.667 12.333 243 37s114.666 51 141.999 79v353l-280 5v97h399v-491zM745.999 -245.001c0 -58 -11 -114.333 -33 -169s-52.667 -100.667 -92 -138l-71 51c27.333 40.667 47.5 81 60.5 121s19.5 84 19.5 132v109h116v-106z" />
    <glyph glyph-name="gcommaaccent" unicode="&#x123;" horiz-adv-x="1148" 
d="M102 532c0 172.667 36.8311 310.833 110.498 414.5s175.834 155.5 306.501 155.5c76.667 0 143.167 -16.833 199.5 -50.5s102.833 -81.167 139.5 -142.5l14 173h101v-1068c0 -139.333 -37.667 -249.333 -113 -330s-180.333 -121 -315 -121
c-52 0 -107.5 6.33301 -166.5 19s-110.5 30 -154.5 52l32 101c43.333 -20.667 88.833 -36.667 136.5 -48s97.834 -17 150.501 -17c102.667 0 180 30.333 232 91s78 145 78 253v137c-36.667 -55.333 -83 -97.833 -139 -127.5s-121.667 -44.5 -197 -44.5
c-130 0 -231.667 48.333 -305 145s-110 225.667 -110 387v21zM221.998 510.999c0 -130 26.5 -233.833 79.5 -311.5s132.167 -116.5 237.5 -116.5c78 0 142.833 17.667 194.5 53s91.5 84 119.5 146v502c-26.667 63.333 -65 114.833 -115 154.5s-115.667 59.5 -197 59.5
c-105.333 0 -184.833 -43.333 -238.5 -130s-80.5 -198.667 -80.5 -336v-21zM515.998 1399l88 216h71l-39 -218v-135h-120v137z" />
    <glyph glyph-name="Hcircumflex" unicode="&#x124;" horiz-adv-x="1537" 
d="M71 1367v89h445v-89l-163 -13v-582h828v582l-163 13v89h163h119h163v-89l-163 -13v-1253l163 -13v-88h-445v88l163 13v569h-828v-569l163 -13v-88h-445v88l163 13v1253zM1023 1612v-18h-112l-167 168l-166 -168h-109v21l226 221h98z" />
    <glyph glyph-name="hcircumflex" unicode="&#x125;" horiz-adv-x="1298" 
d="M62 1471l-0.000976562 89.001h282v-663c36 64.667 84 115 144 151s130 54 210 54c114 0 201.5 -35.333 262.5 -106s91.5 -180.334 91.5 -329.001v-566l163 -13v-88h-446v88l163 13v568c0 117.333 -23.167 201.5 -69.5 252.5s-110.166 76.5 -191.499 76.5
c-82 0 -150.5 -21.5 -205.5 -64.5s-95.5 -100.167 -121.5 -171.5v-661l163 -13v-88h-445v88l163 13v1357zM748.999 1612v-18h-112l-167 168l-166 -168h-109v21l226 221h98z" />
    <glyph glyph-name="Hbar" unicode="&#x126;" horiz-adv-x="1486" 
d="M1437 1456v-89l-163 -13v-264h134v-97h-134v-892l163 -13v-88h-445v88l163 13v569h-828v-569l163 -13v-88h-445v88l163 13v892h-159v97h159v264l-163 13v89h445v-89l-163 -13v-264h828v264l-163 13v89h163h119h163zM327 772h828v221h-828v-221z" />
    <glyph glyph-name="hbar" unicode="&#x127;" horiz-adv-x="1328" 
d="M81 1209l-0.000976562 102.001h174v147l-163 13v89h282v-249h319v-102h-319v-312c36 64.667 84 115 144 151s130 54 210 54c114 0 201.5 -35.333 262.5 -106s91.5 -180.334 91.5 -329.001v-566l163 -13v-88h-446v88l163 13v568c0 117.333 -23.167 201.5 -69.5 252.5
s-110.166 76.5 -191.499 76.5c-82 0 -150.5 -21.5 -205.5 -64.5s-95.5 -100.167 -121.5 -171.5v-661l163 -13v-88h-445v88l163 13v1108h-174z" />
    <glyph glyph-name="Itilde" unicode="&#x128;" horiz-adv-x="627" 
d="M91 1367v89h446v-89l-163 -13v-1253l163 -13v-88h-446v88l163 13v1253zM665 1821c0 -58.667 -18.334 -107.333 -55.001 -146s-82.334 -58 -137.001 -58c-49.333 0 -99.666 18.333 -150.999 55s-95 55 -131 55c-31.333 0 -57.666 -11.667 -78.999 -35s-32 -53 -32 -89
l-79 18c0 57.333 17.833 105.5 53.5 144.5s81.167 58.5 136.5 58.5c43.333 0 92.5 -18.333 147.5 -55s99.833 -55 134.5 -55c30.667 0 57 12 79 36s33 54.333 33 91z" />
    <glyph glyph-name="itilde" unicode="&#x129;" horiz-adv-x="637" 
d="M90 993v89h282v-981l163 -13v-88h-445v88l163 13v879zM657 1487c0 -58.667 -18.334 -107.333 -55.001 -146s-82.334 -58 -137.001 -58c-49.333 0 -99.666 18.333 -150.999 55s-95 55 -131 55c-31.333 0 -57.666 -11.667 -78.999 -35s-32 -53 -32 -89l-79 18
c0 57.333 17.833 105.5 53.5 144.5s81.167 58.5 136.5 58.5c43.333 0 92.5 -18.333 147.5 -55s99.833 -55 134.5 -55c30.667 0 57 12 79 36s33 54.333 33 91z" />
    <glyph glyph-name="Imacron" unicode="&#x12a;" horiz-adv-x="627" 
d="M91 1367v89h446v-89l-163 -13v-1253l163 -13v-88h-446v88l163 13v1253zM662 1693h-670v97h670v-97z" />
    <glyph glyph-name="imacron" unicode="&#x12b;" horiz-adv-x="637" 
d="M90 993v89h282v-981l163 -13v-88h-445v88l163 13v879zM654 1359h-670v97h670v-97z" />
    <glyph glyph-name="Ibreve" unicode="&#x12c;" horiz-adv-x="627" 
d="M91 1367v89h446v-89l-163 -13v-1253l163 -13v-88h-446v88l163 13v1253zM598 1834l1.99707 -6.00195c2.66699 -74 -21.666 -134.5 -72.999 -181.5s-121 -70.5 -209 -70.5c-89.333 0 -159.666 23.333 -210.999 70s-75.333 107.334 -72 182.001l2 6h94
c0 -51.333 15 -92.666 45 -123.999s77.333 -47 142 -47c62.667 0 109.334 16 140.001 48s46 73 46 123h94z" />
    <glyph glyph-name="ibreve" unicode="&#x12d;" horiz-adv-x="637" 
d="M90 993v89h282v-981l163 -13v-88h-445v88l163 13v879zM590 1500l1.99707 -6.00195c2.66699 -74 -21.666 -134.5 -72.999 -181.5s-121 -70.5 -209 -70.5c-89.333 0 -159.666 23.333 -210.999 70s-75.333 107.334 -72 182.001l2 6h94c0 -51.333 15 -92.666 45 -123.999
s77.333 -47 142 -47c62.667 0 109.334 16 140.001 48s46 73 46 123h94z" />
    <glyph glyph-name="Iogonek" unicode="&#x12e;" horiz-adv-x="627" 
d="M91 1367v89h446v-89l-163 -13v-1253l163 -13v-88h-446v88l163 13v1253zM537 0c-48 -40 -84.668 -76.001 -110.001 -108.001s-38 -66.667 -38 -104c0 -20.667 6.33301 -40 19 -58s36 -27 70 -27c21.333 0 40.166 3 56.499 9s32.5 13.667 48.5 23l24 -83
c-19.333 -12.667 -41.166 -23.167 -65.499 -31.5s-53.166 -12.5 -86.499 -12.5c-50.667 0 -92.167 14.833 -124.5 44.5s-48.5 71.167 -48.5 124.5c0 46.667 17 92.834 51 138.501s81.667 86.167 143 121.5z" />
    <glyph glyph-name="iogonek" unicode="&#x12f;" horiz-adv-x="638" 
d="M89 88l163 13v879l-163 13v89h282v-981l163 -13v-88h-445v88zM371 1392h-119v168h119v-168zM534 0c-48 -40 -84.668 -76.001 -110.001 -108.001s-38 -66.667 -38 -104c0 -20.667 6.33301 -40 19 -58s36 -27 70 -27c21.333 0 40.166 3 56.499 9s32.5 13.667 48.5 23
l24 -83c-19.333 -12.667 -41.166 -23.167 -65.499 -31.5s-53.166 -12.5 -86.499 -12.5c-50.667 0 -92.167 14.833 -124.5 44.5s-48.5 71.167 -48.5 124.5c0 46.667 17 92.834 51 138.501s81.667 86.167 143 121.5z" />
    <glyph glyph-name="Idotaccent" unicode="&#x130;" horiz-adv-x="627" 
d="M91 1367v89h446v-89l-163 -13v-1253l163 -13v-88h-446v88l163 13v1253zM393 1621h-151v168h151v-168z" />
    <glyph glyph-name="dotlessi" unicode="&#x131;" horiz-adv-x="637" 
d="M90 993v89h282v-981l163 -13v-88h-445v88l163 13v879z" />
    <glyph glyph-name="IJ" unicode="&#x132;" horiz-adv-x="1785" 
d="M91 1367v89h446v-89l-163 -13v-1253l163 -13v-88h-446v88l163 13v1253zM1707 1456v-89l-163 -13v-941c0 -132.667 -39.5 -238.167 -118.5 -316.5s-181.167 -117.5 -306.5 -117.5c-136.667 0 -244.667 35.333 -324 106s-117.333 174 -114 310l2 6h112
c0 -105.333 28 -185.166 84 -239.499s136 -81.5 240 -81.5c88.667 0 161.667 30.167 219 90.5s86 141.166 86 242.499v941l-163 13v89h283h163z" />
    <glyph glyph-name="ij" unicode="&#x133;" horiz-adv-x="1200" 
d="M89 88l163 13v879l-163 13v89h282v-981l163 -13v-88h-445v88zM371 1392h-119v168h119v-168zM1040 -89c0 -111.333 -26.666 -197.168 -79.999 -257.501s-127.666 -90.5 -222.999 -90.5c-20.667 0 -39.834 1.66699 -57.501 5s-35.834 8 -54.501 14l13 101
c10 -3.33301 24.167 -6.66602 42.5 -9.99902s34.833 -5 49.5 -5c60 0 106.667 20.5 140 61.5s50 101.5 50 181.5v1069l-163 13v89h283v-1171zM1034 1396h-120v164h120v-164z" />
    <glyph glyph-name="Jcircumflex" unicode="&#x134;" horiz-adv-x="1158" 
d="M1080 1456v-89l-163 -13v-941c0 -132.667 -39.5 -238.167 -118.5 -316.5s-181.167 -117.5 -306.5 -117.5c-136.667 0 -244.667 35.333 -324 106s-117.333 174 -114 310l2 6h112c0 -105.333 28 -185.166 84 -239.499s136 -81.5 240 -81.5
c88.667 0 161.667 30.167 219 90.5s86 141.166 86 242.499v941l-163 13v89h283h163zM1150 1591v-18h-112l-167 168l-166 -168h-109v21l226 221h98z" />
    <glyph glyph-name="jcircumflex" unicode="&#x135;" horiz-adv-x="570" 
d="M411 -89c0 -111.333 -26.667 -197.166 -80 -257.499s-127.666 -90.5 -222.999 -90.5c-20.667 0 -39.834 1.66699 -57.501 5s-35.834 8 -54.501 14l13 99c10 -4 25.333 -7.66699 46 -11s38.334 -5 53.001 -5c58 0 103 21.667 135 65s48 103.666 48 180.999v1069l-163 13
v89h283v-1171zM630 1268v-18h-112l-167 168l-166 -168h-109v21l226 221h98z" />
    <glyph glyph-name="Kcommaaccent" unicode="&#x136;" horiz-adv-x="1417" 
d="M71 88l163 13v1253l-163 13v89h445v-89l-163 -13v-568h199l490 573l-140 8v89h407v-89l-128 -12l-521 -615l562 -640l131 -12v-88h-415v88l138 8l-523 589h-200v-584l163 -13v-88h-445v88zM705 -240c0 -58 -11 -114.333 -33 -169s-52.667 -100.667 -92 -138l-71 51
c27.333 40.667 47.5 81 60.5 121s19.5 84 19.5 132v109h116v-106z" />
    <glyph glyph-name="kcommaaccent" unicode="&#x137;" horiz-adv-x="1194" 
d="M62 1471v89h282v-930h127l329 351l-2 5l-99 7v89h381v-89l-126 -12l-370 -393l421 -489l120 -11v-88h-380v88l114 7l-376 432h-139v-426l163 -13v-88h-445v88l163 13v1357zM616 -231c0 -58 -11 -114.333 -33 -169s-52.667 -100.667 -92 -138l-71 51
c27.333 40.667 47.5 81 60.5 121s19.5 84 19.5 132v109h116v-106z" />
    <glyph glyph-name="kgreenlandic" unicode="&#x138;" horiz-adv-x="1202" 
d="M62 88l163 13v878l-159 14v88h278v-451h127l340 351l-2 5l-97 7v89h382v-89l-127 -12l-382 -394l420 -488l120 -11v-88h-183l-459 527h-139v-426l163 -13v-88h-445v88z" />
    <glyph glyph-name="Lacute" unicode="&#x139;" horiz-adv-x="1178" 
d="M71 0v88l163 13v1253l-163 13v89h163h120h163v-89l-163 -13v-1253h605l9 205h106v-306h-1003zM403 1782h147l3 -6l-249 -260h-107z" />
    <glyph glyph-name="lacute" unicode="&#x13a;" horiz-adv-x="610" 
d="M73 1471v89h282v-1459l163 -13v-88h-445v88l163 13v1357zM400 1879h147l3 -6l-249 -260h-107z" />
    <glyph glyph-name="Lcommaaccent" unicode="&#x13b;" horiz-adv-x="1178" 
d="M71 0v88l163 13v1253l-163 13v89h163h120h163v-89l-163 -13v-1253h605l9 205h106v-306h-1003zM695 -231c0 -58 -11 -114.333 -33 -169s-52.667 -100.667 -92 -138l-71 51c27.333 40.667 47.5 81 60.5 121s19.5 84 19.5 132v109h116v-106z" />
    <glyph glyph-name="lcommaaccent" unicode="&#x13c;" horiz-adv-x="610" 
d="M73 1471v89h282v-1459l163 -13v-88h-445v88l163 13v1357zM349 -236c0 -58 -11 -114.333 -33 -169s-52.667 -100.667 -92 -138l-71 51c27.333 40.667 47.5 81 60.5 121s19.5 84 19.5 132v109h116v-106z" />
    <glyph glyph-name="Lcaron" unicode="&#x13d;" horiz-adv-x="1178" 
d="M71 0v88l163 13v1253l-163 13v89h163h120h163v-89l-163 -13v-1253h605l9 205h106v-306h-1003zM743 1350c0 -58 -11 -114.333 -33 -169s-52.667 -100.667 -92 -138l-71 51c27.333 40.667 47.5 81 60.5 121s19.5 84 19.5 132v109h116v-106z" />
    <glyph glyph-name="lcaron" unicode="&#x13e;" horiz-adv-x="760" 
d="M73 1471v89h282v-1459l163 -13v-88h-445v88l163 13v1357zM618 1453c0 -58 -11 -114.333 -33 -169s-52.667 -100.667 -92 -138l-71 51c27.333 40.667 47.5 81 60.5 121s19.5 84 19.5 132v109h116v-106z" />
    <glyph glyph-name="Ldot" unicode="&#x13f;" horiz-adv-x="1178" 
d="M71 0v88l163 13v1253l-163 13v89h163h120h163v-89l-163 -13v-1253h605l9 205h106v-306h-1003zM764 687h-151v168h151v-168z" />
    <glyph glyph-name="ldot" unicode="&#x140;" horiz-adv-x="830" 
d="M73 1471v89h282v-1459l163 -13v-88h-445v88l163 13v1357zM610 700h-151v168h151v-168z" />
    <glyph glyph-name="Lslash" unicode="&#x141;" horiz-adv-x="1179" 
d="M517 1456v-89l-163 -13v-542l306 97v-108l-306 -97v-603h605l9 205h106v-306h-1003v88l163 13v565l-163 -52v108l163 52v580l-163 13v89h283h163z" />
    <glyph glyph-name="lslash" unicode="&#x142;" horiz-adv-x="579" 
d="M344 856l187 74v-109l-187 -74v-646l163 -13v-88h-445v88l163 13v599l-168 -66v109l168 66v649l-163 13v89h282v-704z" />
    <glyph glyph-name="Nacute" unicode="&#x143;" horiz-adv-x="1536" 
d="M1469 1456v-89l-163 -13v-1354h-119l-827 1252l-6 -1v-1150l163 -13v-88h-446v88l163 13v1253l-163 13v89h163h120l827 -1250l6 1v1147l-163 13v89h282h163zM847 1818h147l3 -6l-249 -260h-107z" />
    <glyph glyph-name="nacute" unicode="&#x144;" horiz-adv-x="1319" 
d="M75 88l163 12.999v879l-163 13v89h269l11 -189c34.667 66.667 81.5 118.167 140.5 154.5s128.833 54.5 209.5 54.5c117.333 0 206.666 -35.833 267.999 -107.5s92 -183.5 92 -335.5v-558l163 -13v-88h-446v88l163 13v557c0 124 -23.167 211.667 -69.5 263
s-112.166 77 -197.499 77c-84 0 -152.5 -22.167 -205.5 -66.5s-91.167 -103.166 -114.5 -176.499v-654l163 -13v-88h-446v88zM761 1494h147l3 -6l-249 -260h-107z" />
    <glyph glyph-name="Ncommaaccent" unicode="&#x145;" horiz-adv-x="1536" 
d="M1469 1456v-89l-163 -13v-1354h-119l-827 1252l-6 -1v-1150l163 -13v-88h-446v88l163 13v1253l-163 13v89h163h120l827 -1250l6 1v1147l-163 13v89h282h163zM795 -231c0 -58 -11 -114.333 -33 -169s-52.667 -100.667 -92 -138l-71 51c27.333 40.667 47.5 81 60.5 121
s19.5 84 19.5 132v109h116v-106z" />
    <glyph glyph-name="ncommaaccent" unicode="&#x146;" horiz-adv-x="1319" 
d="M75 88l163 12.999v879l-163 13v89h269l11 -189c34.667 66.667 81.5 118.167 140.5 154.5s128.833 54.5 209.5 54.5c117.333 0 206.666 -35.833 267.999 -107.5s92 -183.5 92 -335.5v-558l163 -13v-88h-446v88l163 13v557c0 124 -23.167 211.667 -69.5 263
s-112.166 77 -197.499 77c-84 0 -152.5 -22.167 -205.5 -66.5s-91.167 -103.166 -114.5 -176.499v-654l163 -13v-88h-446v88zM700 -234.001c0 -58 -11 -114.333 -33 -169s-52.667 -100.667 -92 -138l-71 51c27.333 40.667 47.5 81 60.5 121s19.5 84 19.5 132v109h116v-106z
" />
    <glyph glyph-name="Ncaron" unicode="&#x147;" horiz-adv-x="1536" 
d="M1469 1456v-89l-163 -13v-1354h-119l-827 1252l-6 -1v-1150l163 -13v-88h-446v88l163 13v1253l-163 13v89h163h120l827 -1250l6 1v1147l-163 13v89h282h163zM736 1652l167 169h115v-17l-233 -225h-98l-231 225v17h114z" />
    <glyph glyph-name="ncaron" unicode="&#x148;" horiz-adv-x="1319" 
d="M75 88l163 12.999v879l-163 13v89h269l11 -189c34.667 66.667 81.5 118.167 140.5 154.5s128.833 54.5 209.5 54.5c117.333 0 206.666 -35.833 267.999 -107.5s92 -183.5 92 -335.5v-558l163 -13v-88h-446v88l163 13v557c0 124 -23.167 211.667 -69.5 263
s-112.166 77 -197.499 77c-84 0 -152.5 -22.167 -205.5 -66.5s-91.167 -103.166 -114.5 -176.499v-654l163 -13v-88h-446v88zM650 1328l167 169h115v-17l-233 -225h-98l-231 225v17h114z" />
    <glyph glyph-name="napostrophe" unicode="&#x149;" horiz-adv-x="1319" 
d="M75 88l163 12.999v879l-163 13v89h269l11 -189c34.667 66.667 81.5 118.167 140.5 154.5s128.833 54.5 209.5 54.5c117.333 0 206.666 -35.833 267.999 -107.5s92 -183.5 92 -335.5v-558l163 -13v-88h-446v88l163 13v557c0 124 -23.167 211.667 -69.5 263
s-112.166 77 -197.499 77c-84 0 -152.5 -22.167 -205.5 -66.5s-91.167 -103.166 -114.5 -176.499v-654l163 -13v-88h-446v88zM178 1451c0 -58 -11 -114.333 -33 -169s-52.667 -100.667 -92 -138l-71 51c27.333 40.667 47.5 81 60.5 121s19.5 84 19.5 132v109h116v-106z" />
    <glyph glyph-name="Eng" unicode="&#x14a;" horiz-adv-x="1547" 
d="M70 1367l-0.00195312 88.999h282l828 -1245l6 1v1142l-163 13v89h163h120h163v-89l-163 -13v-1443c0 -111.333 -26.833 -197.166 -80.5 -257.499s-128.167 -90.5 -223.5 -90.5c-20.667 0 -39.667 1.66699 -57 5s-35.666 8 -54.999 14l13 99
c10 -3.33301 25.333 -6.83301 46 -10.5s38.334 -5.5 53.001 -5.5c58 0 103.167 21.5 135.5 64.5s48.5 103.5 48.5 181.5v89l-828 1246l-6 -1v-1144l163 -13v-88h-445v88l163 13v1253z" />
    <glyph glyph-name="eng" unicode="&#x14b;" horiz-adv-x="1242" 
d="M90 993l0.00195312 88.998h269l10 -185c35.333 64.667 82.166 115 140.499 151s127.166 54 206.499 54c117.333 0 206.666 -35.667 267.999 -107s92 -183.333 92 -336v-748c0 -111.333 -26.833 -197.166 -80.5 -257.499s-128.167 -90.5 -223.5 -90.5
c-22.667 0 -43.5 1.66699 -62.5 5s-39.167 8 -60.5 14l13 103c10.667 -3.33301 27.5 -6.66602 50.5 -9.99902s42.833 -5 59.5 -5c58.667 0 104 20.833 136 62.5s48 101.167 48 178.5v747c0 124 -23.167 211.667 -69.5 263s-112.166 77 -197.499 77
c-83.333 0 -151 -20.167 -203 -60.5s-90 -94.833 -114 -163.5v-673l163 -13v-88h-445v88l163 13v879z" />
    <glyph glyph-name="Omacron" unicode="&#x14c;" horiz-adv-x="1468" 
d="M1357 718c0 -218.667 -58.332 -396.5 -174.999 -533.5s-268.334 -205.5 -455.001 -205.5c-184 0 -333.5 68.667 -448.5 206s-172.5 315 -172.5 533v19c0 218 57.333 395.833 172 533.5s264 206.5 448 206.5c186.667 0 338.5 -68.833 455.5 -206.5
s175.5 -315.5 175.5 -533.5v-19zM1237 739c0 188.667 -46 341.334 -138 458.001s-216.333 175 -373 175c-154 0 -275.833 -58.333 -365.5 -175s-134.5 -269.334 -134.5 -458.001v-21c0 -190 45 -343.333 135 -460s212 -175 366 -175c158 0 282.5 58.167 373.5 174.5
s136.5 269.833 136.5 460.5v21zM1069 1704h-670v97h670v-97z" />
    <glyph glyph-name="omacron" unicode="&#x14d;" horiz-adv-x="1152" 
d="M97 557c0 159.333 43.666 290 130.999 392s203 153 347 153c144.667 0 260.667 -51 348 -153s131 -232.667 131 -392v-33c0 -160 -43.5 -290.833 -130.5 -392.5s-202.5 -152.5 -346.5 -152.5c-145.333 0 -261.666 50.833 -348.999 152.5s-131 232.5 -131 392.5v33z
M216.999 524c0 -125.333 31.6689 -230.666 95.002 -315.999s151.666 -128 264.999 -128c111.333 0 198.666 42.667 261.999 128s95 190.666 95 315.999v33c0 123.333 -31.833 228 -95.5 314s-151.5 129 -263.5 129s-199.667 -43 -263 -129s-95 -190.667 -95 -314v-33z
M918.001 1370h-670v97h670v-97z" />
    <glyph glyph-name="Obreve" unicode="&#x14e;" horiz-adv-x="1468" 
d="M1357 718c0 -218.667 -58.332 -396.5 -174.999 -533.5s-268.334 -205.5 -455.001 -205.5c-184 0 -333.5 68.667 -448.5 206s-172.5 315 -172.5 533v19c0 218 57.333 395.833 172 533.5s264 206.5 448 206.5c186.667 0 338.5 -68.833 455.5 -206.5
s175.5 -315.5 175.5 -533.5v-19zM1237 739c0 188.667 -46 341.334 -138 458.001s-216.333 175 -373 175c-154 0 -275.833 -58.333 -365.5 -175s-134.5 -269.334 -134.5 -458.001v-21c0 -190 45 -343.333 135 -460s212 -175 366 -175c158 0 282.5 58.167 373.5 174.5
s136.5 269.833 136.5 460.5v21zM1005 1845l1.99707 -6.00195c2.66699 -74 -21.666 -134.5 -72.999 -181.5s-121 -70.5 -209 -70.5c-89.333 0 -159.666 23.333 -210.999 70s-75.333 107.334 -72 182.001l2 6h94c0 -51.333 15 -92.666 45 -123.999s77.333 -47 142 -47
c62.667 0 109.334 16 140.001 48s46 73 46 123h94z" />
    <glyph glyph-name="obreve" unicode="&#x14f;" horiz-adv-x="1152" 
d="M97 557c0 159.333 43.666 290 130.999 392s203 153 347 153c144.667 0 260.667 -51 348 -153s131 -232.667 131 -392v-33c0 -160 -43.5 -290.833 -130.5 -392.5s-202.5 -152.5 -346.5 -152.5c-145.333 0 -261.666 50.833 -348.999 152.5s-131 232.5 -131 392.5v33z
M216.999 524c0 -125.333 31.6689 -230.666 95.002 -315.999s151.666 -128 264.999 -128c111.333 0 198.666 42.667 261.999 128s95 190.666 95 315.999v33c0 123.333 -31.833 228 -95.5 314s-151.5 129 -263.5 129s-199.667 -43 -263 -129s-95 -190.667 -95 -314v-33z
M854.001 1511l1.99707 -6.00195c2.66699 -74 -21.666 -134.5 -72.999 -181.5s-121 -70.5 -209 -70.5c-89.333 0 -159.666 23.333 -210.999 70s-75.333 107.334 -72 182.001l2 6h94c0 -51.333 15 -92.666 45 -123.999s77.333 -47 142 -47c62.667 0 109.334 16 140.001 48
s46 73 46 123h94z" />
    <glyph glyph-name="Ohungarumlaut" unicode="&#x150;" horiz-adv-x="1468" 
d="M1357 718c0 -218.667 -58.332 -396.5 -174.999 -533.5s-268.334 -205.5 -455.001 -205.5c-184 0 -333.5 68.667 -448.5 206s-172.5 315 -172.5 533v19c0 218 57.333 395.833 172 533.5s264 206.5 448 206.5c186.667 0 338.5 -68.833 455.5 -206.5
s175.5 -315.5 175.5 -533.5v-19zM1237 739c0 188.667 -46 341.334 -138 458.001s-216.333 175 -373 175c-154 0 -275.833 -58.333 -365.5 -175s-134.5 -269.334 -134.5 -458.001v-21c0 -190 45 -343.333 135 -460s212 -175 366 -175c158 0 282.5 58.167 373.5 174.5
s136.5 269.833 136.5 460.5v21zM1009 1877h144l2 -6l-295 -260h-114l-2 6zM713.001 1877h133l3 -6l-244 -260h-102l-3 5z" />
    <glyph glyph-name="ohungarumlaut" unicode="&#x151;" horiz-adv-x="1152" 
d="M97 557c0 159.333 43.666 290 130.999 392s203 153 347 153c144.667 0 260.667 -51 348 -153s131 -232.667 131 -392v-33c0 -160 -43.5 -290.833 -130.5 -392.5s-202.5 -152.5 -346.5 -152.5c-145.333 0 -261.666 50.833 -348.999 152.5s-131 232.5 -131 392.5v33z
M216.999 524c0 -125.333 31.6689 -230.666 95.002 -315.999s151.666 -128 264.999 -128c111.333 0 198.666 42.667 261.999 128s95 190.666 95 315.999v33c0 123.333 -31.833 228 -95.5 314s-151.5 129 -263.5 129s-199.667 -43 -263 -129s-95 -190.667 -95 -314v-33z
M858.001 1543h144l2 -6l-295 -260h-114l-2 6zM562.001 1543h133l3 -6l-244 -260h-102l-3 5z" />
    <glyph glyph-name="OE" unicode="&#x152;" horiz-adv-x="1971" 
d="M963 0c-66 -6.66699 -122.167 -11.835 -168.5 -15.502s-93.833 -5.5 -142.5 -5.5c-160 0 -289.667 55.333 -389 166s-149 254.334 -149 431.001v304c0 176.667 49.5 320.334 148.5 431.001s228.167 166 387.5 166c50 0 100.5 -2 151.5 -6s104.833 -9 161.5 -15h889v-320
h-106l-9 218h-683v-547h597v-102h-597v-604h688l9 218h106v-319h-894zM652 80.999c19.333 0 39.167 0.167969 59.5 0.500977s40.5 1.16602 60.5 2.49902v4l163 13v1253l-163 13v5l-61 2c-20.667 0.666992 -41 1 -61 1c-128 0 -229.333 -44 -304 -132
s-112 -208.333 -112 -361v-306c0 -152 37.833 -272.5 113.5 -361.5s177.167 -133.5 304.5 -133.5z" />
    <glyph glyph-name="oe" unicode="&#x153;" horiz-adv-x="1916" 
d="M104 557c0 159.333 43.5 289.999 130.5 391.999s202.5 153 346.5 153c97.333 0 182.5 -24.167 255.5 -72.5s129.167 -114.833 168.5 -199.5c39.333 83.333 94.666 149.5 165.999 198.5s149.333 73.5 234 73.5c132.667 0 237 -42 313 -126s114 -196 114 -336v-102h-764
v-29c0 -122 32.333 -224 97 -306s149.667 -123 255 -123c74.667 0 138.334 10.333 191.001 31s97.667 50.334 135 89.001l51 -82c-40.667 -42.667 -92.167 -76.5 -154.5 -101.5s-136.5 -37.5 -222.5 -37.5c-92 0 -174.667 24 -248 72s-129.666 113.667 -168.999 197
c-38.667 -84 -94.334 -149.833 -167.001 -197.5s-157 -71.5 -253 -71.5c-144.667 0 -260.667 50.833 -348 152.5s-131 232.5 -131 392.5v33zM223 523.999c0 -125.333 31.668 -230.666 95.001 -315.999s151.666 -128 264.999 -128c111.333 0 198.833 42.667 262.5 128
s95.5 190.666 95.5 315.999v33c0 123.333 -32 228 -96 314s-152 129 -264 129s-199.667 -43 -263 -129s-95 -190.667 -95 -314v-33zM1405 999.999c-88 0 -162.167 -33.833 -222.5 -101.5s-95.5 -152.5 -105.5 -254.5l2 -5h634v30c0 94 -27.667 172.667 -83 236
s-130.333 95 -225 95z" />
    <glyph glyph-name="Racute" unicode="&#x154;" horiz-adv-x="1374" 
d="M676 1455c156 0 275.833 -34 359.5 -102s125.5 -166.333 125.5 -295c0 -76 -22.333 -144.333 -67 -205s-107.667 -104.667 -189 -132c90 -22.667 154.833 -63.167 194.5 -121.5s59.5 -131.833 59.5 -220.5v-133c0 -51.333 8 -89.333 24 -114s40.333 -38 73 -40l49 -3v-89
h-76c-70.667 0 -120 24 -148 72s-42 106.667 -42 176v129c0 88 -28.167 157.833 -84.5 209.5s-134.833 78.5 -235.5 80.5h-366v-566l163 -14v-87h-445v87l163 14v1252l-163 14v88h605zM353 769l309 0.000976562c131.333 0 227.333 26.333 288 79s91 123 91 211
c0 93.333 -30.333 165.666 -91 216.999s-152 77 -274 77h-323v-584zM733 1818h147l3 -6l-249 -260h-107z" />
    <glyph glyph-name="racute" unicode="&#x155;" horiz-adv-x="823" 
d="M356 1082l15.001 -180.001v-13c30.667 66.667 72.5 118.834 125.5 156.501s115.833 56.5 188.5 56.5c15.333 0 30.166 -1.16699 44.499 -3.5s26.166 -4.83301 35.499 -7.5l-16 -112l-89 6c-75.333 0 -137.166 -21.167 -185.499 -63.5s-82.833 -100.5 -103.5 -174.5v-646
l163 -13v-88h-445v88l163 13v879l-163 13v89h163h104zM545.001 1496h147l3 -6l-249 -260h-107z" />
    <glyph glyph-name="Rcommaaccent" unicode="&#x156;" horiz-adv-x="1374" 
d="M676 1455c156 0 275.833 -34 359.5 -102s125.5 -166.333 125.5 -295c0 -76 -22.333 -144.333 -67 -205s-107.667 -104.667 -189 -132c90 -22.667 154.833 -63.167 194.5 -121.5s59.5 -131.833 59.5 -220.5v-133c0 -51.333 8 -89.333 24 -114s40.333 -38 73 -40l49 -3v-89
h-76c-70.667 0 -120 24 -148 72s-42 106.667 -42 176v129c0 88 -28.167 157.833 -84.5 209.5s-134.833 78.5 -235.5 80.5h-366v-566l163 -14v-87h-445v87l163 14v1252l-163 14v88h605zM353 769l309 0.000976562c131.333 0 227.333 26.333 288 79s91 123 91 211
c0 93.333 -30.333 165.666 -91 216.999s-152 77 -274 77h-323v-584zM725 -230.999c0 -58 -11 -114.333 -33 -169s-52.667 -100.667 -92 -138l-71 51c27.333 40.667 47.5 81 60.5 121s19.5 84 19.5 132v109h116v-106z" />
    <glyph glyph-name="rcommaaccent" unicode="&#x157;" horiz-adv-x="823" 
d="M356 1082l15.001 -180.001v-13c30.667 66.667 72.5 118.834 125.5 156.501s115.833 56.5 188.5 56.5c15.333 0 30.166 -1.16699 44.499 -3.5s26.166 -4.83301 35.499 -7.5l-16 -112l-89 6c-75.333 0 -137.166 -21.167 -185.499 -63.5s-82.833 -100.5 -103.5 -174.5v-646
l163 -13v-88h-445v88l163 13v879l-163 13v89h163h104zM347.001 -227.001c0 -58 -11 -114.333 -33 -169s-52.667 -100.667 -92 -138l-71 51c27.333 40.667 47.5 81 60.5 121s19.5 84 19.5 132v109h116v-106z" />
    <glyph glyph-name="Rcaron" unicode="&#x158;" horiz-adv-x="1374" 
d="M676 1455c156 0 275.833 -34 359.5 -102s125.5 -166.333 125.5 -295c0 -76 -22.333 -144.333 -67 -205s-107.667 -104.667 -189 -132c90 -22.667 154.833 -63.167 194.5 -121.5s59.5 -131.833 59.5 -220.5v-133c0 -51.333 8 -89.333 24 -114s40.333 -38 73 -40l49 -3v-89
h-76c-70.667 0 -120 24 -148 72s-42 106.667 -42 176v129c0 88 -28.167 157.833 -84.5 209.5s-134.833 78.5 -235.5 80.5h-366v-566l163 -14v-87h-445v87l163 14v1252l-163 14v88h605zM353 769l309 0.000976562c131.333 0 227.333 26.333 288 79s91 123 91 211
c0 93.333 -30.333 165.666 -91 216.999s-152 77 -274 77h-323v-584zM622 1652l167 169h115v-17l-233 -225h-98l-231 225v17h114z" />
    <glyph glyph-name="rcaron" unicode="&#x159;" horiz-adv-x="823" 
d="M356 1082l15.001 -180.001v-13c30.667 66.667 72.5 118.834 125.5 156.501s115.833 56.5 188.5 56.5c15.333 0 30.166 -1.16699 44.499 -3.5s26.166 -4.83301 35.499 -7.5l-16 -112l-89 6c-75.333 0 -137.166 -21.167 -185.499 -63.5s-82.833 -100.5 -103.5 -174.5v-646
l163 -13v-88h-445v88l163 13v879l-163 13v89h163h104zM434.001 1330l167 169h115v-17l-233 -225h-98l-231 225v17h114z" />
    <glyph glyph-name="Sacute" unicode="&#x15a;" horiz-adv-x="1220" 
d="M1099 1024l-98.002 0.00195312l-17 206c-36 45.333 -85 80.833 -147 106.5s-134.667 38.5 -218 38.5c-120 0 -213.5 -26 -280.5 -78s-100.5 -116.667 -100.5 -194c0 -73.333 30.167 -134.5 90.5 -183.5s164.833 -92.167 313.5 -129.5
c156.667 -40 275.834 -94 357.501 -162s122.5 -157.667 122.5 -269c0 -116 -47.333 -208.333 -142 -277s-215.667 -103 -363 -103c-104 0 -200.5 18.333 -289.5 55s-161.833 89 -218.5 157v255h98l17 -213c44 -50 100.333 -88 169 -114s143.334 -39 224.001 -39
c114.667 0 207.5 25.333 278.5 76s106.5 117.667 106.5 201c0 79.333 -29.667 144.166 -89 194.499s-162.666 94.833 -309.999 133.5c-159.333 40 -280 92 -362 156s-123 150.333 -123 259c0 111.333 46.667 202 140 272s213.666 105 360.999 105
c106 0 200.5 -18.333 283.5 -55s148.5 -86.334 196.5 -149.001v-249zM732.998 1828h147l3 -6l-249 -260h-107z" />
    <glyph glyph-name="sacute" unicode="&#x15b;" horiz-adv-x="1025" 
d="M882 748l-98 0.00390625l-14 153c-30 31.333 -67.833 55.666 -113.5 72.999s-98.167 26 -157.5 26c-87.333 0 -152.833 -18.833 -196.5 -56.5s-65.5 -81.834 -65.5 -132.501c0 -50 18.833 -91.333 56.5 -124s112.834 -61.334 225.501 -86.001
c128.667 -28.667 225 -67.834 289 -117.501s96 -117.167 96 -202.5c0 -90 -36.5 -162.833 -109.5 -218.5s-169.5 -83.5 -289.5 -83.5c-80 0 -152.833 11.167 -218.5 33.5s-122.5 53.833 -170.5 94.5v218h97l17 -154c32 -32 72.5 -55.167 121.5 -69.5
s100.167 -21.5 153.5 -21.5c86.667 0 155 19 205 57s75 84 75 138c0 50.667 -20.833 95 -62.5 133s-116.834 69 -225.501 93c-128.667 28 -224.167 65.167 -286.5 111.5s-93.5 111.166 -93.5 194.499c0 82.667 35 152.5 105 209.5s162.333 85.5 277 85.5
c79.333 0 151.833 -12.167 217.5 -36.5s119.167 -57.166 160.5 -98.499zM630 1496h147l3 -6l-249 -260h-107z" />
    <glyph glyph-name="Scircumflex" unicode="&#x15c;" horiz-adv-x="1220" 
d="M1099 1024l-98.002 0.00195312l-17 206c-36 45.333 -85 80.833 -147 106.5s-134.667 38.5 -218 38.5c-120 0 -213.5 -26 -280.5 -78s-100.5 -116.667 -100.5 -194c0 -73.333 30.167 -134.5 90.5 -183.5s164.833 -92.167 313.5 -129.5
c156.667 -40 275.834 -94 357.501 -162s122.5 -157.667 122.5 -269c0 -116 -47.333 -208.333 -142 -277s-215.667 -103 -363 -103c-104 0 -200.5 18.333 -289.5 55s-161.833 89 -218.5 157v255h98l17 -213c44 -50 100.333 -88 169 -114s143.334 -39 224.001 -39
c114.667 0 207.5 25.333 278.5 76s106.5 117.667 106.5 201c0 79.333 -29.667 144.166 -89 194.499s-162.666 94.833 -309.999 133.5c-159.333 40 -280 92 -362 156s-123 150.333 -123 259c0 111.333 46.667 202 140 272s213.666 105 360.999 105
c106 0 200.5 -18.333 283.5 -55s148.5 -86.334 196.5 -149.001v-249zM902.998 1623v-18h-112l-167 168l-166 -168h-109v21l226 221h98z" />
    <glyph glyph-name="scircumflex" unicode="&#x15d;" horiz-adv-x="1025" 
d="M882 748l-98 0.00390625l-14 153c-30 31.333 -67.833 55.666 -113.5 72.999s-98.167 26 -157.5 26c-87.333 0 -152.833 -18.833 -196.5 -56.5s-65.5 -81.834 -65.5 -132.501c0 -50 18.833 -91.333 56.5 -124s112.834 -61.334 225.501 -86.001
c128.667 -28.667 225 -67.834 289 -117.501s96 -117.167 96 -202.5c0 -90 -36.5 -162.833 -109.5 -218.5s-169.5 -83.5 -289.5 -83.5c-80 0 -152.833 11.167 -218.5 33.5s-122.5 53.833 -170.5 94.5v218h97l17 -154c32 -32 72.5 -55.167 121.5 -69.5
s100.167 -21.5 153.5 -21.5c86.667 0 155 19 205 57s75 84 75 138c0 50.667 -20.833 95 -62.5 133s-116.834 69 -225.501 93c-128.667 28 -224.167 65.167 -286.5 111.5s-93.5 111.166 -93.5 194.499c0 82.667 35 152.5 105 209.5s162.333 85.5 277 85.5
c79.333 0 151.833 -12.167 217.5 -36.5s119.167 -57.166 160.5 -98.499zM800 1291v-18h-112l-167 168l-166 -168h-109v21l226 221h98z" />
    <glyph glyph-name="Scedilla" unicode="&#x15e;" horiz-adv-x="1220" 
d="M1099 1024l-98.002 0.00195312l-17 206c-36 45.333 -85 80.833 -147 106.5s-134.667 38.5 -218 38.5c-120 0 -213.5 -26 -280.5 -78s-100.5 -116.667 -100.5 -194c0 -73.333 30.167 -134.5 90.5 -183.5s164.833 -92.167 313.5 -129.5
c156.667 -40 275.834 -94 357.501 -162s122.5 -157.667 122.5 -269c0 -116 -47.333 -208.333 -142 -277s-215.667 -103 -363 -103c-104 0 -200.5 18.333 -289.5 55s-161.833 89 -218.5 157v255h98l17 -213c44 -50 100.333 -88 169 -114s143.334 -39 224.001 -39
c114.667 0 207.5 25.333 278.5 76s106.5 117.667 106.5 201c0 79.333 -29.667 144.166 -89 194.499s-162.666 94.833 -309.999 133.5c-159.333 40 -280 92 -362 156s-123 150.333 -123 259c0 111.333 46.667 202 140 272s213.666 105 360.999 105
c106 0 200.5 -18.333 283.5 -55s148.5 -86.334 196.5 -149.001v-249zM668.998 -8.99805l-11.001 -64c52.667 -6 95.167 -22.167 127.5 -48.5s48.5 -67.166 48.5 -122.499c0 -60.667 -26.333 -109.167 -79 -145.5s-128 -54.5 -226 -54.5l-7 78
c59.333 0 109.5 10.167 150.5 30.5s61.5 50.166 61.5 89.499c0 38 -13.667 64.5 -41 79.5s-75.666 25.167 -144.999 30.5l28 127h93z" />
    <glyph glyph-name="scedilla" unicode="&#x15f;" horiz-adv-x="1025" 
d="M882 748l-98 0.00390625l-14 153c-30 31.333 -67.833 55.666 -113.5 72.999s-98.167 26 -157.5 26c-87.333 0 -152.833 -18.833 -196.5 -56.5s-65.5 -81.834 -65.5 -132.501c0 -50 18.833 -91.333 56.5 -124s112.834 -61.334 225.501 -86.001
c128.667 -28.667 225 -67.834 289 -117.501s96 -117.167 96 -202.5c0 -90 -36.5 -162.833 -109.5 -218.5s-169.5 -83.5 -289.5 -83.5c-80 0 -152.833 11.167 -218.5 33.5s-122.5 53.833 -170.5 94.5v218h97l17 -154c32 -32 72.5 -55.167 121.5 -69.5
s100.167 -21.5 153.5 -21.5c86.667 0 155 19 205 57s75 84 75 138c0 50.667 -20.833 95 -62.5 133s-116.834 69 -225.501 93c-128.667 28 -224.167 65.167 -286.5 111.5s-93.5 111.166 -93.5 194.499c0 82.667 35 152.5 105 209.5s162.333 85.5 277 85.5
c79.333 0 151.833 -12.167 217.5 -36.5s119.167 -57.166 160.5 -98.499zM563 -5.99609l-11.001 -64c52.667 -6 95.167 -22.167 127.5 -48.5s48.5 -67.166 48.5 -122.499c0 -60.667 -26.333 -109.167 -79 -145.5s-128 -54.5 -226 -54.5l-7 78
c59.333 0 109.5 10.167 150.5 30.5s61.5 50.166 61.5 89.499c0 38 -13.667 64.5 -41 79.5s-75.666 25.167 -144.999 30.5l28 127h93z" />
    <glyph glyph-name="Scaron" unicode="&#x160;" horiz-adv-x="1220" 
d="M1099 1024l-98.002 0.00195312l-17 206c-36 45.333 -85 80.833 -147 106.5s-134.667 38.5 -218 38.5c-120 0 -213.5 -26 -280.5 -78s-100.5 -116.667 -100.5 -194c0 -73.333 30.167 -134.5 90.5 -183.5s164.833 -92.167 313.5 -129.5
c156.667 -40 275.834 -94 357.501 -162s122.5 -157.667 122.5 -269c0 -116 -47.333 -208.333 -142 -277s-215.667 -103 -363 -103c-104 0 -200.5 18.333 -289.5 55s-161.833 89 -218.5 157v255h98l17 -213c44 -50 100.333 -88 169 -114s143.334 -39 224.001 -39
c114.667 0 207.5 25.333 278.5 76s106.5 117.667 106.5 201c0 79.333 -29.667 144.166 -89 194.499s-162.666 94.833 -309.999 133.5c-159.333 40 -280 92 -362 156s-123 150.333 -123 259c0 111.333 46.667 202 140 272s213.666 105 360.999 105
c106 0 200.5 -18.333 283.5 -55s148.5 -86.334 196.5 -149.001v-249zM621.998 1662l167 169h115v-17l-233 -225h-98l-231 225v17h114z" />
    <glyph glyph-name="scaron" unicode="&#x161;" horiz-adv-x="1025" 
d="M882 748l-98 0.00390625l-14 153c-30 31.333 -67.833 55.666 -113.5 72.999s-98.167 26 -157.5 26c-87.333 0 -152.833 -18.833 -196.5 -56.5s-65.5 -81.834 -65.5 -132.501c0 -50 18.833 -91.333 56.5 -124s112.834 -61.334 225.501 -86.001
c128.667 -28.667 225 -67.834 289 -117.501s96 -117.167 96 -202.5c0 -90 -36.5 -162.833 -109.5 -218.5s-169.5 -83.5 -289.5 -83.5c-80 0 -152.833 11.167 -218.5 33.5s-122.5 53.833 -170.5 94.5v218h97l17 -154c32 -32 72.5 -55.167 121.5 -69.5
s100.167 -21.5 153.5 -21.5c86.667 0 155 19 205 57s75 84 75 138c0 50.667 -20.833 95 -62.5 133s-116.834 69 -225.501 93c-128.667 28 -224.167 65.167 -286.5 111.5s-93.5 111.166 -93.5 194.499c0 82.667 35 152.5 105 209.5s162.333 85.5 277 85.5
c79.333 0 151.833 -12.167 217.5 -36.5s119.167 -57.166 160.5 -98.499zM519 1330l167 169h115v-17l-233 -225h-98l-231 225v17h114z" />
    <glyph glyph-name="uni0162" unicode="&#x162;" horiz-adv-x="1280" 
d="M1218 1456v-307h-106l-9 205h-404v-1253l163 -13v-88h-446v88l163 13v1253h-404l-8 -205h-107v307h1158zM688 0l-11.001 -64c52.667 -6 95.167 -22.167 127.5 -48.5s48.5 -67.166 48.5 -122.499c0 -60.667 -26.333 -109.167 -79 -145.5s-128 -54.5 -226 -54.5l-7 78
c59.333 0 109.5 10.167 150.5 30.5s61.5 50.166 61.5 89.499c0 38 -13.667 64.5 -41 79.5s-75.666 25.167 -144.999 30.5l28 127h93z" />
    <glyph glyph-name="uni0163" unicode="&#x163;" horiz-adv-x="733" 
d="M372 1359l0.000976562 -276.998h238v-98h-238v-705c0 -70.667 12.833 -120.834 38.5 -150.501s59.834 -44.5 102.501 -44.5c19.333 0 38.166 0.833008 56.499 2.5s39.5 4.5 63.5 8.5l18 -89c-20 -8.66699 -44.333 -15.334 -73 -20.001s-57.334 -7 -86.001 -7
c-76 0 -135.167 24 -177.5 72s-63.5 124 -63.5 228v705h-186v98h186v277h121zM513.001 0.00195312l-11.001 -64c52.667 -6 95.167 -22.167 127.5 -48.5s48.5 -67.166 48.5 -122.499c0 -60.667 -26.333 -109.167 -79 -145.5s-128 -54.5 -226 -54.5l-7 78
c59.333 0 109.5 10.167 150.5 30.5s61.5 50.166 61.5 89.499c0 38 -13.667 64.5 -41 79.5s-75.666 25.167 -144.999 30.5l28 127h93z" />
    <glyph glyph-name="Tcaron" unicode="&#x164;" horiz-adv-x="1280" 
d="M1218 1456v-307h-106l-9 205h-404v-1253l163 -13v-88h-446v88l163 13v1253h-404l-8 -205h-107v307h1158zM644 1646l167 169h115v-17l-233 -225h-98l-231 225v17h114z" />
    <glyph glyph-name="tcaron" unicode="&#x165;" horiz-adv-x="773" 
d="M372 1359l0.000976562 -276.998h238v-98h-238v-705c0 -70.667 12.833 -120.834 38.5 -150.501s59.834 -44.5 102.501 -44.5c19.333 0 38.166 0.833008 56.499 2.5s39.5 4.5 63.5 8.5l18 -89c-20 -8.66699 -44.333 -15.334 -73 -20.001s-57.334 -7 -86.001 -7
c-76 0 -135.167 24 -177.5 72s-63.5 124 -63.5 228v705h-186v98h186v277h121zM671.001 1465c0 -58 -11 -114.333 -33 -169s-52.667 -100.667 -92 -138l-71 51c27.333 40.667 47.5 81 60.5 121s19.5 84 19.5 132v109h116v-106z" />
    <glyph glyph-name="Tbar" unicode="&#x166;" horiz-adv-x="1280" 
d="M1218 1456v-307h-106l-9 205h-404v-454h270v-102h-270v-697l163 -13v-88h-446v88l163 13v697h-222v102h222v454h-404l-8 -205h-107v307h1158z" />
    <glyph glyph-name="tbar" unicode="&#x167;" horiz-adv-x="733" 
d="M372 1359l0.000976562 -276.998h238v-98h-238v-265h285v-102h-285v-338c0 -70.667 12.833 -120.834 38.5 -150.501s59.834 -44.5 102.501 -44.5c19.333 0 38.166 0.833008 56.499 2.5s39.5 4.5 63.5 8.5l18 -89c-20 -8.66699 -44.333 -15.334 -73 -20.001
s-57.334 -7 -86.001 -7c-76 0 -135.167 24 -177.5 72s-63.5 124 -63.5 228v338h-206v102h206v265h-186v98h186v277h121z" />
    <glyph glyph-name="Utilde" unicode="&#x168;" horiz-adv-x="1487" 
d="M505 1456l-0.000976562 -89l-163 -13v-885c0 -124 36.667 -219.833 110 -287.5s169 -101.5 287 -101.5c120 0 217.667 33.667 293 101s113 163.333 113 288v885l-163 13v89h445v-89l-163 -13v-885c0 -158.667 -48.5 -280 -145.5 -364s-223.5 -126 -379.5 -126
c-153.333 0 -277.666 42.167 -372.999 126.5s-143 205.5 -143 363.5v885l-163 13v89h163h119h163zM1082 1815c0 -58.667 -18.334 -107.333 -55.001 -146s-82.334 -58 -137.001 -58c-49.333 0 -99.666 18.333 -150.999 55s-95 55 -131 55
c-31.333 0 -57.666 -11.667 -78.999 -35s-32 -53 -32 -89l-79 18c0 57.333 17.833 105.5 53.5 144.5s81.167 58.5 136.5 58.5c43.333 0 92.5 -18.333 147.5 -55s99.833 -55 134.5 -55c30.667 0 57 12 79 36s33 54.333 33 91z" />
    <glyph glyph-name="utilde" unicode="&#x169;" horiz-adv-x="1232" 
d="M892 178c-34 -63.333 -80.501 -112.333 -139.501 -147s-128.5 -52 -208.5 -52c-114 0 -203.167 38.667 -267.5 116s-96.5 197.333 -96.5 360v525l-134 13v89h134h119v-629c0 -132 22.5 -226.667 67.5 -284s108.833 -86 191.5 -86c90.667 0 162.834 20 216.501 60
s91.5 95.333 113.5 166v671l-154 13v89h154h120v-981l145 -13v-88h-250zM901.999 1487c0 -58.667 -18.334 -107.333 -55.001 -146s-82.334 -58 -137.001 -58c-49.333 0 -99.666 18.333 -150.999 55s-95 55 -131 55c-31.333 0 -57.666 -11.667 -78.999 -35s-32 -53 -32 -89
l-79 18c0 57.333 17.833 105.5 53.5 144.5s81.167 58.5 136.5 58.5c43.333 0 92.5 -18.333 147.5 -55s99.833 -55 134.5 -55c30.667 0 57 12 79 36s33 54.333 33 91z" />
    <glyph glyph-name="Umacron" unicode="&#x16a;" horiz-adv-x="1487" 
d="M505 1456l-0.000976562 -89l-163 -13v-885c0 -124 36.667 -219.833 110 -287.5s169 -101.5 287 -101.5c120 0 217.667 33.667 293 101s113 163.333 113 288v885l-163 13v89h445v-89l-163 -13v-885c0 -158.667 -48.5 -280 -145.5 -364s-223.5 -126 -379.5 -126
c-153.333 0 -277.666 42.167 -372.999 126.5s-143 205.5 -143 363.5v885l-163 13v89h163h119h163zM1079 1687h-670v97h670v-97z" />
    <glyph glyph-name="umacron" unicode="&#x16b;" horiz-adv-x="1232" 
d="M892 178c-34 -63.333 -80.501 -112.333 -139.501 -147s-128.5 -52 -208.5 -52c-114 0 -203.167 38.667 -267.5 116s-96.5 197.333 -96.5 360v525l-134 13v89h134h119v-629c0 -132 22.5 -226.667 67.5 -284s108.833 -86 191.5 -86c90.667 0 162.834 20 216.501 60
s91.5 95.333 113.5 166v671l-154 13v89h154h120v-981l145 -13v-88h-250zM898.999 1359h-670v97h670v-97z" />
    <glyph glyph-name="Ubreve" unicode="&#x16c;" horiz-adv-x="1487" 
d="M505 1456l-0.000976562 -89l-163 -13v-885c0 -124 36.667 -219.833 110 -287.5s169 -101.5 287 -101.5c120 0 217.667 33.667 293 101s113 163.333 113 288v885l-163 13v89h445v-89l-163 -13v-885c0 -158.667 -48.5 -280 -145.5 -364s-223.5 -126 -379.5 -126
c-153.333 0 -277.666 42.167 -372.999 126.5s-143 205.5 -143 363.5v885l-163 13v89h163h119h163zM1015 1828l1.99707 -6.00195c2.66699 -74 -21.666 -134.5 -72.999 -181.5s-121 -70.5 -209 -70.5c-89.333 0 -159.666 23.333 -210.999 70s-75.333 107.334 -72 182.001l2 6
h94c0 -51.333 15 -92.666 45 -123.999s77.333 -47 142 -47c62.667 0 109.334 16 140.001 48s46 73 46 123h94z" />
    <glyph glyph-name="ubreve" unicode="&#x16d;" horiz-adv-x="1232" 
d="M892 178c-34 -63.333 -80.501 -112.333 -139.501 -147s-128.5 -52 -208.5 -52c-114 0 -203.167 38.667 -267.5 116s-96.5 197.333 -96.5 360v525l-134 13v89h134h119v-629c0 -132 22.5 -226.667 67.5 -284s108.833 -86 191.5 -86c90.667 0 162.834 20 216.501 60
s91.5 95.333 113.5 166v671l-154 13v89h154h120v-981l145 -13v-88h-250zM834.999 1500l1.99707 -6.00195c2.66699 -74 -21.666 -134.5 -72.999 -181.5s-121 -70.5 -209 -70.5c-89.333 0 -159.666 23.333 -210.999 70s-75.333 107.334 -72 182.001l2 6h94
c0 -51.333 15 -92.666 45 -123.999s77.333 -47 142 -47c62.667 0 109.334 16 140.001 48s46 73 46 123h94z" />
    <glyph glyph-name="Uring" unicode="&#x16e;" horiz-adv-x="1487" 
d="M505 1456l-0.000976562 -89l-163 -13v-885c0 -124 36.667 -219.833 110 -287.5s169 -101.5 287 -101.5c120 0 217.667 33.667 293 101s113 163.333 113 288v885l-163 13v89h445v-89l-163 -13v-885c0 -158.667 -48.5 -280 -145.5 -364s-223.5 -126 -379.5 -126
c-153.333 0 -277.666 42.167 -372.999 126.5s-143 205.5 -143 363.5v885l-163 13v89h163h119h163zM571.999 1735c0 46 16.5 85.167 49.5 117.5s72.833 48.5 119.5 48.5c45.333 0 84.333 -16.167 117 -48.5s49 -71.5 49 -117.5c0 -47.333 -16.167 -86.333 -48.5 -117
s-71.5 -46 -117.5 -46c-47.333 0 -87.333 15.333 -120 46s-49 69.667 -49 117zM649.999 1735c0 -26 8.83301 -47.667 26.5 -65s39.167 -26 64.5 -26c24.667 0 45.334 8.5 62.001 25.5s25 38.833 25 65.5s-8.33301 48.834 -25 66.501s-37.334 26.5 -62.001 26.5
c-25.333 0 -46.833 -8.83301 -64.5 -26.5s-26.5 -39.834 -26.5 -66.501z" />
    <glyph glyph-name="uring" unicode="&#x16f;" horiz-adv-x="1232" 
d="M892 178c-34 -63.333 -80.501 -112.333 -139.501 -147s-128.5 -52 -208.5 -52c-114 0 -203.167 38.667 -267.5 116s-96.5 197.333 -96.5 360v525l-134 13v89h134h119v-629c0 -132 22.5 -226.667 67.5 -284s108.833 -86 191.5 -86c90.667 0 162.834 20 216.501 60
s91.5 95.333 113.5 166v671l-154 13v89h154h120v-981l145 -13v-88h-250zM391.999 1407c0 46 16.5 85.167 49.5 117.5s72.833 48.5 119.5 48.5c45.333 0 84.333 -16.167 117 -48.5s49 -71.5 49 -117.5c0 -47.333 -16.167 -86.333 -48.5 -117s-71.5 -46 -117.5 -46
c-47.333 0 -87.333 15.333 -120 46s-49 69.667 -49 117zM469.999 1407c0 -26 8.83301 -47.667 26.5 -65s39.167 -26 64.5 -26c24.667 0 45.334 8.5 62.001 25.5s25 38.833 25 65.5s-8.33301 48.834 -25 66.501s-37.334 26.5 -62.001 26.5
c-25.333 0 -46.833 -8.83301 -64.5 -26.5s-26.5 -39.834 -26.5 -66.501z" />
    <glyph glyph-name="Uhungarumlaut" unicode="&#x170;" horiz-adv-x="1487" 
d="M505 1456l-0.000976562 -89l-163 -13v-885c0 -124 36.667 -219.833 110 -287.5s169 -101.5 287 -101.5c120 0 217.667 33.667 293 101s113 163.333 113 288v885l-163 13v89h445v-89l-163 -13v-885c0 -158.667 -48.5 -280 -145.5 -364s-223.5 -126 -379.5 -126
c-153.333 0 -277.666 42.167 -372.999 126.5s-143 205.5 -143 363.5v885l-163 13v89h163h119h163zM1019 1860h144l2 -6l-295 -260h-114l-2 6zM722.999 1860h133l3 -6l-244 -260h-102l-3 5z" />
    <glyph glyph-name="uhungarumlaut" unicode="&#x171;" horiz-adv-x="1232" 
d="M892 178c-34 -63.333 -80.501 -112.333 -139.501 -147s-128.5 -52 -208.5 -52c-114 0 -203.167 38.667 -267.5 116s-96.5 197.333 -96.5 360v525l-134 13v89h134h119v-629c0 -132 22.5 -226.667 67.5 -284s108.833 -86 191.5 -86c90.667 0 162.834 20 216.501 60
s91.5 95.333 113.5 166v671l-154 13v89h154h120v-981l145 -13v-88h-250zM838.999 1532h144l2 -6l-295 -260h-114l-2 6zM542.999 1532h133l3 -6l-244 -260h-102l-3 5z" />
    <glyph glyph-name="Uogonek" unicode="&#x172;" horiz-adv-x="1487" 
d="M505 1456l-0.000976562 -89l-163 -13v-885c0 -124 36.667 -219.833 110 -287.5s169 -101.5 287 -101.5c120 0 217.667 33.667 293 101s113 163.333 113 288v885l-163 13v89h445v-89l-163 -13v-885c0 -158.667 -48.5 -280 -145.5 -364s-223.5 -126 -379.5 -126
c-153.333 0 -277.666 42.167 -372.999 126.5s-143 205.5 -143 363.5v885l-163 13v89h163h119h163zM786.999 -3c-48 -40 -84.668 -76.001 -110.001 -108.001s-38 -66.667 -38 -104c0 -20.667 6.33301 -40 19 -58s36 -27 70 -27c21.333 0 40.166 3 56.499 9
s32.5 13.667 48.5 23l24 -83c-19.333 -12.667 -41.166 -23.167 -65.499 -31.5s-53.166 -12.5 -86.499 -12.5c-50.667 0 -92.167 14.833 -124.5 44.5s-48.5 71.167 -48.5 124.5c0 46.667 17 92.834 51 138.501s81.667 86.167 143 121.5z" />
    <glyph glyph-name="uogonek" unicode="&#x173;" horiz-adv-x="1232" 
d="M892 178c-34 -63.333 -80.501 -112.333 -139.501 -147s-128.5 -52 -208.5 -52c-114 0 -203.167 38.667 -267.5 116s-96.5 197.333 -96.5 360v525l-134 13v89h134h119v-629c0 -132 22.5 -226.667 67.5 -284s108.833 -86 191.5 -86c90.667 0 162.834 20 216.501 60
s91.5 95.333 113.5 166v671l-154 13v89h154h120v-981l145 -13v-88h-250zM1153 0c-48 -40 -84.668 -76.001 -110.001 -108.001s-38 -66.667 -38 -104c0 -20.667 6.33301 -40 19 -58s36 -27 70 -27c21.333 0 40.166 3 56.499 9s32.5 13.667 48.5 23l24 -83
c-19.333 -12.667 -41.166 -23.167 -65.499 -31.5s-53.166 -12.5 -86.499 -12.5c-50.667 0 -92.167 14.833 -124.5 44.5s-48.5 71.167 -48.5 124.5c0 46.667 17 92.834 51 138.501s81.667 86.167 143 121.5z" />
    <glyph glyph-name="Wcircumflex" unicode="&#x174;" horiz-adv-x="1937" 
d="M423 1367l-148 -11l230 -944l44 -222h6l54 222l320 1044h113l319 -1044l53 -225l6 1l47 224l227 944l-148 11v89h380v-89l-109 -8l-339 -1359h-113l-339 1117l-38 153h-6l-36 -153l-342 -1117h-113l-339 1359l-109 8v89h380v-89zM1261 1613v-18h-112l-167 168l-166 -168
h-109v21l226 221h98z" />
    <glyph glyph-name="wcircumflex" unicode="&#x175;" horiz-adv-x="1690" 
d="M419 993l-136 -11l175 -631l41 -193h6l51 193l231 731h102l231 -731l52 -198h6l45 198l170 631l-136 11v89h364v-89l-105 -8l-287 -985h-102l-241 740l-47 187h-6l-47 -187l-237 -740h-102l-286 985l-105 8v89h363v-89zM1110 1278v-18h-112l-167 168l-166 -168h-109v21
l226 221h98z" />
    <glyph glyph-name="Ycircumflex" unicode="&#x176;" horiz-adv-x="1423" 
d="M455 1367l-140 -10l394 -710l396 710l-140 10v89h401v-89l-124 -10l-474 -825v-431l163 -13v-88h-446v88l163 13v438l-470 818l-123 10v89h400v-89zM992 1606v-18h-112l-167 168l-166 -168h-109v21l226 221h98z" />
    <glyph glyph-name="ycircumflex" unicode="&#x177;" horiz-adv-x="1174" 
d="M1135 993l-110.001 -9.00195l-437 -1157c-28 -73.333 -64.333 -135.666 -109 -186.999s-110 -77 -196 -77c-14 0 -31 1.5 -51 4.5s-34.667 6.16699 -44 9.5l14 100c8 -1.33301 20.833 -2.83301 38.5 -4.5s30.167 -2.5 37.5 -2.5c52.667 0 94.334 18.333 125.001 55
s57.667 84.334 81 143.001l56 145l-384 971l-110 9v89h372v-89l-129 -10l264 -690l38 -130h6l296 820l-132 10v89h374v-89zM873.999 1278v-18h-112l-167 168l-166 -168h-109v21l226 221h98z" />
    <glyph glyph-name="Ydieresis" unicode="&#x178;" horiz-adv-x="1423" 
d="M455 1367l-140 -10l394 -710l396 710l-140 10v89h401v-89l-124 -10l-474 -825v-431l163 -13v-88h-446v88l163 13v438l-470 818l-123 10v89h400v-89zM1028 1634h-173v157h173v-157zM559 1634h-174v157h174v-157z" />
    <glyph glyph-name="Zacute" unicode="&#x179;" horiz-adv-x="1220" 
d="M92 0v92l857 1262h-716l-8 -205h-107v307h977v-87l-861 -1268h778l9 205h107v-306h-1036zM719 1818h147l3 -6l-249 -260h-107z" />
    <glyph glyph-name="zacute" unicode="&#x17a;" horiz-adv-x="1080" 
d="M263 101h588l9 205h107v-306h-851v88l652 891h-534l-8 -204h-107v307h800v-89zM644 1483h147l3 -6l-249 -260h-107z" />
    <glyph glyph-name="Zdotaccent" unicode="&#x17b;" horiz-adv-x="1220" 
d="M92 0v92l857 1262h-716l-8 -205h-107v307h977v-87l-861 -1268h778l9 205h107v-306h-1036zM682 1622h-151v168h151v-168z" />
    <glyph glyph-name="zdotaccent" unicode="&#x17c;" horiz-adv-x="1080" 
d="M263 101h588l9 205h107v-306h-851v88l652 891h-534l-8 -204h-107v307h800v-89zM607 1288h-151v168h151v-168z" />
    <glyph glyph-name="Zcaron" unicode="&#x17d;" horiz-adv-x="1220" 
d="M92 0v92l857 1262h-716l-8 -205h-107v307h977v-87l-861 -1268h778l9 205h107v-306h-1036zM608 1652l167 169h115v-17l-233 -225h-98l-231 225v17h114z" />
    <glyph glyph-name="zcaron" unicode="&#x17e;" horiz-adv-x="1080" 
d="M263 101h588l9 205h107v-306h-851v88l652 891h-534l-8 -204h-107v307h800v-89zM533 1318l167 169h115v-17l-233 -225h-98l-231 225v17h114z" />
    <glyph glyph-name="longs" unicode="&#x17f;" horiz-adv-x="715" 
d="M220 1240c0 108.667 27.166 192.667 81.499 252s130.5 89 228.5 89c22 0 44.333 -1.66699 67 -5s45.334 -8 68.001 -14l-15 -96c-16.667 4 -33 7.16699 -49 9.5s-34.667 3.5 -56 3.5c-65.333 0 -116 -21.167 -152 -63.5s-54 -100.833 -54 -175.5v-1139l163 -13v-88h-445
v88l163 13v1139v0z" />
    <glyph glyph-name="florin" unicode="&#x192;" horiz-adv-x="774" 
d="M657 984h-244.999v-1073c0 -111.333 -26.667 -197.166 -80 -257.499s-127.666 -90.5 -222.999 -90.5c-20.667 0 -39.834 1.66699 -57.501 5s-35.834 8 -54.501 14l13 99c10 -4 25.333 -7.66699 46 -11s38.334 -5 53.001 -5c58 0 103 21.667 135 65s48 103.666 48 180.999
v1073h-179v98h179v158c0 108.667 27.333 192.667 82 252s131 89 229 89c21.333 0 43.333 -1.66699 66 -5s45.667 -8 69 -14l-15 -99c-16 4 -32.333 7.16699 -49 9.5s-36.334 3.5 -59.001 3.5c-65.333 0 -115.5 -20.667 -150.5 -62s-52.5 -99.333 -52.5 -174v-158h245v-98z
" />
    <glyph glyph-name="Ohorn" unicode="&#x1a0;" horiz-adv-x="1468" 
d="M1349 718c0 -218.667 -58.333 -396.501 -175 -533.501s-268.334 -205.5 -455.001 -205.5c-184 0 -333.5 68.667 -448.5 206s-172.5 315 -172.5 533v19c0 218 57.333 395.833 172 533.5s264 206.5 448 206.5c90 0 173 -17.167 249 -51.5s142 -83.166 198 -146.499
c74 6 126 32.667 156 80s45 116.333 45 207h111c0 -106.667 -20.333 -191.167 -61 -253.5s-103 -101.833 -187 -118.5c38.667 -62.667 68.334 -132.5 89.001 -209.5s31 -159.5 31 -247.5v-19zM1229 738.999c0 188.667 -46 341.334 -138 458.001s-216.333 175 -373 175
c-154 0 -275.833 -58.333 -365.5 -175s-134.5 -269.334 -134.5 -458.001v-21c0 -190 45 -343.333 135 -460s212 -175 366 -175c158 0 282.5 58.167 373.5 174.5s136.5 269.833 136.5 460.5v21z" />
    <glyph glyph-name="ohorn" unicode="&#x1a1;" horiz-adv-x="1263" 
d="M103 557c0 159.333 43.6641 290.001 130.997 392.001s203 153 347 153c68.667 0 131.834 -12.5 189.501 -37.5s107.834 -60.167 150.501 -105.5c61.333 6 102.5 28.167 123.5 66.5s31.5 95.833 31.5 172.5h103c0 -90.667 -15.833 -162.334 -47.5 -215.001
s-83.167 -86.334 -154.5 -101.001c26.667 -45.333 47.167 -95.666 61.5 -150.999s21.5 -113.333 21.5 -174v-33c0 -160 -43.5 -290.833 -130.5 -392.5s-202.5 -152.5 -346.5 -152.5c-145.333 0 -261.666 50.833 -348.999 152.5s-131 232.5 -131 392.5v33zM222.997 524.001
c0 -125.333 31.6689 -230.666 95.002 -315.999s151.666 -128 264.999 -128c111.333 0 198.666 42.667 261.999 128s95 190.666 95 315.999v33c0 123.333 -31.833 228 -95.5 314s-151.5 129 -263.5 129s-199.667 -43 -263 -129s-95 -190.667 -95 -314v-33z" />
    <glyph glyph-name="Uhorn" unicode="&#x1af;" horiz-adv-x="1603" 
d="M1244 1456l-0.000976562 -202.001l6 -1c84 0.666992 142.5 25.5 175.5 74.5s49.5 123.167 49.5 222.5h103l2 -5c2 -125.333 -23.667 -221.166 -77 -287.499s-139.666 -101.833 -258.999 -106.5v-682c0 -158 -48.667 -279.167 -146 -363.5
s-223.666 -126.5 -378.999 -126.5c-154 0 -278.667 42.167 -374 126.5s-143 205.5 -143 363.5v885l-163 13v89h163h119h163v-89l-163 -13v-885c0 -124 36.833 -219.833 110.5 -287.5s169.5 -101.5 287.5 -101.5c119.333 0 216.666 33.667 291.999 101s113 163.333 113 288
v885l-163 13v89h163h120z" />
    <glyph glyph-name="uhorn" unicode="&#x1b0;" horiz-adv-x="1374" 
d="M1030 1082v-134.997l6 -2c73.333 -0.666992 121.666 16.666 144.999 51.999s35 94.333 35 177h87l2 -5c2 -102.667 -17.5 -179.334 -58.5 -230.001s-113.167 -77.334 -216.5 -80.001v-758l145 -13v-88h-250l-11 178c-34 -63.333 -80.5 -112.333 -139.5 -147
s-128.5 -52 -208.5 -52c-114 0 -203.167 38.667 -267.5 116s-96.5 197.333 -96.5 360v525l-134 13v89h134h119v-629c0 -132 22.5 -226.667 67.5 -284s108.833 -86 191.5 -86c90.667 0 162.834 20 216.501 60s91.5 95.333 113.5 166v671l-154 13v89h154h120z" />
    <glyph glyph-name="uni01F0" unicode="&#x1f0;" horiz-adv-x="570" 
d="M411 -89c0 -111.333 -26.667 -197.166 -80 -257.499s-127.666 -90.5 -222.999 -90.5c-20.667 0 -39.834 1.66699 -57.501 5s-35.834 8 -54.501 14l13 99c10 -4 25.333 -7.66699 46 -11s38.334 -5 53.001 -5c58 0 103 21.667 135 65s48 103.666 48 180.999v1069l-163 13
v89h283v-1171zM349 1307l167 169h115v-17l-233 -225h-98l-231 225v17h114z" />
    <glyph glyph-name="Aringacute" unicode="&#x1fa;" horiz-adv-x="1485" 
d="M55 88l107 8l517 1360h113l512 -1360l109 -8v-88h-359v88l127 10l-120 326h-654l-121 -326l127 -10v-88h-358v88zM447 531h575l-283 770h-6zM859 1939h126l2 -6l-196 -181h-83l-2 5zM579 1546c0 43.333 15.167 79.833 45.5 109.5s66.833 44.5 109.5 44.5
c42 0 78 -14.833 108 -44.5s45 -66.167 45 -109.5c0 -42.667 -15 -78.334 -45 -107.001s-66 -43 -108 -43c-42.667 0 -79.167 14.333 -109.5 43s-45.5 64.334 -45.5 107.001zM647 1546c0 -24 8.5 -44.333 25.5 -61s37.5 -25 61.5 -25c23.333 0 43.333 8.16699 60 24.5
s25 36.833 25 61.5c0 25.333 -8.33301 46.666 -25 63.999s-36.667 26 -60 26c-24 0 -44.5 -8.66699 -61.5 -26s-25.5 -38.666 -25.5 -63.999z" />
    <glyph glyph-name="aringacute" unicode="&#x1fb;" 
d="M844 0c-8 36.667 -13.668 68.332 -17.001 94.999s-5 53.667 -5 81c-40 -56.667 -93.333 -103.667 -160 -141s-141.667 -56 -225 -56c-106 0 -188 27.333 -246 82s-87 128.667 -87 222c0 100 43 179.333 129 238s202.667 88 350 88h239v143
c0 77.333 -24.833 138 -74.5 182s-119.167 66 -208.5 66c-60 0 -114.833 -8.16699 -164.5 -24.5s-91.167 -38.5 -124.5 -66.5l-10 -145h-99l1 208c50 38.667 109.833 70 179.5 94s143.834 36 222.501 36c119.333 0 215.333 -30.333 288 -91s109 -147.667 109 -261v-532
c0 -22 0.5 -43.167 1.5 -63.5s3.16699 -40.166 6.5 -59.499l108 -7v-88h-213zM449.999 84.998c86.667 0 163 20 229 60s113.667 91.667 143 155v217h-241c-108.667 0 -195.5 -22.5 -260.5 -67.5s-97.5 -101.833 -97.5 -170.5c0 -58 20.167 -104.833 60.5 -140.5
s95.833 -53.5 166.5 -53.5zM668.999 1619h126l2 -6l-196 -181h-83l-2 5zM388.999 1226c0 43.333 15.167 79.833 45.5 109.5s66.833 44.5 109.5 44.5c42 0 78 -14.833 108 -44.5s45 -66.167 45 -109.5c0 -42.667 -15 -78.334 -45 -107.001s-66 -43 -108 -43
c-42.667 0 -79.167 14.333 -109.5 43s-45.5 64.334 -45.5 107.001zM456.999 1226c0 -24 8.5 -44.333 25.5 -61s37.5 -25 61.5 -25c23.333 0 43.333 8.16699 60 24.5s25 36.833 25 61.5c0 25.333 -8.33301 46.666 -25 63.999s-36.667 26 -60 26
c-24 0 -44.5 -8.66699 -61.5 -26s-25.5 -38.666 -25.5 -63.999z" />
    <glyph glyph-name="AEacute" unicode="&#x1fc;" horiz-adv-x="2058" 
d="M51 88l130 10l822 1358h864v-307h-107l-9 205h-578l23 -545h589v-102h-585l26 -606h587l9 205h106v-306h-980v88l158 12l-12 289h-597l-172 -293l106 -8v-88h-380v88zM564 502h526l-35 839l-6 1l-15 -44zM1216 1817h147l3 -6l-249 -260h-107z" />
    <glyph glyph-name="aeacute" unicode="&#x1fd;" horiz-adv-x="1786" 
d="M1285 -21c-92 0 -172.33 18.5 -240.997 55.5s-123 89.5 -163 157.5c-32.667 -58 -85.834 -108 -159.501 -150s-163.5 -63 -269.5 -63c-113.333 0 -200.833 28.167 -262.5 84.5s-92.5 132.833 -92.5 229.5c0 105.333 37.667 188.166 113 248.499
s183.666 90.5 324.999 90.5h263v88c0 89.333 -21.167 158.333 -63.5 207s-104.833 73 -187.5 73c-90 0 -161 -22.333 -213 -67s-78 -100.667 -78 -168l-110 12l-2 6c-3.33301 92 32 168.167 106 228.5s173 90.5 297 90.5c83.333 0 154.333 -18 213 -54
s101.667 -88.333 129 -157c40.667 66 92.667 117.667 156 155s133.333 56 210 56c133.333 0 237.166 -41.333 311.499 -124s111.5 -196 111.5 -340v-100h-755v-29c0 -127.333 30 -230.666 90 -309.999s150.667 -119 272 -119c68.667 0 129 10.833 181 32.5
s99.333 50.5 142 86.5l48 -87c-40 -36.667 -89.5 -68 -148.5 -94s-133.167 -39 -222.5 -39zM469.003 79c68 0 133.833 17.834 197.5 53.501s107.5 74.167 131.5 115.5v288h-261c-103.333 0 -182.5 -23.667 -237.5 -71s-82.5 -106 -82.5 -176
c0 -64.667 21.5 -115.834 64.5 -153.501s105.5 -56.5 187.5 -56.5zM1255 1000c-92 0 -166.833 -33.832 -224.5 -101.499s-90.834 -153.5 -99.501 -257.5l2 -5h625v31c0 97.333 -25.667 177.166 -77 239.499s-126.666 93.5 -225.999 93.5zM974.003 1495h147l3 -6l-249 -260
h-107z" />
    <glyph glyph-name="Oslashacute" unicode="&#x1fe;" horiz-adv-x="1408" 
d="M1351 718c0 -218.667 -58.332 -396.499 -174.999 -533.499s-268.334 -205.5 -455.001 -205.5c-65.333 0 -127 9.16699 -185 27.5s-110.667 45.166 -158 80.499l-105 -171h-104l141 229c-67.333 66 -119.166 148.167 -155.499 246.5s-54.5 207.166 -54.5 326.499v19
c0 218 57.333 395.833 172 533.5s264 206.5 448 206.5c64 0 125.167 -9 183.5 -27s112.166 -44 161.499 -78l82 133h104l-117 -191c68.667 -66.667 122 -149.667 160 -249s57 -208.666 57 -327.999v-19zM1231 739.001c0 98.667 -13.5 188.833 -40.5 270.5
s-64.833 149.167 -113.5 202.5l-6 1l-637 -1035c39.333 -31.333 83 -55 131 -71s100 -24 156 -24c158 0 282.5 58.167 373.5 174.5s136.5 269.833 136.5 460.5v21zM220.001 718c0 -98.667 12.667 -188.499 38 -269.499s61.666 -147.833 108.999 -200.5l6 -1l635 1033
c-40 29.333 -84.167 52 -132.5 68s-100.166 24 -155.499 24c-154 0 -275.833 -58.333 -365.5 -175s-134.5 -269.334 -134.5 -458.001v-21zM810.001 1851h147l3 -6l-249 -260h-107z" />
    <glyph glyph-name="oslashacute" unicode="&#x1ff;" horiz-adv-x="1152" 
d="M97 557c0 159.333 43.6689 290.003 131.002 392.003s203 153 347 153c41.333 0 81 -4.83301 119 -14.5s74 -23.167 108 -40.5l86 167h93l-110 -214c58 -48.667 103 -111.334 135 -188.001s48 -161.667 48 -255v-33c0 -160 -43.5 -290.833 -130.5 -392.5
s-202.5 -152.5 -346.5 -152.5c-38.667 0 -75.334 3.66699 -110.001 11s-67.334 18.666 -98.001 33.999l-84 -164h-93l106 207c-64 47.333 -113.5 110.666 -148.5 189.999s-52.5 168.333 -52.5 267v33zM217.002 524.003c0 -73.333 11.167 -140.832 33.5 -202.499
s54.5 -110.834 96.5 -147.501h6l399 776c-25.333 16 -52.833 28.333 -82.5 37s-61.167 13 -94.5 13c-112 0 -199.667 -43 -263 -129s-95 -190.667 -95 -314v-33zM934.002 557.004c0 66.667 -10.001 129.168 -30.001 187.501s-48.333 106.5 -85 144.5h-5l-397 -771
c22.667 -12.667 47.334 -22.167 74.001 -28.5s55.334 -9.5 86.001 -9.5c111.333 0 198.666 42.667 261.999 128s95 190.666 95 315.999v33zM680.001 1494h147l3 -6l-249 -260h-107z" />
    <glyph glyph-name="uni0218" unicode="&#x218;" horiz-adv-x="1220" 
d="M1099 1024l-98.002 0.00195312l-17 206c-36 45.333 -85 80.833 -147 106.5s-134.667 38.5 -218 38.5c-120 0 -213.5 -26 -280.5 -78s-100.5 -116.667 -100.5 -194c0 -73.333 30.167 -134.5 90.5 -183.5s164.833 -92.167 313.5 -129.5
c156.667 -40 275.834 -94 357.501 -162s122.5 -157.667 122.5 -269c0 -116 -47.333 -208.333 -142 -277s-215.667 -103 -363 -103c-104 0 -200.5 18.333 -289.5 55s-161.833 89 -218.5 157v255h98l17 -213c44 -50 100.333 -88 169 -114s143.334 -39 224.001 -39
c114.667 0 207.5 25.333 278.5 76s106.5 117.667 106.5 201c0 79.333 -29.667 144.166 -89 194.499s-162.666 94.833 -309.999 133.5c-159.333 40 -280 92 -362 156s-123 150.333 -123 259c0 111.333 46.667 202 140 272s213.666 105 360.999 105
c106 0 200.5 -18.333 283.5 -55s148.5 -86.334 196.5 -149.001v-249zM672.998 -250.998c0 -58 -11 -114.333 -33 -169s-52.667 -100.667 -92 -138l-71 51c27.333 40.667 47.5 81 60.5 121s19.5 84 19.5 132v109h116v-106z" />
    <glyph glyph-name="uni0219" unicode="&#x219;" horiz-adv-x="1025" 
d="M882 748l-98 0.00390625l-14 153c-30 31.333 -67.833 55.666 -113.5 72.999s-98.167 26 -157.5 26c-87.333 0 -152.833 -18.833 -196.5 -56.5s-65.5 -81.834 -65.5 -132.501c0 -50 18.833 -91.333 56.5 -124s112.834 -61.334 225.501 -86.001
c128.667 -28.667 225 -67.834 289 -117.501s96 -117.167 96 -202.5c0 -90 -36.5 -162.833 -109.5 -218.5s-169.5 -83.5 -289.5 -83.5c-80 0 -152.833 11.167 -218.5 33.5s-122.5 53.833 -170.5 94.5v218h97l17 -154c32 -32 72.5 -55.167 121.5 -69.5
s100.167 -21.5 153.5 -21.5c86.667 0 155 19 205 57s75 84 75 138c0 50.667 -20.833 95 -62.5 133s-116.834 69 -225.501 93c-128.667 28 -224.167 65.167 -286.5 111.5s-93.5 111.166 -93.5 194.499c0 82.667 35 152.5 105 209.5s162.333 85.5 277 85.5
c79.333 0 151.833 -12.167 217.5 -36.5s119.167 -57.166 160.5 -98.499zM567 -247.996c0 -58 -11 -114.333 -33 -169s-52.667 -100.667 -92 -138l-71 51c27.333 40.667 47.5 81 60.5 121s19.5 84 19.5 132v109h116v-106z" />
    <glyph glyph-name="uni021A" unicode="&#x21a;" horiz-adv-x="1280" 
d="M1218 1456v-307h-106l-9 205h-404v-1253l163 -13v-88h-446v88l163 13v1253h-404l-8 -205h-107v307h1158zM692 -241c0 -58 -11 -114.333 -33 -169s-52.667 -100.667 -92 -138l-71 51c27.333 40.667 47.5 81 60.5 121s19.5 84 19.5 132v109h116v-106z" />
    <glyph glyph-name="uni021B" unicode="&#x21b;" horiz-adv-x="733" 
d="M372 1359l0.000976562 -276.998h238v-98h-238v-705c0 -70.667 12.833 -120.834 38.5 -150.501s59.834 -44.5 102.501 -44.5c19.333 0 38.166 0.833008 56.499 2.5s39.5 4.5 63.5 8.5l18 -89c-20 -8.66699 -44.333 -15.334 -73 -20.001s-57.334 -7 -86.001 -7
c-76 0 -135.167 24 -177.5 72s-63.5 124 -63.5 228v705h-186v98h186v277h121zM517.001 -240.998c0 -58 -11 -114.333 -33 -169s-52.667 -100.667 -92 -138l-71 51c27.333 40.667 47.5 81 60.5 121s19.5 84 19.5 132v109h116v-106z" />
    <glyph glyph-name="uni0237" unicode="&#x237;" horiz-adv-x="570" 
d="M411 -89c0 -111.333 -26.667 -197.166 -80 -257.499s-127.666 -90.5 -222.999 -90.5c-20.667 0 -39.834 1.66699 -57.501 5s-35.834 8 -54.501 14l13 99c10 -4 25.333 -7.66699 46 -11s38.334 -5 53.001 -5c58 0 103 21.667 135 65s48 103.666 48 180.999v1069l-163 13
v89h283v-1171z" />
    <glyph glyph-name="schwa" unicode="&#x259;" horiz-adv-x="1070" 
d="M506 1102c135.333 0 247.831 -50 337.498 -150s134.5 -226.667 134.5 -380v-55c0 -155.333 -44.667 -283.666 -134 -384.999s-196.666 -152 -321.999 -152c-133.333 0 -238 41.667 -314 125s-114 195.333 -114 336v102h764v29c0 121.333 -32.5 223.166 -97.5 305.499
s-149.833 123.5 -254.5 123.5c-75.333 0 -139.166 -10.5 -191.499 -31.5s-96.833 -50.833 -133.5 -89.5l-51 83c40 42 91 75.667 153 101s136.333 38 223 38zM521.998 81c87.333 0 160.832 33.5 220.499 100.5s94.834 151.833 105.501 254.5l-2 5h-632v-29
c0 -94.667 27.5 -173.5 82.5 -236.5s130.167 -94.5 225.5 -94.5z" />
    <glyph glyph-name="uni02BC" unicode="&#x2bc;" horiz-adv-x="364" 
d="M273 1385c0 -62.667 -12.5 -123.331 -37.5 -181.998s-59.167 -108 -102.5 -148l-71 52c31.333 43.333 54.5 86.666 69.5 129.999s22.5 91.666 22.5 144.999v178h119v-175z" />
    <glyph glyph-name="circumflex" unicode="&#x2c6;" horiz-adv-x="801" 
d="M658 1270v-18h-112l-167 168l-166 -168h-109v21l226 221h98z" />
    <glyph glyph-name="caron" unicode="&#x2c7;" horiz-adv-x="779" 
d="M370 1325l167 169h115v-17l-233 -225h-98l-231 225v17h114z" />
    <glyph glyph-name="breve" unicode="&#x2d8;" horiz-adv-x="827" 
d="M688 1456l1.99707 -6.00195c2.66699 -74 -21.666 -134.5 -72.999 -181.5s-121 -70.5 -209 -70.5c-89.333 0 -159.666 23.333 -210.999 70s-75.333 107.334 -72 182.001l2 6h94c0 -51.333 15 -92.666 45 -123.999s77.333 -47 142 -47c62.667 0 109.334 16 140.001 48
s46 73 46 123h94z" />
    <glyph glyph-name="dotaccent" unicode="&#x2d9;" horiz-adv-x="499" 
d="M303 1288h-151v168h151v-168z" />
    <glyph glyph-name="ring" unicode="&#x2da;" horiz-adv-x="652" 
d="M138 1324c0 46 16.5 85.167 49.5 117.5s72.833 48.5 119.5 48.5c45.333 0 84.333 -16.167 117 -48.5s49 -71.5 49 -117.5c0 -47.333 -16.167 -86.333 -48.5 -117s-71.5 -46 -117.5 -46c-47.333 0 -87.333 15.333 -120 46s-49 69.667 -49 117zM216 1324
c0 -26 8.83301 -47.667 26.5 -65s39.167 -26 64.5 -26c24.667 0 45.334 8.5 62.001 25.5s25 38.833 25 65.5s-8.33301 48.834 -25 66.501s-37.334 26.5 -62.001 26.5c-25.333 0 -46.833 -8.83301 -64.5 -26.5s-26.5 -39.834 -26.5 -66.501z" />
    <glyph glyph-name="ogonek" unicode="&#x2db;" horiz-adv-x="440" 
d="M309 0c-48 -40 -84.668 -76.001 -110.001 -108.001s-38 -66.667 -38 -104c0 -20.667 6.33301 -40 19 -58s36 -27 70 -27c21.333 0 40.166 3 56.499 9s32.5 13.667 48.5 23l24 -83c-19.333 -12.667 -41.166 -23.167 -65.499 -31.5s-53.166 -12.5 -86.499 -12.5
c-50.667 0 -92.167 14.833 -124.5 44.5s-48.5 71.167 -48.5 124.5c0 46.667 17 92.834 51 138.501s81.667 86.167 143 121.5z" />
    <glyph glyph-name="tilde" unicode="&#x2dc;" horiz-adv-x="934" 
d="M791 1481c0 -58.667 -18.334 -107.333 -55.001 -146s-82.334 -58 -137.001 -58c-49.333 0 -99.666 18.333 -150.999 55s-95 55 -131 55c-31.333 0 -57.666 -11.667 -78.999 -35s-32 -53 -32 -89l-79 18c0 57.333 17.833 105.5 53.5 144.5s81.167 58.5 136.5 58.5
c43.333 0 92.5 -18.333 147.5 -55s99.833 -55 134.5 -55c30.667 0 57 12 79 36s33 54.333 33 91z" />
    <glyph glyph-name="hungarumlaut" unicode="&#x2dd;" horiz-adv-x="892" 
d="M617 1518h144l2 -6l-295 -260h-114l-2 6zM321 1518h133l3 -6l-244 -260h-102l-3 5z" />
    <glyph glyph-name="uni02F3" unicode="&#x2f3;" horiz-adv-x="437" 
d="M72 -237c0 38 14.333 70.8311 43 98.498s63 41.5 103 41.5c38.667 0 72 -13.667 100 -41s42 -60.333 42 -99c0 -37.333 -14 -69.166 -42 -95.499s-61.333 -39.5 -100 -39.5c-40 0 -74.333 13.333 -103 40s-43 58.334 -43 95.001zM144 -237.002
c0 -17.333 7.33301 -32.833 22 -46.5s32 -20.5 52 -20.5c19.333 0 36 6.66699 50 20s21 29 21 47c0 19.333 -7 36 -21 50s-30.667 21 -50 21c-20 0 -37.333 -7 -52 -21s-22 -30.667 -22 -50z" />
    <glyph glyph-name="gravecomb" unicode="&#x300;" horiz-adv-x="492" 
d="M351 1214h-96l-168 318h125z" />
    <glyph glyph-name="acutecomb" unicode="&#x301;" horiz-adv-x="483" 
d="M258 1533h120l-172 -318h-88z" />
    <glyph glyph-name="tildecomb" unicode="&#x303;" horiz-adv-x="423" 
d="M-161 1481c0 -58.667 -18.334 -107.333 -55.001 -146s-82.334 -58 -137.001 -58c-49.333 0 -99.666 18.333 -150.999 55s-95 55 -131 55c-31.333 0 -57.666 -11.667 -78.999 -35s-32 -53 -32 -89l-79 18c0 57.333 17.833 105.5 53.5 144.5s81.167 58.5 136.5 58.5
c43.333 0 92.5 -18.333 147.5 -55s99.833 -55 134.5 -55c30.667 0 57 12 79 36s33 54.333 33 91z" />
    <glyph glyph-name="hook" unicode="&#x309;" horiz-adv-x="569" 
d="M169 1234l-1 125c59.333 4 102 13 128 27s39 36.333 39 67c0 32.667 -19.5 56.667 -58.5 72s-86.167 23 -141.5 23l7 77c90 0 161.333 -15.667 214 -47s79 -73.333 79 -126c0 -49.333 -16.333 -86.5 -49 -111.5s-74.667 -39.833 -126 -44.5l-1 -62h-90z" />
    <glyph glyph-name="uni030F" unicode="&#x30f;" horiz-adv-x="892" 
d="M496 1258l-2 -6h-113l-295 260l2 6h144zM741 1257l-3 -5h-102l-245 260l3 6h134z" />
    <glyph glyph-name="dotbelow" unicode="&#x323;" horiz-adv-x="358" 
d="M252 -315h-152v168h152v-168z" />
    <glyph glyph-name="tonos" unicode="&#x384;" horiz-adv-x="476" 
d="M214 1617h152l-159 -329h-71z" />
    <glyph glyph-name="dieresistonos" unicode="&#x385;" horiz-adv-x="984" 
d="M803 1304h-159v152h159v-152zM310 1304h-159v152h159v-152zM461 1664h174l-122 -252h-88z" />
    <glyph glyph-name="Alphatonos" unicode="&#x386;" horiz-adv-x="1485" 
d="M55 88l107 8l517 1360h113l512 -1360l109 -8v-88h-359v88l127 10l-120 326h-654l-121 -326l127 -10v-88h-358v88zM447 531h575l-283 770h-6zM238 1617h152l-159 -329h-71z" />
    <glyph glyph-name="anoteleia" unicode="&#x387;" horiz-adv-x="492" 
d="M313 624h-154v180h154v-180z" />
    <glyph glyph-name="Epsilontonos" unicode="&#x388;" horiz-adv-x="1386" 
d="M1050 705h-597v-604h688l9 218h106v-319h-1085v88l163 13v1253l-163 13v89h163h917v-320h-106l-9 218h-683v-547h597v-102zM-10 1619h152l-159 -329h-71z" />
    <glyph glyph-name="Etatonos" unicode="&#x389;" horiz-adv-x="1637" 
d="M171 1367v89h445v-89l-163 -13v-582h828v582l-163 13v89h163h119h163v-89l-163 -13v-1253l163 -13v-88h-445v88l163 13v569h-828v-569l163 -13v-88h-445v88l163 13v1253zM-26 1619h152l-159 -329h-71z" />
    <glyph glyph-name="Iotatonos" unicode="&#x38a;" horiz-adv-x="727" 
d="M191 1367v89h446v-89l-163 -13v-1253l163 -13v-88h-446v88l163 13v1253zM-15 1617h152l-159 -329h-71z" />
    <glyph glyph-name="Omicrontonos" unicode="&#x38c;" horiz-adv-x="1488" 
d="M1377 718c0 -218.667 -58.332 -396.5 -174.999 -533.5s-268.334 -205.5 -455.001 -205.5c-184 0 -333.5 68.667 -448.5 206s-172.5 315 -172.5 533v19c0 218 57.333 395.833 172 533.5s264 206.5 448 206.5c186.667 0 338.5 -68.833 455.5 -206.5
s175.5 -315.5 175.5 -533.5v-19zM1257 739c0 188.667 -46 341.334 -138 458.001s-216.333 175 -373 175c-154 0 -275.833 -58.333 -365.5 -175s-134.5 -269.334 -134.5 -458.001v-21c0 -190 45 -343.333 135 -460s212 -175 366 -175c158 0 282.5 58.167 373.5 174.5
s136.5 269.833 136.5 460.5v21zM86.001 1617h152l-159 -329h-71z" />
    <glyph glyph-name="Upsilontonos" unicode="&#x38e;" horiz-adv-x="1523" 
d="M555 1367l-140 -10l394 -710l396 710l-140 10v89h401v-89l-124 -10l-474 -825v-431l163 -13v-88h-446v88l163 13v438l-470 818l-123 10v89h400v-89zM-69 1614h152l-159 -329h-71z" />
    <glyph glyph-name="Omegatonos" unicode="&#x38f;" horiz-adv-x="1364" 
d="M765 134c102 31.333 189.667 100.833 263 208.5s110 249.167 110 424.5v48c0 168.667 -41.667 304.167 -125 406.5s-195 153.5 -335 153.5s-251.333 -51.167 -334 -153.5s-124 -237.833 -124 -406.5v-48c0 -175.333 37.333 -316.833 112 -424.5
s163.667 -177.167 267 -208.5v-134h-463v101h322c-103.333 59.333 -188.833 148 -256.5 266s-101.5 251.333 -101.5 400v46c0 192 53.667 350.667 161 476s246.333 188 417 188s310 -62.667 418 -188s162 -284 162 -476v-46c0 -148.667 -33.833 -282 -101.5 -400
s-152.167 -206.667 -253.5 -266h325v-101h-463v134zM100 1617h152l-159 -329h-71z" />
    <glyph glyph-name="iotadieresistonos" unicode="&#x390;" horiz-adv-x="628" 
d="M312 274c0 -70.667 12.667 -120.167 38 -148.5s61 -42.5 107 -42.5c17.333 0 33.5 1.33301 48.5 4s32.167 7 51.5 13l25 -89c-23.333 -12 -46.833 -20.333 -70.5 -25s-49.167 -7 -76.5 -7c-82 0 -143 23.5 -183 70.5s-60 123.5 -60 229.5v701l-163 13v89h283v-808z
M594 1249h-159v152h159v-152zM101 1249h-159v152h159v-152zM252 1609h174l-122 -252h-88z" />
    <glyph glyph-name="Alpha" unicode="&#x391;" horiz-adv-x="1485" 
d="M55 88l107 8l517 1360h113l512 -1360l109 -8v-88h-359v88l127 10l-120 326h-654l-121 -326l127 -10v-88h-358v88zM447 531h575l-283 770h-6z" />
    <glyph glyph-name="Beta" unicode="&#x392;" horiz-adv-x="1322" 
d="M659 1456c151.333 0 269.166 -31.834 353.499 -95.501s126.5 -159.5 126.5 -287.5c0 -74.667 -21.167 -139.667 -63.5 -195s-99.833 -93.666 -172.5 -114.999c88.667 -16 160.667 -57.667 216 -125s83 -145 83 -233c0 -130 -42.167 -230 -126.5 -300
s-197.166 -105 -338.499 -105h-666v88l163 13v1253l-163 13v89h163h425zM353 701.999l0.000976562 -601h384c107.333 0 191.666 26.5 252.999 79.5s92 127.167 92 222.5c0 87.333 -27.833 159 -83.5 215s-136.5 84 -242.5 84h-403zM353.001 802.999h334.999
c105.333 0 186.833 23.167 244.5 69.5s86.5 114.5 86.5 204.5c0 92 -30.667 161.167 -92 207.5s-150.666 69.5 -267.999 69.5h-306v-551z" />
    <glyph glyph-name="Gamma" unicode="&#x393;" horiz-adv-x="1209" 
d="M77 88l163 13v1253l-163 13v89h1039v-307h-107l-9 205h-641v-1253l163 -13v-88h-445v88z" />
    <glyph glyph-name="Delta" unicode="&#x394;" horiz-adv-x="1417" 
d="M760 1456l598 -1456h-1327l616 1456h113zM197 101h995l-487 1205h-6z" />
    <glyph glyph-name="Delta" unicode="&#x2206;" horiz-adv-x="1417" 
d="M760 1456l598 -1456h-1327l616 1456h113zM197 101h995l-487 1205h-6z" />
    <glyph glyph-name="Epsilon" unicode="&#x395;" horiz-adv-x="1286" 
d="M950 705h-597v-604h688l9 218h106v-319h-1085v88l163 13v1253l-163 13v89h163h917v-320h-106l-9 218h-683v-547h597v-102z" />
    <glyph glyph-name="Zeta" unicode="&#x396;" horiz-adv-x="1220" 
d="M92 0v92l857 1262h-716l-8 -205h-107v307h977v-87l-861 -1268h778l9 205h107v-306h-1036z" />
    <glyph glyph-name="Eta" unicode="&#x397;" horiz-adv-x="1537" 
d="M71 1367v89h445v-89l-163 -13v-582h828v582l-163 13v89h163h119h163v-89l-163 -13v-1253l163 -13v-88h-445v88l163 13v569h-828v-569l163 -13v-88h-445v88l163 13v1253z" />
    <glyph glyph-name="Theta" unicode="&#x398;" horiz-adv-x="1386" 
d="M966 676h-554v101h554v-101zM1351 718c0 -218.667 -58.332 -396.5 -174.999 -533.5s-268.334 -205.5 -455.001 -205.5c-184 0 -333.5 68.667 -448.5 206s-172.5 315 -172.5 533v19c0 218 57.333 395.833 172 533.5s264 206.5 448 206.5
c186.667 0 338.5 -68.833 455.5 -206.5s175.5 -315.5 175.5 -533.5v-19zM1231 739c0 188.667 -46 341.334 -138 458.001s-216.333 175 -373 175c-154 0 -275.833 -58.333 -365.5 -175s-134.5 -269.334 -134.5 -458.001v-21c0 -190 45 -343.333 135 -460s212 -175 366 -175
c158 0 282.5 58.167 373.5 174.5s136.5 269.833 136.5 460.5v21z" />
    <glyph glyph-name="Iota" unicode="&#x399;" horiz-adv-x="627" 
d="M91 1367v89h446v-89l-163 -13v-1253l163 -13v-88h-446v88l163 13v1253z" />
    <glyph glyph-name="Kappa" unicode="&#x39a;" horiz-adv-x="1417" 
d="M71 88l163 13v1253l-163 13v89h445v-89l-163 -13v-568h199l490 573l-140 8v89h407v-89l-128 -12l-521 -615l562 -640l131 -12v-88h-415v88l138 8l-523 589h-200v-584l163 -13v-88h-445v88z" />
    <glyph glyph-name="Lambda" unicode="&#x39b;" horiz-adv-x="1442" 
d="M52 88l106 8l499 1360h113l499 -1360l108 -8v-88h-359v88l127 10l-429 1187h-6l-428 -1187l128 -10v-88h-358v88z" />
    <glyph glyph-name="Mu" unicode="&#x39c;" horiz-adv-x="1861" 
d="M1518 1280l-6 2l-541 -1282h-83l-540 1276l-6 -1l11 -632v-542l163 -13v-88h-445v88l163 13v1253l-163 13v89h163h157l535 -1282h6l537 1282h321v-89l-163 -13v-1253l163 -13v-88h-445v88l163 13v542z" />
    <glyph glyph-name="Nu" unicode="&#x39d;" horiz-adv-x="1536" 
d="M1469 1456v-89l-163 -13v-1354h-119l-827 1252l-6 -1v-1150l163 -13v-88h-446v88l163 13v1253l-163 13v89h163h120l827 -1250l6 1v1147l-163 13v89h282h163z" />
    <glyph glyph-name="Xi" unicode="&#x39e;" horiz-adv-x="1194" 
d="M80 0v306h107l8 -205h809l10 205h106v-306h-1040zM1093 1456v-307h-106l-9 205h-771l-8 -205h-107v307h1001zM290 784h611v-102h-611v102z" />
    <glyph glyph-name="Omicron" unicode="&#x39f;" horiz-adv-x="1468" 
d="M1357 718c0 -218.667 -58.332 -396.5 -174.999 -533.5s-268.334 -205.5 -455.001 -205.5c-184 0 -333.5 68.667 -448.5 206s-172.5 315 -172.5 533v19c0 218 57.333 395.833 172 533.5s264 206.5 448 206.5c186.667 0 338.5 -68.833 455.5 -206.5
s175.5 -315.5 175.5 -533.5v-19zM1237 739c0 188.667 -46 341.334 -138 458.001s-216.333 175 -373 175c-154 0 -275.833 -58.333 -365.5 -175s-134.5 -269.334 -134.5 -458.001v-21c0 -190 45 -343.333 135 -460s212 -175 366 -175c158 0 282.5 58.167 373.5 174.5
s136.5 269.833 136.5 460.5v21z" />
    <glyph glyph-name="Pi" unicode="&#x3a0;" horiz-adv-x="1561" 
d="M77 88l163 13v1253l-163 13v89h1393v-89l-163 -13v-1253l163 -13v-88h-445v88l163 13v1253h-829v-1253l163 -13v-88h-445v88z" />
    <glyph glyph-name="Rho" unicode="&#x3a1;" horiz-adv-x="1276" 
d="M685 1456c152.667 0 270.834 -38.834 354.501 -116.501s125.5 -180.5 125.5 -308.5c0 -129.333 -41.833 -232.666 -125.5 -309.999s-201.834 -116 -354.501 -116h-332v-504l163 -13v-88h-445v88l163 13v1253l-163 13v89h163h451zM353 706.999h332
c120 0 210.167 30.5 270.5 91.5s90.5 137.833 90.5 230.5c0 93.333 -30 170.833 -90 232.5s-150.333 92.5 -271 92.5h-332v-647z" />
    <glyph glyph-name="Sigma" unicode="&#x3a3;" horiz-adv-x="1173" 
d="M718 743l-489 -641h741l10 204h106v-306h-1007v93l515 666l-515 604v93h952v-307h-107l-9 205h-672l-2 -5l477 -570v-36z" />
    <glyph glyph-name="Tau" unicode="&#x3a4;" horiz-adv-x="1280" 
d="M1218 1456v-307h-106l-9 205h-404v-1253l163 -13v-88h-446v88l163 13v1253h-404l-8 -205h-107v307h1158z" />
    <glyph glyph-name="Upsilon" unicode="&#x3a5;" horiz-adv-x="1423" 
d="M455 1367l-140 -10l394 -710l396 710l-140 10v89h401v-89l-124 -10l-474 -825v-431l163 -13v-88h-446v88l163 13v438l-470 818l-123 10v89h400v-89z" />
    <glyph glyph-name="Phi" unicode="&#x3a6;" horiz-adv-x="1458" 
d="M659 211c-172 0 -311.667 48.832 -419 146.499s-161 221.834 -161 372.501c0 149.333 53.667 273.333 161 372s247 148 419 148h2v104l-163 13v89h163h283v-89l-163 -13v-104h2c170.667 0 310.167 -49.167 418.5 -147.5s162.5 -221.833 162.5 -370.5
c0 -150.667 -54.167 -275.167 -162.5 -373.5s-247.833 -147.5 -418.5 -147.5h-2v-110l163 -13v-88h-446v88l163 13v110h-2zM781 1148v-835.999h4c142 0 254.167 38.667 336.5 116s123.5 178.666 123.5 303.999c0 123.333 -41.333 223.5 -124 300.5
s-194.667 115.5 -336 115.5h-4zM659 1148c-142.667 0 -255.167 -39 -337.5 -117s-123.5 -178.333 -123.5 -301c0 -125.333 41 -226.333 123 -303s194.667 -115 338 -115h2v836h-2z" />
    <glyph glyph-name="Chi" unicode="&#x3a7;" horiz-adv-x="1397" 
d="M54 88l122 10l453 640l-438 619l-122 10v89h400v-89l-139 -6l368 -532l369 532l-137 6v89h399v-89l-122 -10l-437 -619l453 -640l123 -10v-88h-399v88l137 6l-384 553l-385 -553l138 -6v-88h-399v88z" />
    <glyph glyph-name="Psi" unicode="&#x3a8;" horiz-adv-x="1640" 
d="M1018 1456l0.000976562 -89.001l-163 -13v-855l6 -2c119.333 6 216.166 48.333 290.499 127s111.5 182.667 111.5 312v520h282v-89l-163 -13v-418c0 -164 -48.333 -294 -145 -390s-224 -148.667 -382 -158v-287l163 -13v-88h-446v88l163 13v287
c-155.333 10 -280.333 63 -375 159s-142 225.667 -142 389v418l-163 13v89h163h119v-520c0 -128.667 36.167 -232.167 108.5 -310.5s166.833 -121.166 283.5 -128.499l6 2v855l-163 13v89h163h120h163z" />
    <glyph glyph-name="Omega" unicode="&#x3a9;" horiz-adv-x="1344" 
d="M745 134c102 31.333 189.667 100.833 263 208.5s110 249.167 110 424.5v48c0 168.667 -41.667 304.167 -125 406.5s-195 153.5 -335 153.5s-251.333 -51.167 -334 -153.5s-124 -237.833 -124 -406.5v-48c0 -175.333 37.333 -316.833 112 -424.5
s163.667 -177.167 267 -208.5v-134h-463v101h322c-103.333 59.333 -188.833 148 -256.5 266s-101.5 251.333 -101.5 400v46c0 192 53.667 350.667 161 476s246.333 188 417 188s310 -62.667 418 -188s162 -284 162 -476v-46c0 -148.667 -33.833 -282 -101.5 -400
s-152.167 -206.667 -253.5 -266h325v-101h-463v134z" />
    <glyph glyph-name="Omega" unicode="&#x2126;" horiz-adv-x="1344" 
d="M745 134c102 31.333 189.667 100.833 263 208.5s110 249.167 110 424.5v48c0 168.667 -41.667 304.167 -125 406.5s-195 153.5 -335 153.5s-251.333 -51.167 -334 -153.5s-124 -237.833 -124 -406.5v-48c0 -175.333 37.333 -316.833 112 -424.5
s163.667 -177.167 267 -208.5v-134h-463v101h322c-103.333 59.333 -188.833 148 -256.5 266s-101.5 251.333 -101.5 400v46c0 192 53.667 350.667 161 476s246.333 188 417 188s310 -62.667 418 -188s162 -284 162 -476v-46c0 -148.667 -33.833 -282 -101.5 -400
s-152.167 -206.667 -253.5 -266h325v-101h-463v134z" />
    <glyph glyph-name="Iotadieresis" unicode="&#x3aa;" horiz-adv-x="627" 
d="M91 1367v89h446v-89l-163 -13v-1253l163 -13v-88h-446v88l163 13v1253zM637 1640h-173v157h173v-157zM168 1640h-174v157h174v-157z" />
    <glyph glyph-name="Upsilondieresis" unicode="&#x3ab;" horiz-adv-x="1423" 
d="M455 1367l-140 -10l394 -710l396 710l-140 10v89h401v-89l-124 -10l-474 -825v-431l163 -13v-88h-446v88l163 13v438l-470 818l-123 10v89h400v-89zM1028 1634h-173v157h173v-157zM559 1634h-174v157h174v-157z" />
    <glyph glyph-name="alphatonos" unicode="&#x3ac;" horiz-adv-x="1204" 
d="M971 1082v-808.001c0 -69.333 8.83301 -117.833 26.5 -145.5s42.5 -41.5 74.5 -41.5c8 0 15.5 0.5 22.5 1.5s16.167 3.16699 27.5 6.5l17 -93c-15.333 -8.66699 -31 -14.667 -47 -18s-33 -5 -51 -5c-53.333 0 -95.333 15.5 -126 46.5s-50.334 81.167 -59.001 150.5
c-35.333 -63.333 -81.333 -112 -138 -146s-123.667 -51 -201 -51c-129.333 0 -230.5 48.167 -303.5 144.5s-109.5 225.5 -109.5 387.5v21c0 172.667 36.5 310.834 109.5 414.501s174.833 155.5 305.5 155.5c76.667 0 142.834 -17.833 198.501 -53.5
s101.167 -86.5 136.5 -152.5l14 186h103zM224 510.999c0 -130.667 26.167 -235.167 78.5 -313.5s131.166 -117.5 236.499 -117.5c78 0 142.333 21.5 193 64.5s90.334 102.167 119.001 177.5v413c-28 78 -67.333 141.667 -118 191s-114.667 74 -192 74
c-105.333 0 -184.5 -43.5 -237.5 -130.5s-79.5 -199.5 -79.5 -337.5v-21zM598 1580h152l-159 -329h-71z" />
    <glyph glyph-name="epsilontonos" unicode="&#x3ad;" horiz-adv-x="1093" 
d="M105 297c0 64.667 18.8311 118.832 56.498 162.499s93.5 75.5 167.5 95.5c-65.333 22.667 -115.833 55.167 -151.5 97.5s-53.5 89.5 -53.5 141.5c0 97.333 37.833 172.5 113.5 225.5s178.834 79.5 309.501 79.5c120.667 0 222.334 -28.167 305.001 -84.5
s122.334 -129.166 119.001 -218.499l-2 -6h-109c0 60.667 -30.167 110.5 -90.5 149.5s-134.5 58.5 -222.5 58.5c-100.667 0 -176.334 -19 -227.001 -57s-76 -86.333 -76 -145c0 -61.333 24.167 -109 72.5 -143s123.833 -51 226.5 -51h185v-100h-185
c-106 0 -185.5 -16.833 -238.5 -50.5s-79.5 -85.834 -79.5 -156.501c0 -64 28.333 -115.5 85 -154.5s135.667 -58.5 237 -58.5c97.333 0 176.666 21.833 237.999 65.5s92 97.834 92 162.501h110l2 -6c3.33301 -104 -39.167 -183.667 -127.5 -239s-193.166 -83 -314.499 -83
c-131.333 0 -237.833 28 -319.5 84s-122.5 133 -122.5 231zM575.998 1581h152l-159 -329h-71z" />
    <glyph glyph-name="etatonos" unicode="&#x3ae;" horiz-adv-x="1203" 
d="M212 0l1.00098 891c0 34.667 -6.5 58.667 -19.5 72s-31.833 20 -56.5 20c-18.667 0 -37.667 -2.66699 -57 -8s-37 -12 -53 -20l-31 91c21.333 14 47.666 25.833 78.999 35.5s62.666 14.5 93.999 14.5c55.333 0 96.5 -14.333 123.5 -43s40.5 -75 40.5 -139v-10
c35.333 62.667 81.833 111.334 139.5 146.001s125.834 52 204.501 52c118 0 207.333 -35 268 -105s91 -182.667 91 -338v-1074h-119v1073c0 124 -23.167 212 -69.5 264s-112.5 78 -198.5 78c-82.667 0 -150 -20.333 -202 -61s-90 -95.334 -114 -164.001v-775h-121z
M651.001 1580h152l-159 -329h-71z" />
    <glyph glyph-name="iotatonos" unicode="&#x3af;" horiz-adv-x="628" 
d="M312 274c0 -70.667 12.667 -120.167 38 -148.5s61 -42.5 107 -42.5c17.333 0 33.5 1.33301 48.5 4s32.167 7 51.5 13l25 -89c-23.333 -12 -46.833 -20.333 -70.5 -25s-49.167 -7 -76.5 -7c-82 0 -143 23.5 -183 70.5s-60 123.5 -60 229.5v701l-163 13v89h283v-808z
M292 1569h152l-159 -329h-71z" />
    <glyph glyph-name="upsilondieresistonos" unicode="&#x3b0;" horiz-adv-x="1192" 
d="M348 405c0 -112 21.6709 -194.168 65.0039 -246.501s102 -78.5 176 -78.5c107.333 0 190.166 45.5 248.499 136.5s87.5 198.833 87.5 323.5c-1.33301 93.333 -12.333 184.833 -33 274.5s-48.667 178.834 -84 267.501h130c32.667 -80 58.5 -162 77.5 -246
s28.5 -182 28.5 -294c0 -164.667 -38.833 -299.667 -116.5 -405s-188.5 -158 -332.5 -158c-116 0 -206 34.833 -270 104.5s-96 177.5 -96 323.5v487c0 34 -6.66699 57.667 -20 71s-32.333 20 -57 20c-18.667 0 -37.834 -2.66699 -57.501 -8s-37.167 -11.666 -52.5 -18.999
l-31 91c23.333 15.333 50.166 27.5 80.499 36.5s61.166 13.5 92.499 13.5c56 0 97.333 -14.333 124 -43s40 -75.334 40 -140.001v-511zM878.004 1249h-159v152h159v-152zM385.004 1249h-159v152h159v-152zM536.004 1609h174l-122 -252h-88z" />
    <glyph glyph-name="alpha" unicode="&#x3b1;" horiz-adv-x="1204" 
d="M971 1082v-808.001c0 -69.333 8.83301 -117.833 26.5 -145.5s42.5 -41.5 74.5 -41.5c8 0 15.5 0.5 22.5 1.5s16.167 3.16699 27.5 6.5l17 -93c-15.333 -8.66699 -31 -14.667 -47 -18s-33 -5 -51 -5c-53.333 0 -95.333 15.5 -126 46.5s-50.334 81.167 -59.001 150.5
c-35.333 -63.333 -81.333 -112 -138 -146s-123.667 -51 -201 -51c-129.333 0 -230.5 48.167 -303.5 144.5s-109.5 225.5 -109.5 387.5v21c0 172.667 36.5 310.834 109.5 414.501s174.833 155.5 305.5 155.5c76.667 0 142.834 -17.833 198.501 -53.5
s101.167 -86.5 136.5 -152.5l14 186h103zM224 510.999c0 -130.667 26.167 -235.167 78.5 -313.5s131.166 -117.5 236.499 -117.5c78 0 142.333 21.5 193 64.5s90.334 102.167 119.001 177.5v413c-28 78 -67.333 141.667 -118 191s-114.667 74 -192 74
c-105.333 0 -184.5 -43.5 -237.5 -130.5s-79.5 -199.5 -79.5 -337.5v-21z" />
    <glyph glyph-name="beta" unicode="&#x3b2;" horiz-adv-x="1158" 
d="M560 1477c122.667 0 221.501 -35.833 296.501 -107.5s112.5 -163.834 112.5 -276.501c0 -67.333 -17.5 -128.5 -52.5 -183.5s-83.833 -97.5 -146.5 -127.5c92 -26 162.667 -72.5 212 -139.5s74 -146.5 74 -238.5c0 -133.333 -41.333 -237.5 -124 -312.5
s-191.334 -112.5 -326.001 -112.5c-64 0 -126.833 10.833 -188.5 32.5s-113.167 53.834 -154.5 96.501v-507h-119v1462c0 116 40.667 214 122 294s179.333 120 294 120zM556.001 823c100.667 0 174.833 24 222.5 72s71.5 115.667 71.5 203
c0 75.333 -25.167 140.333 -75.5 195s-121.833 82 -214.5 82c-84 0 -154.5 -29.667 -211.5 -89s-85.5 -133.666 -85.5 -222.999v-825c30 -48.667 74.833 -87.167 134.5 -115.5s126.167 -42.5 199.5 -42.5c108 0 191.5 28.667 250.5 86s88.5 135.333 88.5 234
c0 93.333 -29.167 170.166 -87.5 230.499s-139.5 90.5 -243.5 90.5h-143v102h94z" />
    <glyph glyph-name="gamma" unicode="&#x3b3;" horiz-adv-x="1085" 
d="M1078 993l-99 -7.99902l-362 -954v-446h-120v438l-297 849c-18 49.333 -35.5 81 -52.5 95s-39.5 21 -67.5 21c-12 0 -24.167 -1.66699 -36.5 -5s-23.166 -6.66602 -32.499 -9.99902l-17 92c13.333 7.33301 30.666 13.666 51.999 18.999s42 8 62 8
c49.333 0 87.833 -11.833 115.5 -35.5s52.167 -66.834 73.5 -129.501l223 -656l34 -128h6l38 128l258 711l-136 11v89h358v-89z" />
    <glyph glyph-name="delta" unicode="&#x3b4;" horiz-adv-x="1140" 
d="M218 1289c0 81.333 33.3301 147.335 99.9971 198.002s155 76 265 76c53.333 0 106.333 -6.83301 159 -20.5s103 -33.834 151 -60.501l-30 -88c-45.333 20 -89.666 35.833 -132.999 47.5s-92.666 17.5 -147.999 17.5c-71.333 0 -129.833 -15 -175.5 -45
s-68.5 -71 -68.5 -123c0 -47.333 20.5 -88.833 61.5 -124.5s112.833 -66.834 215.5 -93.501c140 -40 247.167 -108 321.5 -204s111.5 -207 111.5 -333v-32c0 -154 -43.5 -279.833 -130.5 -377.5s-202.5 -146.5 -346.5 -146.5c-145.333 0 -261.666 48.833 -348.999 146.5
s-131 223.5 -131 377.5v32c0 125.333 34.667 231 104 317s151 138 245 156l2 11c-76 28.667 -132.333 66.5 -169 113.5s-55 98.833 -55 155.5zM211.997 504.002c0 -120 31.6689 -220.667 95.002 -302s151.333 -122 264 -122c111.333 0 198.666 40.667 261.999 122
s95 182 95 302v32c0 103.333 -33.833 194.5 -101.5 273.5s-148.834 127.167 -243.501 144.5c-116 0 -206.833 -40.833 -272.5 -122.5s-98.5 -180.167 -98.5 -295.5v-32z" />
    <glyph glyph-name="epsilon" unicode="&#x3b5;" horiz-adv-x="1093" 
d="M105 297c0 64.667 18.8311 118.832 56.498 162.499s93.5 75.5 167.5 95.5c-65.333 22.667 -115.833 55.167 -151.5 97.5s-53.5 89.5 -53.5 141.5c0 97.333 37.833 172.5 113.5 225.5s178.834 79.5 309.501 79.5c120.667 0 222.334 -28.167 305.001 -84.5
s122.334 -129.166 119.001 -218.499l-2 -6h-109c0 60.667 -30.167 110.5 -90.5 149.5s-134.5 58.5 -222.5 58.5c-100.667 0 -176.334 -19 -227.001 -57s-76 -86.333 -76 -145c0 -61.333 24.167 -109 72.5 -143s123.833 -51 226.5 -51h185v-100h-185
c-106 0 -185.5 -16.833 -238.5 -50.5s-79.5 -85.834 -79.5 -156.501c0 -64 28.333 -115.5 85 -154.5s135.667 -58.5 237 -58.5c97.333 0 176.666 21.833 237.999 65.5s92 97.834 92 162.501h110l2 -6c3.33301 -104 -39.167 -183.667 -127.5 -239s-193.166 -83 -314.499 -83
c-131.333 0 -237.833 28 -319.5 84s-122.5 133 -122.5 231z" />
    <glyph glyph-name="zeta" unicode="&#x3b6;" horiz-adv-x="1007" 
d="M925 1456l0.00195312 -78l-396 -504c-83.333 -103.333 -142.5 -194 -177.5 -272s-52.5 -157.667 -52.5 -239c0 -66.667 19.667 -118.667 59 -156s104 -66.333 194 -87l109 -31c84 -22.667 144.167 -46.834 180.5 -72.501s54.5 -68.5 54.5 -128.5
c-0.666992 -53.333 -18.834 -106.333 -54.501 -159s-72.834 -91.334 -111.501 -116.001l-68 57c33.333 28 61.5 59.5 84.5 94.5s34.5 71.5 34.5 109.5c0 30 -12.5 53.667 -37.5 71s-65.5 33.333 -121.5 48l-90 23c-127.333 32.667 -217.833 74.834 -271.5 126.501
s-80.5 124.167 -80.5 217.5c0 77.333 19.833 163.833 59.5 259.5s105.5 199.834 197.5 312.501l339 417l-3 5h-700v102h852z" />
    <glyph glyph-name="eta" unicode="&#x3b7;" horiz-adv-x="1203" 
d="M212 0l1.00098 891c0 34.667 -6.5 58.667 -19.5 72s-31.833 20 -56.5 20c-18.667 0 -37.667 -2.66699 -57 -8s-37 -12 -53 -20l-31 91c21.333 14 47.666 25.833 78.999 35.5s62.666 14.5 93.999 14.5c55.333 0 96.5 -14.333 123.5 -43s40.5 -75 40.5 -139v-10
c35.333 62.667 81.833 111.334 139.5 146.001s125.834 52 204.501 52c118 0 207.333 -35 268 -105s91 -182.667 91 -338v-1074h-119v1073c0 124 -23.167 212 -69.5 264s-112.5 78 -198.5 78c-82.667 0 -150 -20.333 -202 -61s-90 -95.334 -114 -164.001v-775h-121z" />
    <glyph glyph-name="theta" unicode="&#x3b8;" horiz-adv-x="1152" 
d="M1033 565c0 -188 -39.834 -332.667 -119.501 -434s-190.5 -152 -332.5 -152c-141.333 0 -252.166 50.833 -332.499 152.5s-120.5 246.167 -120.5 433.5v325c0 187.333 39.833 332 119.5 434s190.167 153 331.5 153c142 0 253.167 -51 333.5 -153
s120.5 -246.667 120.5 -434v-325zM246.999 775l666 0.00195312v135c0 149.333 -28.5 264.166 -85.5 344.499s-139.833 120.5 -248.5 120.5c-108 0 -190.333 -40.333 -247 -121s-85 -195.334 -85 -344.001v-135zM912.999 673.002h-666v-126
c0 -148 28.833 -262.833 86.5 -344.5s140.167 -122.5 247.5 -122.5c108 0 190.333 40.667 247 122s85 196.333 85 345v126z" />
    <glyph glyph-name="iota" unicode="&#x3b9;" horiz-adv-x="628" 
d="M312 274c0 -70.667 12.667 -120.167 38 -148.5s61 -42.5 107 -42.5c17.333 0 33.5 1.33301 48.5 4s32.167 7 51.5 13l25 -89c-23.333 -12 -46.833 -20.333 -70.5 -25s-49.167 -7 -76.5 -7c-82 0 -143 23.5 -183 70.5s-60 123.5 -60 229.5v701l-163 13v89h283v-808z" />
    <glyph glyph-name="kappa" unicode="&#x3ba;" horiz-adv-x="1202" 
d="M62 88l163 13v878l-159 14v88h278v-451h127l340 351l-2 5l-97 7v89h382v-89l-127 -12l-382 -394l420 -488l120 -11v-88h-183l-459 527h-139v-426l163 -13v-88h-445v88z" />
    <glyph glyph-name="lambda" unicode="&#x3bb;" horiz-adv-x="1135" 
d="M167 0l-132.001 0.000976562l416 1052l-80 206c-18 53.333 -38.667 93 -62 119s-55 39 -95 39c-5.33301 0 -13.333 -0.5 -24 -1.5s-18.334 -1.83301 -23.001 -2.5l-5 95c8 2.66699 21 5.16699 39 7.5s33.333 3.5 46 3.5c68 0 118.833 -19.333 152.5 -58
s61.167 -90.334 82.5 -155.001l398 -1047c20 -53.333 40.667 -93.833 62 -121.5s47.333 -41.5 78 -41.5c6 0 13.333 0.166992 22 0.5s15.334 1.5 20.001 3.5l8 -99c-7.33301 -2.66699 -17.5 -5.16699 -30.5 -7.5s-25.167 -3.5 -36.5 -3.5
c-61.333 0 -109.166 19.5 -143.499 58.5s-65.833 96.833 -94.5 173.5l-256 677h-6l-33 -114z" />
    <glyph glyph-name="uni03BC" unicode="&#x3bc;" horiz-adv-x="1297" 
d="M347 1082v-633c0 -138 23.667 -234 71 -288s111.333 -81 192 -81c91.333 0 162 19.833 212 59.5s84.333 96.5 103 170.5v670l-163 13v89h283v-981l163 -13v-88h-266l-11 155c-32 -56.667 -74 -100.167 -126 -130.5s-114.333 -45.5 -187 -45.5c-58.667 0 -111 10 -157 30
s-84 52 -114 96v-521h-118v1396l-163 13v89h163h118z" />
    <glyph glyph-name="nu" unicode="&#x3bd;" horiz-adv-x="1155" 
d="M411 993l-135 -10l270 -712l35 -127h6l38 127l266 712l-135 10v89h364v-89l-106 -9l-382 -984h-96l-383 984l-106 9v89h364v-89z" />
    <glyph glyph-name="xi" unicode="&#x3be;" horiz-adv-x="1005" 
d="M902 1333c-38 12.667 -75.999 22.665 -113.999 29.998s-76 11 -114 11c-120 0 -210.167 -21.667 -270.5 -65s-90.5 -99 -90.5 -167c0 -76 29.333 -134.667 88 -176s150.667 -62 276 -62h131v-103h-131c-134 0 -240.5 -29.5 -319.5 -88.5s-118.5 -148.5 -118.5 -268.5
c0 -98 32.667 -174.833 98 -230.5s155.333 -97.5 270 -125.5l75 -16c84 -20 145.167 -43.333 183.5 -70s57.5 -69.334 57.5 -128.001c0 -48.667 -17.833 -96.5 -53.5 -143.5s-72.5 -84.167 -110.5 -111.5l-65 58c38 35.333 66.5 65.5 85.5 90.5s28.5 56.833 28.5 95.5
c0 30.667 -12.833 54.167 -38.5 70.5s-68.167 30.833 -127.5 43.5l-48 12c-153.333 36 -270.833 87.833 -352.5 155.5s-122.5 168.834 -122.5 303.501c0 102 29 187.333 87 256s138.333 118 241 148c-81.333 24.667 -144.166 62.334 -188.499 113.001
s-66.5 108.334 -66.5 173.001c0 107.333 43.167 190.333 129.5 249s204.166 88 353.499 88c42.667 0 85.667 -4 129 -12s81.666 -18.667 114.999 -32z" />
    <glyph glyph-name="omicron" unicode="&#x3bf;" horiz-adv-x="1152" 
d="M97 557c0 159.333 43.666 290 130.999 392s203 153 347 153c144.667 0 260.667 -51 348 -153s131 -232.667 131 -392v-33c0 -160 -43.5 -290.833 -130.5 -392.5s-202.5 -152.5 -346.5 -152.5c-145.333 0 -261.666 50.833 -348.999 152.5s-131 232.5 -131 392.5v33z
M216.999 524c0 -125.333 31.6689 -230.666 95.002 -315.999s151.666 -128 264.999 -128c111.333 0 198.666 42.667 261.999 128s95 190.666 95 315.999v33c0 123.333 -31.833 228 -95.5 314s-151.5 129 -263.5 129s-199.667 -43 -263 -129s-95 -190.667 -95 -314v-33z" />
    <glyph glyph-name="pi" unicode="&#x3c0;" horiz-adv-x="1273" 
d="M1108 979h-183v-705c0 -70.667 12.667 -120.167 38 -148.5s61 -42.5 107 -42.5c17.333 0 33.5 1.33301 48.5 4s32.167 7 51.5 13l25 -89c-23.333 -12 -46.833 -20.333 -70.5 -25s-49.167 -7 -76.5 -7c-82 0 -143 23.5 -183 70.5s-60 123.5 -60 229.5v700h-463v-979h-120
v979h-147v103h1033v-103z" />
    <glyph glyph-name="rho" unicode="&#x3c1;" horiz-adv-x="1134" 
d="M1002 511c0 -162 -36.166 -291.167 -108.499 -387.5s-172.833 -144.5 -301.5 -144.5c-74.667 0 -140.334 13.333 -197.001 40s-103.667 65 -141 115v-550h-120v1015h1l-1 9c0 156 40.833 277.333 122.5 364s185.167 130 310.5 130c138 0 245 -51.5 321 -154.5
s114 -241.5 114 -415.5v-21zM882.001 532c0 138 -26.332 250.5 -78.999 337.5s-131.334 130.5 -236.001 130.5c-105.333 0 -183.833 -40.667 -235.5 -122s-77.5 -175.333 -77.5 -282v-329c28 -58 67.833 -103.667 119.5 -137s115.5 -50 191.5 -50
c104.667 0 183.667 39.167 237 117.5s80 182.833 80 313.5v21z" />
    </font>
</defs>
</svg>
